%
M48
M72
T01C0.0118
T02C0.0138
T03C0.0150
T04C0.0157
T05C0.0200
T06C0.0240
T07C0.0300
T08C0.0315
T09C0.0320
T10C0.0350
T11C0.0360
T12C0.0362
T13C0.0394
T14C0.0400
T15C0.0433
T16C0.0472
T17C0.0500
T18C0.0560
T19C0.0600
T20C0.0709
T21C0.0750
T22C0.0787
T23C0.0906
T24C0.1181
T25C0.1260
T26C0.1280
%
T01
X18488Y7426
X18888Y7376
X26198Y5606
X29888Y6426
X30488Y6426
X31888Y6426
X32288Y6426
X33588Y6226
X34338Y6226
X34738Y6226
X35088Y5676
X36948Y7086
X37408Y7086
X36428Y7766
X35388Y8026
X35088Y7776
X33288Y7976
X32488Y8076
X31888Y8076
X31288Y8076
X31188Y8876
X30238Y9576
X29638Y9876
X28988Y9626
X28438Y9676
X27688Y8976
X27688Y8626
X29388Y7576
X34088Y8576
X34538Y8726
X34038Y9226
X35575Y9826
X33298Y10626
X32958Y10626
X34748Y11446
X34888Y11076
X31525Y12426
X30488Y11826
X30088Y11826
X32575Y13046
X34265Y13046
X34935Y12896
X35325Y12886
X36425Y13136
X36445Y13616
X35425Y13896
X34405Y13896
X34405Y14236
X35035Y14866
X35475Y14996
X34405Y15196
X34415Y16006
X33279Y16526
X31835Y16026
X30805Y16446
X29575Y15526
X28845Y16446
X26395Y15106
X28205Y14616
X29565Y14556
X31855Y14596
X31835Y15296
X35205Y16886
X35275Y17426
X36175Y17626
X37075Y16976
X37775Y16976
X37575Y15976
X35925Y16676
X38425Y14626
X40615Y13816
X40335Y13566
X40325Y13076
X40775Y13326
X39745Y13566
X38815Y12626
X38975Y12176
X37935Y12626
X40408Y11516
X42268Y12136
X42158Y12486
X41908Y12716
X43315Y13006
X43535Y13286
X44268Y13796
X43445Y14776
X43305Y15136
X43565Y15716
X44235Y15426
X45955Y15886
X46875Y16576
X47325Y17026
X47975Y16836
X49188Y16926
X49895Y17476
X50735Y17116
X51525Y17376
X50775Y17776
X51488Y18226
X52015Y19116
X53375Y18776
X53925Y18726
X54388Y18826
X55188Y18426
X55635Y18086
X55115Y17726
X54995Y17016
X54725Y16806
X53938Y16526
X53185Y15816
X52845Y15826
X53175Y15476
X53425Y15246
X53815Y14986
X53575Y14376
X53815Y14076
X53575Y13526
X53075Y13766
X52625Y12976
X53025Y12926
X53175Y12376
X53238Y11976
X52805Y11856
X51645Y12146
X52225Y12626
X51698Y13196
X51688Y13536
X51358Y13186
X49695Y13456
X48025Y14376
X47425Y14376
X48488Y15076
X47865Y15796
X49695Y15236
X50565Y14916
X50935Y14956
X51325Y14636
X51925Y15226
X53185Y14666
X55095Y14166
X56475Y14956
X56855Y14796
X56865Y14246
X57505Y13846
X57095Y13346
X56785Y12826
X57275Y11736
X57365Y11036
X56115Y11306
X55525Y11306
X54925Y10656
X54645Y10416
X55375Y9626
X55075Y9426
X54725Y9426
X55075Y8796
X55955Y9386
X57525Y8576
X55475Y7926
X54175Y7026
X53875Y7226
X53635Y7711
X52805Y7056
X53085Y6016
X53525Y6026
X54175Y6026
X57908Y7176
X58248Y7056
X61248Y6336
X61248Y5996
X62248Y6466
X61938Y6946
X63038Y6416
X63468Y9006
X54955Y12516
X53088Y10646
X52545Y10036
X52235Y9686
X52565Y9206
X53125Y9586
X51775Y8876
X51125Y8626
X50835Y8046
X50375Y8626
X49665Y8636
X49085Y9456
X48725Y9446
X48365Y9416
X47988Y9716
X47735Y9476
X47435Y9706
X47695Y9936
X47945Y10176
X46925Y10526
X46368Y10916
X45655Y11346
X45265Y11176
X44808Y11336
X44345Y10776
X44275Y10376
X43568Y10546
X42865Y10126
X43688Y9526
X43425Y9206
X42395Y9186
X42755Y8376
X42505Y8106
X43238Y7326
X43838Y7476
X45156Y7525
X46165Y8066
X45625Y8426
X45025Y8476
X45741Y9560
X46325Y8826
X46625Y8576
X46925Y9016
X44435Y9656
X47558Y11546
X47578Y11896
X47238Y11896
X46898Y11896
X48415Y11676
X48725Y11326
X48975Y11076
X49498Y11096
X49375Y11576
X48398Y12366
X51908Y10606
X50300Y10426
X49875Y10326
X52805Y8616
X51625Y7896
X48275Y7876
X47525Y7226
X46725Y7226
X46725Y6426
X47525Y6426
X45885Y5856
X45238Y6226
X46225Y5276
X46188Y4426
X46338Y3776
X47188Y3326
X44148Y2226
X43718Y2226
X43338Y2226
X42518Y2126
X41728Y2126
X41338Y2126
X40938Y2126
X40548Y2126
X41838Y3976
X42788Y4026
X37788Y5626
X36598Y8416
X31038Y9826
X30618Y5576
X20028Y2986
X20325Y11226
X19988Y11876
X19988Y12226
X19778Y13106
X20208Y13106
X19518Y13626
X21225Y13986
X21935Y14026
X21915Y14896
X21665Y15156
X21625Y15826
X20075Y16346
X19488Y17626
X17648Y17716
X17638Y17366
X13598Y18076
X11048Y18926
X10698Y18926
X10748Y19376
X10248Y20026
X11898Y19976
X12468Y20756
X12808Y20756
X13098Y20526
X11398Y21116
X13038Y22746
X18688Y25066
X19567Y24995
X20245Y24736
X18255Y26256
X20475Y26986
X21075Y26976
X20765Y27606
X19515Y28076
X18265Y27916
X16685Y27216
X14045Y27956
X15215Y28436
X16805Y29226
X15695Y30076
X15715Y31086
X16375Y31326
X17325Y31726
X17325Y32476
X16775Y33326
X17325Y33726
X16075Y33326
X15245Y33246
X14485Y33256
X13705Y33306
X15925Y34266
X17325Y34476
X20735Y35716
X21415Y35906
X20795Y36516
X23505Y35446
X25595Y36516
X25925Y36526
X26465Y36516
X26835Y36526
X28275Y37576
X26835Y38206
X25605Y38266
X23475Y38456
X23895Y39766
X28025Y39646
X24205Y36896
X28295Y35456
X27135Y34916
X27255Y34566
X27255Y33426
X26805Y33426
X25945Y33296
X25955Y32416
X23475Y31826
X22225Y32846
X20905Y33426
X20775Y32676
X22703Y30251
X23455Y27896
X23275Y25076
X27035Y25236
X30275Y26156
X32715Y27286
X34085Y27066
X35625Y27846
X36845Y27846
X36235Y28546
X38175Y28836
X38425Y29066
X38375Y29826
X41425Y30576
X41625Y29676
X42025Y29726
X43725Y28976
X44685Y28066
X45515Y28516
X48025Y28776
X49425Y28276
X48725Y26876
X50935Y26626
X52345Y26476
X52588Y27426
X51245Y29326
X50905Y29306
X53008Y29946
X53665Y30306
X58775Y31626
X59375Y31626
X60313Y32726
X59975Y33076
X58345Y33096
X56785Y33616
X55855Y33586
X52718Y34626
X52575Y34026
X50475Y33926
X49825Y33976
X48405Y32916
X43888Y33576
X45475Y35676
X46975Y36076
X46625Y36401
X48475Y35826
X50788Y37476
X53405Y36726
X52375Y35276
X57213Y36251
X59475Y36926
X60775Y37926
X61115Y35336
X60445Y35316
X60095Y35316
X60205Y34176
X59845Y34186
X59375Y27726
X58875Y27726
X58275Y27526
X59375Y27226
X60575Y27726
X61025Y27726
X61475Y27726
X62675Y27726
X62675Y27226
X62675Y26726
X62175Y26426
X61675Y26426
X61175Y26426
X60675Y26126
X59375Y26726
X57975Y26226
X57975Y25726
X57055Y25016
X57945Y24516
X58695Y24636
X59625Y24476
X62375Y24626
X59825Y22376
X58255Y21796
X57915Y21516
X58805Y21546
X59035Y21286
X59415Y21546
X57155Y22766
X55684Y22726
X55000Y22726
X53375Y22101
X53600Y21701
X51965Y22476
X51385Y23166
X51785Y23416
X51825Y24676
X55575Y24376
X50045Y22526
X49895Y21906
X49375Y20186
X49038Y19576
X48625Y19176
X47788Y19576
X47450Y18126
X46695Y18136
X46285Y17576
X45875Y18376
X43620Y19161
X42955Y19226
X44468Y16886
X45225Y17006
X49850Y18176
X52535Y17436
X57088Y17426
X56475Y19326
X56715Y19606
X56245Y19996
X58910Y19411
X65738Y21226
X56025Y15276
X38375Y24226
X39378Y24406
X39378Y25036
X39475Y25676
X38665Y25626
X36305Y25236
X36675Y24426
X34235Y23126
X33185Y22646
X31425Y22826
X31045Y22516
X30975Y22176
X30635Y22676
X30295Y22186
X30338Y21126
X30975Y21156
X31715Y21056
X32265Y20466
X30725Y20236
X31375Y19126
X31925Y19026
X32275Y19126
X34325Y19376
X34315Y21296
X33285Y21306
X27515Y22956
X22435Y22546
X20328Y20086
X25025Y18906
X23875Y18376
X23075Y17386
X23075Y17056
X23665Y14866
X20275Y14776
X18738Y11576
X12438Y10986
X12414Y16973
X9448Y17076
X30085Y27916
X32888Y28176
X30775Y30826
X30425Y30826
X28555Y31506
X28555Y31836
X28095Y32076
X37125Y32326
X43425Y31326
X43925Y31126
X41595Y28376
X17955Y38056
X11238Y38426
X13725Y31336
X13225Y28976
X54838Y1726
X55798Y1206
X53798Y1196
X52798Y1196
X51518Y1156
X50788Y1146
X58798Y1246
X59788Y1256
X61738Y1126
T02
X45508Y3906
X40618Y1196
X18028Y1716
X17028Y3106
T03
X13048Y2216
X11038Y2506
X21648Y4716
X38775Y14476
X36475Y15126
X38425Y16276
X38475Y16926
X20255Y24436
T04
X35425Y30826
T05
X35388Y30076
X38938Y31526
X33365Y25346
X28875Y23816
X22528Y21786
X25828Y20226
X28098Y19046
X28775Y19996
X20948Y16976
X17168Y19326
X21688Y13156
X24608Y10596
X20808Y9246
X41955Y8676
X45775Y8986
X63575Y22776
X49038Y37626
X20215Y30646
X8388Y29476
X8338Y28726
T06
X3438Y29076
X3488Y31476
X3438Y32726
X3438Y34476
X3438Y36126
X3438Y37476
X3438Y39126
X20288Y21476
X22538Y19876
X13588Y18726
X12938Y16926
X39738Y10226
X56788Y2966
X14038Y3016
T07
X7258Y16066
X14588Y21526
X10088Y22226
X9438Y22226
X21888Y19576
T08
X29118Y17816
X33338Y17826
X41063Y18376
X41063Y18976
X25808Y15346
X25338Y10176
X25198Y2886
X27198Y2886
X29198Y2886
X31198Y2886
X11388Y25576
X11388Y26176
T09
X13878Y38767
X14665Y38767
X15452Y38767
X16240Y38767
X17027Y38767
X17027Y39555
X16240Y39555
X15452Y39555
X14665Y39555
X13878Y39555
X43181Y18378
X66902Y6090
X67689Y6090
X67689Y5303
X66902Y5303
X66902Y4516
X67689Y4516
X67689Y3728
X66902Y3728
X66902Y2941
X67689Y2941
T10
X42640Y34327
X41640Y34327
X40640Y34327
X40140Y35327
X41140Y35327
X42140Y35327
X33585Y34327
X32585Y34327
X31585Y34327
X31085Y35327
X32085Y35327
X33085Y35327
T11
X23930Y32540
T12
X63034Y34684
X63821Y34684
X63821Y35668
X63034Y35668
T13
X3093Y27976
X2857Y39976
X8528Y2104
X20528Y2340
X22698Y2104
X34698Y2340
X50298Y2014
X62298Y2250
T14
X64181Y2314
X65181Y2314
X65181Y3314
X64181Y3314
X64181Y4314
X65181Y4314
X65181Y5314
X64181Y5314
X64181Y6314
X65181Y6314
X65181Y7314
X64181Y7314
X64181Y8314
X65181Y8314
X60038Y11626
X58752Y11599
X58752Y12599
X60138Y12626
X60038Y13626
X58752Y13599
X58752Y14599
X60138Y14626
X60038Y15626
X58752Y15599
X58752Y16599
X60138Y16626
X60038Y17626
X58752Y17599
X60138Y18626
X55280Y19953
X54280Y19953
X53280Y19953
X52280Y19953
X51280Y19953
X22051Y10599
X22051Y9599
X22051Y8599
X22051Y7599
X11042Y8211
X11042Y11211
X37295Y6169
X38295Y6169
X39295Y6169
X40295Y6169
X41295Y6169
X64181Y1314
X65181Y1314
X16307Y23695
X14307Y23695
X8630Y30742
X8630Y31742
X20288Y39076
X21288Y39076
X9874Y39434
X8874Y39434
X45902Y38812
X46902Y38812
X49280Y39024
X50280Y39024
X51280Y39024
X52280Y39024
X53280Y39024
X54280Y39024
X55280Y39024
X57410Y39084
X58410Y39084
X59410Y39084
X60410Y39084
X61410Y39084
X62410Y39084
T15
X2688Y3348
X2688Y4726
X5917Y4726
X5917Y3348
X5967Y7268
X5967Y8646
X5967Y10024
X2738Y10024
X2738Y8646
X2738Y7268
X2738Y11402
X2738Y12780
X2738Y14158
X5967Y14158
X5967Y12780
X5967Y11402
X5967Y15536
X5967Y16914
X5967Y18292
X2738Y18292
X2738Y16914
X2738Y15536
X2738Y19670
X2738Y21048
X2738Y22426
X5967Y22426
X5967Y21048
X5967Y19670
T16
X24688Y20156
X25588Y30126
T17
X26598Y19986
X27568Y20036
T18
X61725Y11583
X66725Y11583
T19
X17938Y11606
T20
X8965Y24184
X6800Y24184
X6800Y25838
X8965Y25838
T21
X65800Y27591
X65800Y22394
T22
X13378Y13136
X13378Y9516
T23
X64888Y32806
X64888Y37546
T24
X3926Y25011
T25
X12366Y36929
X36863Y34579
X67267Y39281
X36874Y11138
X67262Y8485
T26
X43390Y37827
X39390Y37827
X34335Y37827
X30335Y37827
M30
