G75*
%MOIN*%
%OFA0B0*%
%FSLAX25Y25*%
%IPPOS*%
%LPD*%
%AMOC8*
5,1,8,0,0,1.08239X$1,22.5*
%
%ADD10R,0.04600X0.03800*%
%ADD11R,0.03800X0.04600*%
%ADD12R,0.04737X0.01981*%
%ADD13R,0.01981X0.04737*%
%ADD14R,0.14186X0.14186*%
%ADD15R,0.02200X0.06800*%
%ADD16C,0.12050*%
%ADD17C,0.38202*%
%ADD18R,0.05918X0.09461*%
%ADD19R,0.04300X0.03900*%
%ADD20R,0.06312X0.02296*%
%ADD21C,0.03556*%
%ADD22R,0.03162X0.05524*%
%ADD23R,0.07100X0.07100*%
%ADD24OC8,0.07100*%
%ADD25C,0.04737*%
%ADD26R,0.05524X0.02296*%
%ADD27R,0.07099X0.01745*%
%ADD28R,0.01745X0.07099*%
%ADD29R,0.08674X0.05524*%
%ADD30R,0.06000X0.06000*%
%ADD31C,0.06000*%
%ADD32R,0.02769X0.04737*%
%ADD33R,0.06312X0.08674*%
%ADD34C,0.06400*%
%ADD35R,0.05524X0.03162*%
%ADD36R,0.04737X0.02769*%
%ADD37R,0.04737X0.03950*%
%ADD38R,0.03950X0.02454*%
%ADD39R,0.06800X0.03200*%
%ADD40C,0.11811*%
%ADD41R,0.07500X0.05300*%
%ADD42R,0.04100X0.04100*%
%ADD43R,0.04100X0.05500*%
%ADD44C,0.06300*%
%ADD45C,0.13600*%
%ADD46R,0.06300X0.05100*%
%ADD47R,0.03898X0.01732*%
%ADD48R,0.01732X0.03898*%
%ADD49R,0.03950X0.05524*%
%ADD50R,0.19300X0.15800*%
%ADD51R,0.16800X0.29800*%
%ADD52R,0.05131X0.04737*%
%ADD53R,0.04737X0.05131*%
%ADD54R,0.08280X0.11824*%
%ADD55R,0.03110X0.04843*%
%ADD56R,0.03110X0.02283*%
%ADD57R,0.01732X0.01260*%
%ADD58R,0.07887X0.07099*%
%ADD59R,0.07099X0.07887*%
%ADD60R,0.11824X0.08280*%
%ADD61R,0.04843X0.03110*%
%ADD62R,0.02283X0.03110*%
%ADD63R,0.01260X0.01732*%
%ADD64R,0.07099X0.11430*%
%ADD65R,0.12217X0.22060*%
%ADD66R,0.11430X0.07099*%
%ADD67R,0.06300X0.11000*%
%ADD68R,0.11000X0.06300*%
%ADD69R,0.11600X0.09300*%
%ADD70R,0.08000X0.08000*%
%ADD71C,0.08000*%
%ADD72R,0.03162X0.02454*%
%ADD73R,0.22060X0.28359*%
%ADD74R,0.05524X0.08674*%
%ADD75R,0.28359X0.22060*%
%ADD76R,0.09300X0.11600*%
%ADD77R,0.05100X0.06300*%
%ADD78R,0.05524X0.02178*%
%ADD79R,0.03900X0.04300*%
%ADD80R,0.05524X0.01981*%
%ADD81R,0.12611X0.22847*%
%ADD82R,0.08700X0.10200*%
%ADD83R,0.08674X0.09461*%
%ADD84R,0.09461X0.08674*%
%ADD85R,0.05524X0.05131*%
%ADD86R,0.28359X0.12611*%
%ADD87R,0.01981X0.07099*%
%ADD88R,0.25091X0.10249*%
%ADD89R,0.07335X0.17414*%
%ADD90R,0.13398X0.07099*%
%ADD91R,0.02965X0.05524*%
%ADD92R,0.04737X0.06312*%
%ADD93R,0.02060X0.06312*%
%ADD94OC8,0.06000*%
%ADD95R,0.05300X0.07500*%
%ADD96C,0.05800*%
%ADD97R,0.07200X0.07200*%
%ADD98OC8,0.13200*%
%ADD99C,0.13200*%
%ADD100R,0.10249X0.10249*%
%ADD101R,0.07500X0.14186*%
%ADD102C,0.06800*%
%ADD103C,0.25800*%
%ADD104R,0.03162X0.09461*%
%ADD105R,0.07887X0.11036*%
%ADD106R,0.04331X0.01575*%
%ADD107C,0.13855*%
%ADD108C,0.06422*%
%ADD109C,0.12611*%
%ADD110C,0.11430*%
%ADD111C,0.10800*%
%ADD112OC8,0.10800*%
%ADD113R,0.07099X0.14580*%
%ADD114R,0.06312X0.03300*%
%ADD115C,0.07296*%
%ADD116R,0.19304X0.05918*%
%ADD117R,0.24422X0.05131*%
%ADD118R,0.05918X0.19304*%
%ADD119R,0.05131X0.24422*%
%ADD120OC8,0.07800*%
%ADD121C,0.03900*%
%ADD122C,0.04400*%
%ADD123C,0.03975*%
%ADD124C,0.07887*%
%ADD125C,0.04800*%
%ADD126C,0.05550*%
%ADD127C,0.03778*%
%ADD128C,0.05400*%
%ADD129C,0.09800*%
%ADD130C,0.08300*%
D10*
X0202333Y0086317D03*
X0202333Y0092517D03*
X0224114Y0121864D03*
X0224114Y0128064D03*
X0224114Y0134031D03*
X0224114Y0140231D03*
X0130982Y0174657D03*
X0123982Y0174657D03*
X0117482Y0174657D03*
X0110982Y0174657D03*
X0100982Y0175157D03*
X0094482Y0175157D03*
X0094482Y0181357D03*
X0100982Y0181357D03*
X0110982Y0180857D03*
X0117482Y0180857D03*
X0123982Y0180857D03*
X0130982Y0180857D03*
X0195831Y0255811D03*
X0195831Y0262011D03*
X0203311Y0262011D03*
X0203311Y0255811D03*
X0210004Y0255811D03*
X0210004Y0262011D03*
X0368311Y0286484D03*
X0368311Y0292684D03*
X0386713Y0304331D03*
X0386713Y0310531D03*
X0375748Y0316980D03*
X0366874Y0316980D03*
X0366874Y0323180D03*
X0375748Y0323180D03*
X0420059Y0308420D03*
X0420059Y0302220D03*
X0518232Y0346433D03*
X0518232Y0352633D03*
X0517839Y0361000D03*
X0517839Y0367200D03*
X0508390Y0367200D03*
X0508390Y0361000D03*
X0559750Y0362837D03*
X0559750Y0356637D03*
X0566837Y0356637D03*
X0566837Y0362837D03*
X0603244Y0373248D03*
X0603244Y0379448D03*
X0593795Y0327086D03*
X0587496Y0327086D03*
X0587496Y0320886D03*
X0593795Y0320886D03*
X0543982Y0260557D03*
X0537082Y0260557D03*
X0537082Y0254357D03*
X0543982Y0254357D03*
X0481382Y0192357D03*
X0474382Y0192357D03*
X0474382Y0186157D03*
X0481382Y0186157D03*
X0479650Y0179405D03*
X0479650Y0173205D03*
X0504059Y0174976D03*
X0519807Y0172023D03*
X0519807Y0178223D03*
X0531382Y0175657D03*
X0531382Y0181857D03*
X0537882Y0181857D03*
X0537882Y0175657D03*
X0544382Y0175657D03*
X0544382Y0181857D03*
X0504059Y0181176D03*
X0463193Y0155822D03*
X0456106Y0155822D03*
X0456106Y0149622D03*
X0463193Y0149622D03*
X0505059Y0099090D03*
X0505059Y0092890D03*
X0511358Y0092890D03*
X0511358Y0099090D03*
X0517657Y0099090D03*
X0517657Y0092890D03*
X0474382Y0044357D03*
X0474382Y0038157D03*
X0467882Y0038157D03*
X0467882Y0044357D03*
X0332752Y0069657D03*
X0326252Y0069657D03*
X0326252Y0075857D03*
X0332752Y0075857D03*
X0321382Y0092157D03*
X0321382Y0098357D03*
X0314882Y0098357D03*
X0314882Y0092157D03*
X0268035Y0338441D03*
X0268035Y0344641D03*
D11*
X0405809Y0296793D03*
X0412009Y0296793D03*
X0427589Y0308470D03*
X0433789Y0308470D03*
X0443731Y0285242D03*
X0449931Y0285242D03*
X0541510Y0238903D03*
X0547710Y0238903D03*
X0555683Y0238903D03*
X0561883Y0238903D03*
X0598203Y0229454D03*
X0604403Y0229454D03*
X0528813Y0234179D03*
X0522613Y0234179D03*
X0519364Y0209375D03*
X0513164Y0209375D03*
X0486482Y0200257D03*
X0480282Y0200257D03*
X0560152Y0167757D03*
X0566352Y0167757D03*
X0566352Y0161757D03*
X0560152Y0161757D03*
X0558439Y0142446D03*
X0564639Y0142446D03*
X0561096Y0118037D03*
X0554896Y0118037D03*
X0480387Y0139297D03*
X0474187Y0139297D03*
X0468970Y0100714D03*
X0462770Y0100714D03*
X0456372Y0079848D03*
X0450172Y0079848D03*
X0488754Y0077879D03*
X0494954Y0077879D03*
X0494954Y0070793D03*
X0488754Y0070793D03*
X0474482Y0050757D03*
X0468282Y0050757D03*
X0373997Y0075320D03*
X0367797Y0075320D03*
X0360836Y0075320D03*
X0354636Y0075320D03*
X0321482Y0085757D03*
X0315282Y0085757D03*
X0312782Y0076257D03*
X0318982Y0076257D03*
X0318982Y0069757D03*
X0312782Y0069757D03*
X0288982Y0069757D03*
X0282782Y0069757D03*
X0282782Y0076257D03*
X0288982Y0076257D03*
X0242739Y0089713D03*
X0236539Y0089713D03*
X0236539Y0096040D03*
X0242739Y0096040D03*
X0244931Y0115478D03*
X0238731Y0115478D03*
X0212254Y0145005D03*
X0206054Y0145005D03*
X0205660Y0163509D03*
X0211860Y0163509D03*
X0184482Y0182757D03*
X0178282Y0182757D03*
X0131082Y0187257D03*
X0124882Y0187257D03*
X0124882Y0193757D03*
X0131082Y0193757D03*
X0131082Y0200257D03*
X0124882Y0200257D03*
X0113850Y0200301D03*
X0107650Y0200301D03*
X0096582Y0200757D03*
X0090382Y0200757D03*
X0107582Y0206557D03*
X0113782Y0206557D03*
X0096582Y0194257D03*
X0090382Y0194257D03*
X0090382Y0187757D03*
X0096582Y0187757D03*
X0229487Y0225727D03*
X0235687Y0225727D03*
X0188694Y0267966D03*
X0182494Y0267966D03*
X0182494Y0274659D03*
X0188694Y0274659D03*
X0188694Y0283714D03*
X0182494Y0283714D03*
X0223046Y0278990D03*
X0229246Y0278990D03*
X0230033Y0271509D03*
X0223833Y0271509D03*
X0459982Y0356257D03*
X0466182Y0356257D03*
X0473006Y0356226D03*
X0479206Y0356226D03*
X0466214Y0370399D03*
X0460014Y0370399D03*
X0519463Y0334572D03*
X0525663Y0334572D03*
X0543085Y0373155D03*
X0549285Y0373155D03*
X0581274Y0269218D03*
X0587474Y0269218D03*
X0300667Y0164466D03*
X0294467Y0164466D03*
X0331282Y0098257D03*
X0337482Y0098257D03*
D12*
X0460949Y0074927D03*
X0460949Y0072958D03*
X0460949Y0070990D03*
X0460949Y0069021D03*
X0460949Y0067053D03*
X0460949Y0065084D03*
X0460949Y0063116D03*
X0460949Y0061147D03*
X0481815Y0061147D03*
X0481815Y0063116D03*
X0481815Y0065084D03*
X0481815Y0067053D03*
X0481815Y0069021D03*
X0481815Y0070990D03*
X0481815Y0072958D03*
X0481815Y0074927D03*
D13*
X0478272Y0078470D03*
X0476303Y0078470D03*
X0474335Y0078470D03*
X0472366Y0078470D03*
X0470398Y0078470D03*
X0468429Y0078470D03*
X0466461Y0078470D03*
X0464492Y0078470D03*
X0464492Y0057604D03*
X0466461Y0057604D03*
X0468429Y0057604D03*
X0470398Y0057604D03*
X0472366Y0057604D03*
X0474335Y0057604D03*
X0476303Y0057604D03*
X0478272Y0057604D03*
D14*
X0471382Y0068037D03*
D15*
X0586144Y0237870D03*
X0588723Y0237870D03*
X0591262Y0237870D03*
X0593841Y0237870D03*
X0596380Y0237870D03*
X0598959Y0237870D03*
X0601498Y0237870D03*
X0601498Y0260845D03*
X0598959Y0260845D03*
X0596380Y0260845D03*
X0593841Y0260845D03*
X0591262Y0260845D03*
X0588723Y0260845D03*
X0586144Y0260845D03*
D16*
X0652371Y0275911D02*
X0663621Y0275911D01*
X0663621Y0223942D02*
X0652371Y0223942D01*
D17*
X0657996Y0249927D03*
D18*
X0619807Y0271580D03*
X0600909Y0271580D03*
D19*
X0618295Y0244178D03*
X0610295Y0240378D03*
X0618295Y0236578D03*
X0494673Y0181916D03*
X0486673Y0178116D03*
X0486673Y0185716D03*
D20*
X0510188Y0219748D03*
X0510188Y0222248D03*
X0510188Y0224748D03*
X0510188Y0227248D03*
X0528439Y0227248D03*
X0528439Y0224748D03*
X0528439Y0222248D03*
X0528439Y0219748D03*
D21*
X0439295Y0183785D03*
X0623857Y0252661D03*
X0612299Y0375167D03*
D22*
X0378988Y0309581D03*
X0375248Y0309581D03*
X0371508Y0309581D03*
X0371508Y0299295D03*
X0375238Y0299295D03*
X0378988Y0299295D03*
X0275205Y0164416D03*
X0267724Y0164416D03*
X0267724Y0154918D03*
X0271465Y0154918D03*
X0275205Y0154918D03*
X0339386Y0077270D03*
X0343126Y0077270D03*
X0346866Y0077270D03*
X0346866Y0066984D03*
X0343116Y0066984D03*
X0339386Y0066984D03*
D23*
X0412949Y0061694D03*
X0587524Y0115990D03*
X0512799Y0199533D03*
X0651809Y0013136D03*
X0574102Y0390840D03*
D24*
X0584102Y0390840D03*
X0594102Y0390840D03*
X0604102Y0390840D03*
X0614102Y0390840D03*
X0624102Y0390840D03*
X0552799Y0199533D03*
X0542799Y0199533D03*
X0532799Y0199533D03*
X0522799Y0199533D03*
X0587524Y0175990D03*
X0587524Y0165990D03*
X0587524Y0155990D03*
X0587524Y0145990D03*
X0587524Y0135990D03*
X0587524Y0125990D03*
X0641809Y0083136D03*
X0651809Y0083136D03*
X0651809Y0073136D03*
X0641809Y0073136D03*
X0641809Y0063136D03*
X0651809Y0063136D03*
X0651809Y0053136D03*
X0641809Y0053136D03*
X0641809Y0043136D03*
X0651809Y0043136D03*
X0651809Y0033136D03*
X0641809Y0033136D03*
X0641809Y0023136D03*
X0651809Y0023136D03*
X0641809Y0013136D03*
X0402949Y0061694D03*
X0392949Y0061694D03*
X0382949Y0061694D03*
X0372949Y0061694D03*
D25*
X0346982Y0023405D03*
X0226982Y0021042D03*
X0205282Y0023405D03*
X0085282Y0021042D03*
X0457146Y0107913D03*
X0469201Y0147639D03*
X0471776Y0177486D03*
X0510502Y0187257D03*
X0516252Y0187257D03*
X0524138Y0187328D03*
X0565882Y0174257D03*
X0613114Y0224336D03*
X0561882Y0084257D03*
X0622982Y0022505D03*
X0502982Y0020142D03*
X0030929Y0279757D03*
X0028567Y0399757D03*
D26*
X0510674Y0249343D03*
X0510674Y0246784D03*
X0510674Y0244225D03*
X0510674Y0241666D03*
X0527308Y0241666D03*
X0527308Y0244225D03*
X0527308Y0246784D03*
X0527308Y0249343D03*
D27*
X0543429Y0156620D03*
X0543429Y0155045D03*
X0543429Y0153470D03*
X0543429Y0151895D03*
X0543429Y0150320D03*
X0543429Y0148745D03*
X0543429Y0147171D03*
X0543429Y0145596D03*
X0543429Y0144021D03*
X0543429Y0142446D03*
X0543429Y0140871D03*
X0543429Y0139297D03*
X0543429Y0137722D03*
X0543429Y0136147D03*
X0543429Y0134572D03*
X0543429Y0132997D03*
X0543429Y0131423D03*
X0543429Y0129848D03*
X0543429Y0128273D03*
X0543429Y0126698D03*
X0543429Y0125123D03*
X0543429Y0123549D03*
X0543429Y0121974D03*
X0543429Y0120399D03*
X0543429Y0118824D03*
X0491461Y0118824D03*
X0491461Y0120399D03*
X0491461Y0121974D03*
X0491461Y0123549D03*
X0491461Y0125123D03*
X0491461Y0126698D03*
X0491461Y0128273D03*
X0491461Y0129848D03*
X0491461Y0131423D03*
X0491461Y0132997D03*
X0491461Y0134572D03*
X0491461Y0136147D03*
X0491461Y0137722D03*
X0491461Y0139297D03*
X0491461Y0140871D03*
X0491461Y0142446D03*
X0491461Y0144021D03*
X0491461Y0145596D03*
X0491461Y0147171D03*
X0491461Y0148745D03*
X0491461Y0150320D03*
X0491461Y0151895D03*
X0491461Y0153470D03*
X0491461Y0155045D03*
X0491461Y0156620D03*
D28*
X0498547Y0163706D03*
X0500122Y0163706D03*
X0501697Y0163706D03*
X0503272Y0163706D03*
X0504846Y0163706D03*
X0506421Y0163706D03*
X0507996Y0163706D03*
X0509571Y0163706D03*
X0511146Y0163706D03*
X0512720Y0163706D03*
X0514295Y0163706D03*
X0515870Y0163706D03*
X0517445Y0163706D03*
X0519020Y0163706D03*
X0520594Y0163706D03*
X0522169Y0163706D03*
X0523744Y0163706D03*
X0525319Y0163706D03*
X0526894Y0163706D03*
X0528469Y0163706D03*
X0530043Y0163706D03*
X0531618Y0163706D03*
X0533193Y0163706D03*
X0534768Y0163706D03*
X0536343Y0163706D03*
X0536343Y0111738D03*
X0534768Y0111738D03*
X0533193Y0111738D03*
X0531618Y0111738D03*
X0530043Y0111738D03*
X0528469Y0111738D03*
X0526894Y0111738D03*
X0525319Y0111738D03*
X0523744Y0111738D03*
X0522169Y0111738D03*
X0520594Y0111738D03*
X0519020Y0111738D03*
X0517445Y0111738D03*
X0515870Y0111738D03*
X0514295Y0111738D03*
X0512720Y0111738D03*
X0511146Y0111738D03*
X0509571Y0111738D03*
X0507996Y0111738D03*
X0506421Y0111738D03*
X0504846Y0111738D03*
X0503272Y0111738D03*
X0501697Y0111738D03*
X0500122Y0111738D03*
X0498547Y0111738D03*
D29*
X0464295Y0132997D03*
X0449335Y0132997D03*
X0449335Y0142446D03*
X0464295Y0142446D03*
X0191614Y0104423D03*
X0191614Y0086470D03*
D30*
X0669019Y0029408D03*
X0170272Y0387675D03*
D31*
X0162398Y0387675D03*
X0154524Y0387675D03*
X0146650Y0387675D03*
X0138776Y0387675D03*
X0138776Y0395549D03*
X0146650Y0395549D03*
X0154524Y0395549D03*
X0162398Y0395549D03*
X0170272Y0395549D03*
X0669019Y0060905D03*
X0676893Y0060905D03*
X0676893Y0053031D03*
X0669019Y0053031D03*
X0669019Y0045157D03*
X0676893Y0045157D03*
X0676893Y0037282D03*
X0676893Y0029408D03*
X0669019Y0037282D03*
D32*
X0363217Y0061647D03*
X0360067Y0061647D03*
X0356917Y0061647D03*
X0353768Y0061647D03*
X0353768Y0068734D03*
X0356917Y0068734D03*
X0360067Y0068734D03*
X0363217Y0068734D03*
X0337106Y0084214D03*
X0333957Y0084214D03*
X0330807Y0084214D03*
X0327657Y0084214D03*
X0327657Y0091301D03*
X0330807Y0091301D03*
X0333957Y0091301D03*
X0337106Y0091301D03*
D33*
X0627248Y0105832D03*
X0637248Y0105832D03*
X0647248Y0105832D03*
X0657248Y0105832D03*
X0657248Y0205832D03*
X0647248Y0205832D03*
X0637248Y0205832D03*
X0627248Y0205832D03*
D34*
X0617248Y0115832D03*
X0667248Y0115832D03*
D35*
X0292025Y0089997D03*
X0292025Y0086247D03*
X0292025Y0082517D03*
X0281739Y0082517D03*
X0281739Y0086257D03*
X0281739Y0089997D03*
X0499704Y0344218D03*
X0499704Y0347958D03*
X0499704Y0351698D03*
X0509990Y0351698D03*
X0509990Y0347948D03*
X0509990Y0344218D03*
D36*
X0305925Y0091982D03*
X0305925Y0088832D03*
X0305925Y0085682D03*
X0305925Y0082533D03*
X0305925Y0077982D03*
X0305925Y0074832D03*
X0305925Y0071682D03*
X0305925Y0068533D03*
X0298839Y0068533D03*
X0298839Y0071682D03*
X0298839Y0074832D03*
X0298839Y0077982D03*
X0298839Y0082533D03*
X0298839Y0085682D03*
X0298839Y0088832D03*
X0298839Y0091982D03*
D37*
X0452091Y0099139D03*
X0452091Y0103076D03*
D38*
X0456421Y0103667D03*
X0456421Y0101108D03*
X0456421Y0098549D03*
X0447760Y0098549D03*
X0447760Y0101108D03*
X0447760Y0103667D03*
D39*
X0253812Y0122151D03*
X0253812Y0127151D03*
X0253812Y0132151D03*
X0253812Y0137151D03*
X0232212Y0137151D03*
X0232212Y0132151D03*
X0232212Y0127151D03*
X0232212Y0122151D03*
X0236543Y0158820D03*
X0236543Y0163820D03*
X0236543Y0168820D03*
X0236543Y0173820D03*
X0258143Y0173820D03*
X0258143Y0168820D03*
X0258143Y0163820D03*
X0258143Y0158820D03*
X0541684Y0217230D03*
X0541684Y0222230D03*
X0541684Y0227230D03*
X0541684Y0232230D03*
X0563284Y0232230D03*
X0563284Y0227230D03*
X0563284Y0222230D03*
X0563284Y0217230D03*
X0465505Y0292702D03*
X0465505Y0297702D03*
X0465505Y0302702D03*
X0465505Y0307702D03*
X0443905Y0307702D03*
X0443905Y0302702D03*
X0443905Y0297702D03*
X0443905Y0292702D03*
D40*
X0024138Y0012131D03*
X0673744Y0012131D03*
X0650122Y0397958D03*
X0071382Y0397958D03*
D41*
X0396315Y0317337D03*
X0407839Y0317337D03*
X0407839Y0305737D03*
X0396315Y0305737D03*
X0193382Y0197057D03*
X0193382Y0185457D03*
X0224304Y0184538D03*
X0224304Y0172938D03*
D42*
X0427126Y0293940D03*
X0435326Y0293940D03*
X0435326Y0301840D03*
D43*
X0427126Y0301040D03*
D44*
X0426402Y0343273D03*
X0416402Y0343273D03*
X0406402Y0343273D03*
X0411402Y0353273D03*
X0421402Y0353273D03*
X0401402Y0353273D03*
X0335850Y0343273D03*
X0325850Y0343273D03*
X0315850Y0343273D03*
X0310850Y0353273D03*
X0320850Y0353273D03*
X0330850Y0353273D03*
D45*
X0343350Y0378273D03*
X0303350Y0378273D03*
X0393902Y0378273D03*
X0433902Y0378273D03*
D46*
X0558569Y0350051D03*
X0558569Y0342651D03*
X0567624Y0342651D03*
X0567624Y0350051D03*
X0362831Y0308138D03*
X0362831Y0300738D03*
X0223783Y0261823D03*
X0223783Y0254423D03*
X0126161Y0161083D03*
X0126161Y0153683D03*
X0151815Y0135260D03*
X0151815Y0127860D03*
X0253579Y0115184D03*
X0253579Y0107784D03*
D47*
X0348441Y0136100D03*
X0348441Y0138068D03*
X0348441Y0140037D03*
X0348441Y0142005D03*
X0360055Y0142005D03*
X0360055Y0140037D03*
X0360055Y0138068D03*
X0360055Y0136100D03*
X0327134Y0217415D03*
X0327134Y0219383D03*
X0327134Y0221352D03*
X0327134Y0223320D03*
X0315520Y0223320D03*
X0315520Y0221352D03*
X0315520Y0219383D03*
X0315520Y0217415D03*
D48*
X0318374Y0214560D03*
X0320343Y0214560D03*
X0322311Y0214560D03*
X0324280Y0214560D03*
X0324280Y0226175D03*
X0322311Y0226175D03*
X0320343Y0226175D03*
X0318374Y0226175D03*
X0351295Y0144860D03*
X0353264Y0144860D03*
X0355232Y0144860D03*
X0357201Y0144860D03*
X0357201Y0133245D03*
X0355232Y0133245D03*
X0353264Y0133245D03*
X0351295Y0133245D03*
D49*
X0354248Y0139053D03*
X0321327Y0220368D03*
D50*
X0419033Y0218954D03*
X0419033Y0259954D03*
D51*
X0483283Y0239454D03*
D52*
X0343177Y0225092D03*
X0336484Y0225092D03*
X0336287Y0234344D03*
X0336287Y0241037D03*
X0326642Y0234147D03*
X0319949Y0234147D03*
X0306760Y0233950D03*
X0306760Y0240643D03*
X0309681Y0215923D03*
X0302988Y0215923D03*
X0303083Y0206824D03*
X0309776Y0206824D03*
X0317252Y0204604D03*
X0317252Y0197911D03*
X0327429Y0197927D03*
X0334122Y0197927D03*
X0326295Y0175864D03*
X0326295Y0169171D03*
X0323933Y0160116D03*
X0332791Y0160312D03*
X0339484Y0160312D03*
X0350705Y0161297D03*
X0350705Y0154604D03*
X0358972Y0154604D03*
X0358972Y0161297D03*
X0346374Y0169171D03*
X0346374Y0175864D03*
X0338697Y0152438D03*
X0332004Y0152438D03*
X0323933Y0153423D03*
X0332004Y0145745D03*
X0338697Y0145745D03*
X0379445Y0137675D03*
X0379445Y0130982D03*
X0388894Y0130982D03*
X0388894Y0137675D03*
X0226370Y0158749D03*
X0226370Y0165442D03*
X0152193Y0296557D03*
X0145500Y0296557D03*
X0152390Y0304234D03*
X0152390Y0310927D03*
X0220421Y0341328D03*
X0227114Y0341328D03*
X0240476Y0339375D03*
X0240476Y0346068D03*
X0248350Y0346068D03*
X0248350Y0339375D03*
X0261343Y0337801D03*
X0261343Y0344494D03*
X0287720Y0369297D03*
X0287720Y0375990D03*
X0273477Y0392322D03*
X0266784Y0392322D03*
X0259577Y0392330D03*
X0252884Y0392330D03*
D53*
X0245988Y0392131D03*
X0245988Y0385438D03*
X0238902Y0385438D03*
X0238902Y0392131D03*
X0212445Y0371848D03*
X0203390Y0371848D03*
X0203390Y0365155D03*
X0212445Y0365155D03*
X0213594Y0340950D03*
X0213594Y0334257D03*
X0220421Y0333454D03*
X0227114Y0333454D03*
X0248941Y0328549D03*
X0255634Y0328549D03*
X0263508Y0328549D03*
X0270201Y0328549D03*
X0270201Y0319887D03*
X0263508Y0319887D03*
X0255634Y0319887D03*
X0248941Y0319887D03*
X0166941Y0317816D03*
X0160248Y0317816D03*
X0151996Y0319194D03*
X0144516Y0319194D03*
X0137035Y0319194D03*
X0129555Y0319194D03*
X0129555Y0325887D03*
X0137035Y0325887D03*
X0144516Y0325887D03*
X0151996Y0325887D03*
X0160248Y0326084D03*
X0166941Y0326084D03*
X0144516Y0310927D03*
X0144516Y0304234D03*
X0145500Y0289076D03*
X0152193Y0289076D03*
X0152193Y0279627D03*
X0145500Y0279627D03*
X0327429Y0206194D03*
X0334122Y0206194D03*
X0341799Y0205604D03*
X0341799Y0198911D03*
X0307217Y0197572D03*
X0307217Y0190879D03*
X0250157Y0183781D03*
X0243465Y0183781D03*
X0243921Y0149753D03*
X0250614Y0149753D03*
X0231004Y0149336D03*
X0224311Y0149336D03*
X0323933Y0145942D03*
X0323933Y0139249D03*
X0332004Y0138659D03*
X0338697Y0138659D03*
X0338303Y0130391D03*
X0331610Y0130391D03*
X0370783Y0130982D03*
X0370783Y0137675D03*
X0370783Y0144761D03*
X0379445Y0144761D03*
X0379445Y0151454D03*
X0370783Y0151454D03*
X0343177Y0217612D03*
X0336484Y0217612D03*
X0371543Y0244332D03*
X0378236Y0244332D03*
X0378236Y0252600D03*
X0371543Y0252600D03*
X0380205Y0261773D03*
X0386898Y0261773D03*
X0394772Y0261379D03*
X0401465Y0261379D03*
X0287720Y0384257D03*
X0280240Y0384257D03*
X0280240Y0390950D03*
X0287720Y0390950D03*
D54*
X0393787Y0247206D03*
D55*
X0388000Y0249765D03*
D56*
X0388000Y0245927D03*
X0388000Y0243368D03*
X0399575Y0243368D03*
X0399575Y0245927D03*
X0399575Y0248486D03*
X0399575Y0251045D03*
D57*
X0396189Y0253742D03*
X0391465Y0253742D03*
X0391386Y0240671D03*
X0396110Y0240671D03*
D58*
X0368441Y0261466D03*
X0356236Y0261466D03*
X0340638Y0264490D03*
X0356236Y0272490D03*
X0368441Y0272490D03*
X0340638Y0253466D03*
X0301366Y0139812D03*
X0290189Y0139919D03*
X0290189Y0128895D03*
X0301366Y0128789D03*
D59*
X0298644Y0192477D03*
X0287620Y0192477D03*
X0315815Y0264856D03*
X0326839Y0264856D03*
X0225736Y0322824D03*
X0214713Y0322824D03*
X0215500Y0351171D03*
X0226524Y0351171D03*
D60*
X0374327Y0169761D03*
D61*
X0371768Y0163974D03*
D62*
X0375606Y0163974D03*
X0378165Y0163974D03*
X0378165Y0175549D03*
X0375606Y0175549D03*
X0373047Y0175549D03*
X0370488Y0175549D03*
D63*
X0367791Y0172163D03*
X0367791Y0167438D03*
X0380862Y0167360D03*
X0380862Y0172084D03*
D64*
X0407791Y0171730D03*
X0418815Y0171730D03*
X0418815Y0154801D03*
X0407791Y0154801D03*
D65*
X0396965Y0206301D03*
X0358776Y0206301D03*
D66*
X0181382Y0203269D03*
X0181382Y0192245D03*
X0280862Y0332596D03*
X0280862Y0343620D03*
D67*
X0231658Y0289226D03*
X0219058Y0289226D03*
X0209611Y0289226D03*
X0197011Y0289226D03*
X0288350Y0269934D03*
X0300950Y0269934D03*
X0215123Y0235832D03*
X0202523Y0235832D03*
X0476106Y0367643D03*
X0488706Y0367643D03*
D68*
X0276185Y0223086D03*
X0276185Y0210486D03*
D69*
X0288732Y0211771D03*
X0288750Y0229171D03*
X0137543Y0162759D03*
X0137525Y0145359D03*
D70*
X0220512Y0075987D03*
X0086299Y0307423D03*
X0212882Y0390757D03*
X0088744Y0394340D03*
X0459020Y0388116D03*
D71*
X0469020Y0388116D03*
X0202882Y0390757D03*
X0098744Y0394340D03*
X0086299Y0317423D03*
X0220512Y0105987D03*
X0220512Y0095987D03*
X0220512Y0085987D03*
D72*
X0212106Y0151501D03*
X0212106Y0154060D03*
X0212106Y0156620D03*
X0204626Y0156620D03*
X0204626Y0154060D03*
X0204626Y0151501D03*
D73*
X0158480Y0155316D03*
D74*
X0149504Y0185238D03*
X0167457Y0185238D03*
D75*
X0161693Y0095446D03*
D76*
X0169171Y0116344D03*
X0151771Y0116362D03*
X0145983Y0201362D03*
X0163383Y0201344D03*
X0286731Y0251442D03*
X0304131Y0251424D03*
D77*
X0314956Y0255458D03*
X0322356Y0255458D03*
X0322356Y0246712D03*
X0314956Y0246712D03*
X0274706Y0191670D03*
X0267306Y0191670D03*
X0267306Y0183516D03*
X0274706Y0183516D03*
X0274665Y0175446D03*
X0267265Y0175446D03*
X0167031Y0127190D03*
X0159631Y0127190D03*
X0125885Y0145037D03*
X0118485Y0145037D03*
D78*
X0285783Y0149891D03*
X0285783Y0152450D03*
X0285783Y0155009D03*
X0285783Y0157568D03*
X0308815Y0157568D03*
X0308815Y0155009D03*
X0308815Y0152450D03*
X0308815Y0149891D03*
D79*
X0241263Y0255305D03*
X0233663Y0255305D03*
X0237463Y0263305D03*
D80*
X0216088Y0269768D03*
X0216088Y0272327D03*
X0216088Y0274886D03*
X0216088Y0277445D03*
X0199454Y0277445D03*
X0199454Y0274886D03*
X0199454Y0272327D03*
X0199454Y0269768D03*
D81*
X0246224Y0282927D03*
X0269846Y0282927D03*
D82*
X0287950Y0287257D03*
X0301350Y0287257D03*
D83*
X0269846Y0261667D03*
X0252130Y0261667D03*
X0382370Y0272009D03*
X0400087Y0272009D03*
X0491461Y0329454D03*
X0509177Y0329454D03*
D84*
X0392831Y0172911D03*
X0392831Y0155194D03*
D85*
X0490280Y0340084D03*
X0490280Y0353470D03*
X0498547Y0361344D03*
X0498547Y0374730D03*
D86*
X0466264Y0344808D03*
X0466264Y0318824D03*
D87*
X0279157Y0354533D03*
X0276598Y0354533D03*
X0274039Y0354533D03*
X0271480Y0354533D03*
X0268921Y0354533D03*
X0266362Y0354533D03*
X0263803Y0354533D03*
X0261244Y0354533D03*
X0258685Y0354533D03*
X0256126Y0354533D03*
X0253567Y0354533D03*
X0251008Y0354533D03*
X0248449Y0354533D03*
X0245890Y0354533D03*
X0245890Y0376580D03*
X0248449Y0376580D03*
X0251008Y0376580D03*
X0253567Y0376580D03*
X0256126Y0376580D03*
X0258685Y0376580D03*
X0261244Y0376580D03*
X0263803Y0376580D03*
X0266362Y0376580D03*
X0268921Y0376580D03*
X0271480Y0376580D03*
X0274039Y0376580D03*
X0276598Y0376580D03*
X0279157Y0376580D03*
D88*
X0262524Y0365557D03*
D89*
X0236728Y0369013D03*
X0220035Y0369013D03*
X0195138Y0369013D03*
X0178445Y0369013D03*
D90*
X0182319Y0344478D03*
X0202004Y0344478D03*
X0202004Y0314557D03*
X0182319Y0314557D03*
D91*
X0167941Y0307336D03*
X0164201Y0307336D03*
X0160461Y0307336D03*
X0160461Y0297100D03*
X0164201Y0297100D03*
X0167941Y0297100D03*
D92*
X0163114Y0287112D03*
X0159374Y0278450D03*
X0166854Y0278450D03*
D93*
X0577949Y0335994D03*
X0580508Y0335994D03*
X0583067Y0335994D03*
X0585626Y0335994D03*
X0588185Y0335994D03*
X0590744Y0335994D03*
X0593303Y0335994D03*
X0595862Y0335994D03*
X0598421Y0335994D03*
X0600980Y0335994D03*
X0603539Y0335994D03*
X0606098Y0335994D03*
X0608657Y0335994D03*
X0611217Y0335994D03*
X0611217Y0363159D03*
X0608657Y0363159D03*
X0606098Y0363159D03*
X0603539Y0363159D03*
X0600980Y0363159D03*
X0598421Y0363159D03*
X0595862Y0363159D03*
X0593303Y0363159D03*
X0590744Y0363159D03*
X0588185Y0363159D03*
X0585626Y0363159D03*
X0583067Y0363159D03*
X0580508Y0363159D03*
X0577949Y0363159D03*
D94*
X0431815Y0183785D03*
D95*
X0297127Y0308234D03*
X0285527Y0308234D03*
D96*
X0317941Y0287352D03*
X0328965Y0287352D03*
X0237034Y0303508D03*
X0202882Y0225757D03*
X0203282Y0206157D03*
X0107685Y0139726D03*
X0410634Y0195564D03*
D97*
X0239295Y0325399D03*
D98*
X0110420Y0082108D03*
D99*
X0110420Y0112108D03*
D100*
X0099150Y0156317D03*
X0081827Y0156317D03*
D101*
X0080199Y0140145D03*
X0097799Y0140145D03*
D102*
X0492799Y0390242D03*
X0502799Y0390242D03*
X0512799Y0390242D03*
X0522799Y0390242D03*
X0532799Y0390242D03*
X0542799Y0390242D03*
X0552799Y0390242D03*
D103*
X0672667Y0392812D03*
X0368626Y0345793D03*
X0123657Y0369291D03*
X0368736Y0111383D03*
X0672622Y0084850D03*
D104*
X0440898Y0030415D03*
X0436961Y0030415D03*
X0433024Y0030415D03*
X0429087Y0030415D03*
X0425150Y0030415D03*
X0421213Y0030415D03*
X0417276Y0030415D03*
X0413339Y0030415D03*
X0409402Y0030415D03*
X0405465Y0030415D03*
D105*
X0395228Y0020966D03*
X0451134Y0020966D03*
D106*
X0118628Y0185934D03*
X0118628Y0187903D03*
X0118628Y0189871D03*
X0118628Y0191840D03*
X0118628Y0193808D03*
X0102486Y0193808D03*
X0102486Y0191840D03*
X0102486Y0189871D03*
X0102486Y0187903D03*
X0102486Y0185934D03*
D107*
X0648882Y0328057D03*
X0648882Y0375458D03*
D108*
X0638213Y0356679D03*
X0630339Y0356679D03*
X0630339Y0346836D03*
X0638213Y0346836D03*
D109*
X0133782Y0131357D03*
X0133782Y0095157D03*
X0039260Y0250108D03*
D110*
X0068000Y0258375D03*
X0089654Y0258375D03*
X0089654Y0241840D03*
X0068000Y0241840D03*
D111*
X0163071Y0236952D03*
D112*
X0143071Y0236952D03*
D113*
X0109087Y0243320D03*
X0109087Y0222060D03*
D114*
X0214781Y0219005D03*
X0214781Y0214005D03*
X0214781Y0209005D03*
X0214781Y0204005D03*
X0235648Y0204005D03*
X0235648Y0209005D03*
X0235648Y0214005D03*
X0235648Y0219005D03*
D115*
X0059665Y0224257D03*
X0059665Y0210478D03*
X0059665Y0196698D03*
X0027382Y0196698D03*
X0027382Y0210478D03*
X0027382Y0224257D03*
X0027382Y0182919D03*
X0027382Y0169139D03*
X0027382Y0155360D03*
X0059665Y0155360D03*
X0059665Y0169139D03*
X0059665Y0182919D03*
X0059665Y0141580D03*
X0059665Y0127801D03*
X0059665Y0114021D03*
X0027382Y0114021D03*
X0027382Y0127801D03*
X0027382Y0141580D03*
X0027382Y0100242D03*
X0027382Y0086462D03*
X0027382Y0072682D03*
X0059665Y0072682D03*
X0059665Y0086462D03*
X0059665Y0100242D03*
X0059165Y0047257D03*
X0059165Y0033478D03*
X0026882Y0033478D03*
X0026882Y0047257D03*
D116*
X0051205Y0284757D03*
X0051205Y0294757D03*
X0051205Y0304757D03*
X0051205Y0314757D03*
X0051205Y0324757D03*
X0051205Y0334757D03*
X0051205Y0344757D03*
X0051205Y0354757D03*
X0051205Y0364757D03*
X0051205Y0374757D03*
X0051205Y0384757D03*
X0051205Y0394757D03*
D117*
X0030929Y0404757D03*
X0030929Y0274757D03*
D118*
X0090282Y0043680D03*
X0100282Y0043680D03*
X0110282Y0043680D03*
X0120282Y0043680D03*
X0130282Y0043680D03*
X0140282Y0043680D03*
X0150282Y0043680D03*
X0160282Y0043680D03*
X0170282Y0043680D03*
X0180282Y0043680D03*
X0190282Y0043680D03*
X0200282Y0043680D03*
X0231982Y0043680D03*
X0241982Y0043680D03*
X0251982Y0043680D03*
X0261982Y0043680D03*
X0271982Y0043680D03*
X0281982Y0043680D03*
X0291982Y0043680D03*
X0301982Y0043680D03*
X0311982Y0043680D03*
X0321982Y0043680D03*
X0331982Y0043680D03*
X0341982Y0043680D03*
X0507982Y0042780D03*
X0517982Y0042780D03*
X0527982Y0042780D03*
X0537982Y0042780D03*
X0547982Y0042780D03*
X0557982Y0042780D03*
X0567982Y0042780D03*
X0577982Y0042780D03*
X0587982Y0042780D03*
X0597982Y0042780D03*
X0607982Y0042780D03*
X0617982Y0042780D03*
D119*
X0627982Y0022505D03*
X0497982Y0022505D03*
X0351982Y0023405D03*
X0221982Y0023405D03*
X0210282Y0023405D03*
X0080282Y0023405D03*
D120*
X0600382Y0116257D03*
X0601382Y0126257D03*
X0600382Y0136257D03*
X0601382Y0146257D03*
X0600382Y0156257D03*
X0601382Y0166257D03*
X0600382Y0176257D03*
X0601382Y0186257D03*
D121*
X0384752Y0169257D03*
X0384252Y0162757D03*
X0364752Y0151257D03*
X0387752Y0144757D03*
X0216482Y0047157D03*
X0130482Y0022157D03*
X0110382Y0025057D03*
X0202552Y0244357D03*
D122*
X0225282Y0217857D03*
X0258282Y0202257D03*
X0280982Y0190457D03*
X0287752Y0199957D03*
X0209482Y0169757D03*
X0171682Y0193257D03*
X0288752Y0238157D03*
X0333652Y0253457D03*
X0353882Y0300757D03*
X0389382Y0315257D03*
X0490382Y0376257D03*
X0202152Y0306457D03*
X0083882Y0294757D03*
X0083382Y0287257D03*
X0216882Y0131557D03*
X0246082Y0105957D03*
X0208082Y0092457D03*
X0419552Y0086757D03*
X0457752Y0089857D03*
X0635752Y0227757D03*
D123*
X0354252Y0308257D03*
D124*
X0255882Y0301257D03*
X0246882Y0201557D03*
D125*
X0225382Y0198757D03*
X0202882Y0214757D03*
X0135882Y0187257D03*
X0129382Y0169257D03*
X0397382Y0102257D03*
X0567882Y0029657D03*
X0140382Y0030157D03*
X0034382Y0290757D03*
X0034882Y0314757D03*
X0034382Y0327257D03*
X0034382Y0344757D03*
X0034382Y0361257D03*
X0034382Y0374757D03*
X0034382Y0391257D03*
D126*
X0113882Y0261757D03*
X0113882Y0255757D03*
X0291182Y0178157D03*
X0333382Y0178257D03*
X0410634Y0183757D03*
X0410634Y0189757D03*
X0258082Y0153457D03*
X0253382Y0101757D03*
X0251982Y0028857D03*
X0271982Y0028857D03*
X0291982Y0028857D03*
X0311982Y0028857D03*
D127*
X0406182Y0011957D03*
X0455082Y0039057D03*
X0180282Y0017157D03*
X0170282Y0031057D03*
D128*
X0072582Y0160657D03*
X0145882Y0215257D03*
X0100882Y0222257D03*
X0094382Y0222257D03*
X0218882Y0195757D03*
D129*
X0179382Y0116057D03*
D130*
X0265982Y0199857D03*
X0275682Y0200357D03*
M02*
