G75*
%MOIN*%
%OFA0B0*%
%FSLAX25Y25*%
%IPPOS*%
%LPD*%
%AMOC8*
5,1,8,0,0,1.08239X$1,22.5*
%
%ADD10C,0.11250*%
%ADD11C,0.06000*%
%ADD12C,0.05200*%
%ADD13C,0.05500*%
%ADD14C,0.05600*%
%ADD15C,0.16598*%
%ADD16C,0.13055*%
%ADD17C,0.05622*%
%ADD18C,0.10630*%
%ADD19C,0.06496*%
%ADD20C,0.02781*%
%ADD21C,0.00600*%
%ADD22C,0.00800*%
%ADD23C,0.03100*%
%ADD24C,0.03600*%
%ADD25C,0.03175*%
%ADD26C,0.07087*%
%ADD27C,0.04000*%
%ADD28C,0.04750*%
%ADD29C,0.02978*%
%ADD30C,0.04600*%
%ADD31C,0.05906*%
%ADD32C,0.09000*%
%ADD33C,0.06000*%
%ADD34C,0.07087*%
%ADD35C,0.01000*%
%ADD36C,0.01400*%
%ADD37C,0.11811*%
%ADD38C,0.02400*%
%ADD39C,0.03000*%
%ADD40C,0.02000*%
%ADD41C,0.01200*%
%ADD42C,0.01600*%
%ADD43C,0.05000*%
%ADD44C,0.03150*%
%ADD45C,0.04724*%
%ADD46C,0.07500*%
%ADD47C,0.07874*%
%ADD48C,0.04000*%
D10*
X0657996Y0223942D03*
X0657996Y0275911D03*
D11*
X0552799Y0199533D03*
X0542799Y0199533D03*
X0532799Y0199533D03*
X0522799Y0199533D03*
X0512799Y0199533D03*
X0587524Y0175990D03*
X0600382Y0176257D03*
X0601382Y0186257D03*
X0601382Y0166257D03*
X0587524Y0165990D03*
X0587524Y0155990D03*
X0600382Y0156257D03*
X0601382Y0146257D03*
X0587524Y0145990D03*
X0587524Y0135990D03*
X0600382Y0136257D03*
X0601382Y0126257D03*
X0587524Y0125990D03*
X0587524Y0115990D03*
X0600382Y0116257D03*
X0641809Y0083136D03*
X0651809Y0083136D03*
X0651809Y0073136D03*
X0641809Y0073136D03*
X0641809Y0063136D03*
X0651809Y0063136D03*
X0651809Y0053136D03*
X0641809Y0053136D03*
X0641809Y0043136D03*
X0651809Y0043136D03*
X0651809Y0033136D03*
X0641809Y0033136D03*
X0641809Y0023136D03*
X0651809Y0023136D03*
X0651809Y0013136D03*
X0641809Y0013136D03*
X0412949Y0061694D03*
X0402949Y0061694D03*
X0392949Y0061694D03*
X0382949Y0061694D03*
X0372949Y0061694D03*
X0220512Y0075987D03*
X0220512Y0085987D03*
X0220512Y0095987D03*
X0220512Y0105987D03*
X0110420Y0112108D03*
X0110420Y0082108D03*
X0143071Y0236952D03*
X0163071Y0236952D03*
X0086299Y0307423D03*
X0086299Y0317423D03*
X0202882Y0390757D03*
X0212882Y0390757D03*
X0098744Y0394340D03*
X0088744Y0394340D03*
X0459020Y0388116D03*
X0469020Y0388116D03*
X0492799Y0390242D03*
X0502799Y0390242D03*
X0512799Y0390242D03*
X0522799Y0390242D03*
X0532799Y0390242D03*
X0542799Y0390242D03*
X0552799Y0390242D03*
X0574102Y0390840D03*
X0584102Y0390840D03*
X0594102Y0390840D03*
X0604102Y0390840D03*
X0614102Y0390840D03*
X0624102Y0390840D03*
D12*
X0170272Y0387675D03*
X0162398Y0387675D03*
X0154524Y0387675D03*
X0146650Y0387675D03*
X0138776Y0387675D03*
X0138776Y0395549D03*
X0146650Y0395549D03*
X0154524Y0395549D03*
X0162398Y0395549D03*
X0170272Y0395549D03*
X0431815Y0183785D03*
X0669019Y0060905D03*
X0676893Y0060905D03*
X0676893Y0053031D03*
X0669019Y0053031D03*
X0669019Y0045157D03*
X0676893Y0045157D03*
X0676893Y0037282D03*
X0676893Y0029408D03*
X0669019Y0029408D03*
X0669019Y0037282D03*
D13*
X0426402Y0343273D03*
X0416402Y0343273D03*
X0406402Y0343273D03*
X0411402Y0353273D03*
X0421402Y0353273D03*
X0401402Y0353273D03*
X0335850Y0343273D03*
X0325850Y0343273D03*
X0315850Y0343273D03*
X0310850Y0353273D03*
X0320850Y0353273D03*
X0330850Y0353273D03*
D14*
X0239295Y0325399D03*
D15*
X0123657Y0369291D03*
X0368626Y0345793D03*
X0672667Y0392812D03*
X0368736Y0111383D03*
X0672622Y0084850D03*
D16*
X0648882Y0328057D03*
X0648882Y0375458D03*
D17*
X0638213Y0356679D03*
X0630339Y0356679D03*
X0630339Y0346836D03*
X0638213Y0346836D03*
D18*
X0089654Y0258375D03*
X0068000Y0258375D03*
X0068000Y0241840D03*
X0089654Y0241840D03*
D19*
X0059665Y0224257D03*
X0059665Y0210478D03*
X0059665Y0196698D03*
X0027382Y0196698D03*
X0027382Y0210478D03*
X0027382Y0224257D03*
X0027382Y0182919D03*
X0027382Y0169139D03*
X0027382Y0155360D03*
X0059665Y0155360D03*
X0059665Y0169139D03*
X0059665Y0182919D03*
X0059665Y0141580D03*
X0059665Y0127801D03*
X0059665Y0114021D03*
X0027382Y0114021D03*
X0027382Y0127801D03*
X0027382Y0141580D03*
X0027382Y0100242D03*
X0027382Y0086462D03*
X0027382Y0072682D03*
X0059665Y0072682D03*
X0059665Y0086462D03*
X0059665Y0100242D03*
X0059165Y0047257D03*
X0059165Y0033478D03*
X0026882Y0033478D03*
X0026882Y0047257D03*
D20*
X0124382Y0109857D03*
X0187382Y0115757D03*
X0199882Y0118757D03*
X0199882Y0122257D03*
X0197782Y0131057D03*
X0202082Y0131057D03*
X0195182Y0136257D03*
X0212252Y0139857D03*
X0219352Y0140257D03*
X0219152Y0148957D03*
X0216652Y0151557D03*
X0216252Y0158257D03*
X0200752Y0163457D03*
X0194882Y0176257D03*
X0176482Y0177157D03*
X0176382Y0173657D03*
X0135982Y0180757D03*
X0110482Y0189257D03*
X0106982Y0189257D03*
X0107482Y0193757D03*
X0102482Y0200257D03*
X0118982Y0199757D03*
X0124682Y0207557D03*
X0128082Y0207557D03*
X0130982Y0205257D03*
X0113982Y0211157D03*
X0130382Y0227457D03*
X0186882Y0250657D03*
X0195673Y0249952D03*
X0202452Y0247357D03*
X0182552Y0262557D03*
X0204752Y0269857D03*
X0210752Y0269757D03*
X0207652Y0276057D03*
X0195152Y0280757D03*
X0182652Y0279157D03*
X0166852Y0272157D03*
X0140452Y0279557D03*
X0152152Y0284357D03*
X0168052Y0292257D03*
X0156952Y0300757D03*
X0157152Y0310857D03*
X0163752Y0313257D03*
X0173252Y0317257D03*
X0173252Y0324757D03*
X0167752Y0333257D03*
X0173252Y0337257D03*
X0160752Y0333257D03*
X0152452Y0332457D03*
X0144852Y0332557D03*
X0137052Y0333057D03*
X0159252Y0342657D03*
X0173252Y0344757D03*
X0207352Y0357157D03*
X0214152Y0359057D03*
X0207952Y0365157D03*
X0235052Y0354457D03*
X0255952Y0365157D03*
X0259252Y0365257D03*
X0264652Y0365157D03*
X0268352Y0365257D03*
X0282752Y0375757D03*
X0268352Y0382057D03*
X0256052Y0382657D03*
X0234752Y0384557D03*
X0238952Y0397657D03*
X0280252Y0396457D03*
X0242052Y0368957D03*
X0282952Y0354557D03*
X0271352Y0349157D03*
X0272552Y0345657D03*
X0272552Y0334257D03*
X0268052Y0334257D03*
X0259452Y0332957D03*
X0259552Y0324157D03*
X0234752Y0318257D03*
X0222252Y0328457D03*
X0209052Y0334257D03*
X0207752Y0326757D03*
X0227034Y0302508D03*
X0234552Y0278957D03*
X0232752Y0250757D03*
X0270352Y0252357D03*
X0302752Y0261557D03*
X0327152Y0272857D03*
X0340852Y0270657D03*
X0356252Y0278457D03*
X0368452Y0278457D03*
X0362352Y0285457D03*
X0381752Y0288357D03*
X0384252Y0290657D03*
X0383752Y0298257D03*
X0414252Y0305757D03*
X0416252Y0296757D03*
X0420252Y0297257D03*
X0437252Y0289757D03*
X0446852Y0280657D03*
X0455152Y0285157D03*
X0480252Y0287757D03*
X0494252Y0282757D03*
X0487252Y0268757D03*
X0509352Y0266257D03*
X0523452Y0264757D03*
X0525882Y0274257D03*
X0512452Y0293257D03*
X0509052Y0293057D03*
X0530082Y0299457D03*
X0536652Y0303057D03*
X0587752Y0316257D03*
X0593752Y0316257D03*
X0603132Y0327257D03*
X0599752Y0330757D03*
X0583452Y0330957D03*
X0567852Y0336157D03*
X0558552Y0335857D03*
X0527182Y0346257D03*
X0525752Y0340257D03*
X0504752Y0339257D03*
X0498252Y0339757D03*
X0484052Y0329157D03*
X0438882Y0335757D03*
X0454752Y0356757D03*
X0469752Y0360757D03*
X0466252Y0364007D03*
X0484752Y0358257D03*
X0507882Y0374757D03*
X0534052Y0367257D03*
X0523752Y0352757D03*
X0572132Y0362507D03*
X0594752Y0369257D03*
X0607752Y0379257D03*
X0611152Y0353357D03*
X0604452Y0353157D03*
X0600952Y0353157D03*
X0602052Y0341757D03*
X0598452Y0341857D03*
X0593752Y0277257D03*
X0593752Y0272257D03*
X0588752Y0277257D03*
X0582752Y0275257D03*
X0593752Y0267257D03*
X0606752Y0261257D03*
X0611752Y0264257D03*
X0616752Y0264257D03*
X0621752Y0264257D03*
X0626752Y0267257D03*
X0626752Y0272257D03*
X0626752Y0277257D03*
X0614752Y0277257D03*
X0610252Y0277257D03*
X0605752Y0277257D03*
X0579752Y0262257D03*
X0579752Y0257257D03*
X0570552Y0250157D03*
X0579452Y0245157D03*
X0586952Y0246357D03*
X0596252Y0244757D03*
X0575382Y0231257D03*
X0571552Y0227657D03*
X0556843Y0227257D03*
X0550002Y0227257D03*
X0533752Y0221007D03*
X0536002Y0217007D03*
X0519652Y0224757D03*
X0513852Y0231657D03*
X0517852Y0234157D03*
X0518252Y0246757D03*
X0546882Y0248757D03*
X0555752Y0243757D03*
X0557382Y0248757D03*
X0598252Y0223757D03*
X0582552Y0217957D03*
X0579152Y0215157D03*
X0588052Y0215457D03*
X0590352Y0212857D03*
X0594152Y0215457D03*
X0562452Y0199957D03*
X0567152Y0196057D03*
X0564752Y0193257D03*
X0551882Y0184257D03*
X0556352Y0180857D03*
X0551152Y0177257D03*
X0549952Y0170157D03*
X0547252Y0168057D03*
X0539382Y0165257D03*
X0531852Y0158157D03*
X0531752Y0154757D03*
X0534252Y0152457D03*
X0538152Y0149857D03*
X0535752Y0143757D03*
X0538152Y0140757D03*
X0535752Y0135257D03*
X0530752Y0137657D03*
X0526252Y0129757D03*
X0530252Y0129257D03*
X0531752Y0123757D03*
X0532382Y0119757D03*
X0528052Y0118557D03*
X0516452Y0121457D03*
X0522252Y0126257D03*
X0516982Y0131957D03*
X0513582Y0131857D03*
X0516882Y0135357D03*
X0496952Y0134557D03*
X0480252Y0143757D03*
X0474252Y0143757D03*
X0484882Y0150757D03*
X0478652Y0157957D03*
X0468752Y0165757D03*
X0473252Y0170257D03*
X0479752Y0168357D03*
X0491882Y0169257D03*
X0498952Y0174757D03*
X0507352Y0171157D03*
X0515252Y0173757D03*
X0507752Y0177757D03*
X0514882Y0182257D03*
X0520152Y0191157D03*
X0533752Y0187757D03*
X0539252Y0187257D03*
X0543882Y0188257D03*
X0525352Y0174357D03*
X0498502Y0181757D03*
X0486252Y0191757D03*
X0490382Y0195757D03*
X0477882Y0195757D03*
X0493752Y0201857D03*
X0498952Y0219057D03*
X0500452Y0225257D03*
X0429552Y0192257D03*
X0436202Y0191607D03*
X0458752Y0183757D03*
X0466952Y0181357D03*
X0462852Y0175757D03*
X0474502Y0181257D03*
X0452252Y0170057D03*
X0444682Y0168857D03*
X0459552Y0158857D03*
X0442352Y0154257D03*
X0435652Y0157157D03*
X0433052Y0151357D03*
X0434452Y0147757D03*
X0442682Y0137957D03*
X0435352Y0132857D03*
X0433152Y0130057D03*
X0421582Y0124857D03*
X0419082Y0127157D03*
X0422682Y0121357D03*
X0407752Y0133257D03*
X0403352Y0135657D03*
X0406152Y0138157D03*
X0397452Y0135657D03*
X0403252Y0130757D03*
X0388152Y0126257D03*
X0389752Y0121757D03*
X0379352Y0126257D03*
X0364252Y0131357D03*
X0364452Y0136157D03*
X0354252Y0138957D03*
X0344052Y0138957D03*
X0344052Y0142357D03*
X0350352Y0148657D03*
X0354752Y0149957D03*
X0344052Y0151957D03*
X0344152Y0160057D03*
X0332791Y0165257D03*
X0318352Y0160257D03*
X0308052Y0164457D03*
X0295752Y0155257D03*
X0288452Y0164457D03*
X0263952Y0151057D03*
X0282052Y0146157D03*
X0295652Y0145557D03*
X0318552Y0145957D03*
X0318352Y0152957D03*
X0352052Y0168857D03*
X0352752Y0174257D03*
X0361752Y0176257D03*
X0370752Y0169757D03*
X0377752Y0169757D03*
X0375752Y0159757D03*
X0359252Y0166757D03*
X0384252Y0146257D03*
X0342652Y0130457D03*
X0349352Y0128957D03*
X0353252Y0128857D03*
X0347482Y0114457D03*
X0348882Y0110757D03*
X0332982Y0106257D03*
X0329582Y0106257D03*
X0310382Y0098257D03*
X0302382Y0095757D03*
X0296382Y0098757D03*
X0289882Y0096257D03*
X0284382Y0096757D03*
X0276882Y0089757D03*
X0276882Y0086257D03*
X0293882Y0075757D03*
X0312882Y0080757D03*
X0318882Y0080757D03*
X0324882Y0080757D03*
X0332882Y0079757D03*
X0340882Y0085757D03*
X0345382Y0087257D03*
X0353882Y0080257D03*
X0350882Y0077757D03*
X0364282Y0077657D03*
X0365982Y0084157D03*
X0355752Y0098257D03*
X0340382Y0092257D03*
X0311882Y0088757D03*
X0369482Y0070857D03*
X0374082Y0070857D03*
X0377882Y0056257D03*
X0350882Y0056757D03*
X0347382Y0062257D03*
X0343382Y0062257D03*
X0335882Y0062257D03*
X0322882Y0064257D03*
X0318882Y0064257D03*
X0304882Y0064257D03*
X0298882Y0064257D03*
X0306182Y0055757D03*
X0261982Y0056057D03*
X0200282Y0029857D03*
X0188882Y0073757D03*
X0184882Y0074257D03*
X0203252Y0112257D03*
X0202752Y0147757D03*
X0236652Y0148657D03*
X0230752Y0170557D03*
X0230752Y0173857D03*
X0238752Y0183757D03*
X0250252Y0189057D03*
X0203282Y0200857D03*
X0224352Y0225457D03*
X0275152Y0229557D03*
X0302952Y0221857D03*
X0306352Y0226757D03*
X0310452Y0225157D03*
X0309752Y0221757D03*
X0314252Y0228257D03*
X0331852Y0226457D03*
X0342352Y0231257D03*
X0366752Y0244257D03*
X0363052Y0252357D03*
X0386652Y0256257D03*
X0394752Y0256757D03*
X0393782Y0250357D03*
X0393782Y0244057D03*
X0383752Y0242257D03*
X0332852Y0213057D03*
X0343152Y0212957D03*
X0322652Y0204657D03*
X0317152Y0210557D03*
X0309752Y0211557D03*
X0303382Y0211257D03*
X0307252Y0202357D03*
X0313752Y0191257D03*
X0319252Y0190257D03*
X0322752Y0191257D03*
X0343252Y0193757D03*
X0325752Y0130457D03*
X0315252Y0124257D03*
X0304882Y0118257D03*
X0300882Y0118257D03*
X0404082Y0115157D03*
X0428652Y0101257D03*
X0435682Y0105457D03*
X0442752Y0103757D03*
X0443452Y0107757D03*
X0452652Y0111757D03*
X0456552Y0113457D03*
X0463682Y0109157D03*
X0469252Y0105257D03*
X0479452Y0101757D03*
X0476952Y0099357D03*
X0474352Y0097057D03*
X0477352Y0094757D03*
X0479882Y0097157D03*
X0483652Y0094157D03*
X0487252Y0094457D03*
X0490852Y0094557D03*
X0496652Y0086357D03*
X0503752Y0086257D03*
X0508352Y0080457D03*
X0511252Y0086257D03*
X0517752Y0088757D03*
X0525652Y0092057D03*
X0522352Y0096857D03*
X0525452Y0100357D03*
X0530882Y0106457D03*
X0519082Y0106057D03*
X0503002Y0104257D03*
X0498752Y0103257D03*
X0494982Y0110957D03*
X0493752Y0115757D03*
X0489752Y0110757D03*
X0487252Y0113257D03*
X0484152Y0116757D03*
X0475782Y0118957D03*
X0472382Y0118957D03*
X0468982Y0118957D03*
X0475582Y0115457D03*
X0483982Y0123657D03*
X0448082Y0113357D03*
X0444352Y0096557D03*
X0436882Y0095257D03*
X0434252Y0092057D03*
X0423952Y0091857D03*
X0427552Y0083757D03*
X0425052Y0081057D03*
X0432382Y0073257D03*
X0438382Y0074757D03*
X0451561Y0075249D03*
X0461652Y0080657D03*
X0456252Y0084257D03*
X0450252Y0084757D03*
X0457407Y0095603D03*
X0463252Y0088257D03*
X0466252Y0085757D03*
X0469252Y0090157D03*
X0482752Y0078757D03*
X0475252Y0072257D03*
X0467252Y0072257D03*
X0467252Y0064257D03*
X0475252Y0064257D03*
X0458852Y0058557D03*
X0452382Y0062257D03*
X0462252Y0052757D03*
X0461882Y0044257D03*
X0463382Y0037757D03*
X0471882Y0033257D03*
X0441482Y0022257D03*
X0437182Y0022257D03*
X0433382Y0022257D03*
X0425182Y0021257D03*
X0417282Y0021257D03*
X0413382Y0021257D03*
X0409382Y0021257D03*
X0405482Y0021257D03*
X0418382Y0039757D03*
X0427882Y0040257D03*
X0507882Y0011457D03*
X0515182Y0011557D03*
X0527982Y0011957D03*
X0537982Y0011957D03*
X0548382Y0017257D03*
X0557982Y0012057D03*
X0587982Y0012457D03*
X0597882Y0012557D03*
X0617382Y0011257D03*
X0612482Y0059957D03*
X0612482Y0063357D03*
X0619382Y0069457D03*
X0622482Y0064657D03*
X0630382Y0064157D03*
X0582482Y0070557D03*
X0579082Y0071757D03*
X0554752Y0079257D03*
X0541752Y0070257D03*
X0538752Y0072257D03*
X0536352Y0077107D03*
X0528052Y0070557D03*
X0530852Y0060157D03*
X0535252Y0060257D03*
X0541752Y0060257D03*
X0516252Y0078957D03*
X0528052Y0086157D03*
X0531252Y0095857D03*
X0547252Y0094257D03*
X0550752Y0094257D03*
X0553752Y0096257D03*
X0559552Y0093857D03*
X0550752Y0087957D03*
X0546452Y0104157D03*
X0549252Y0106557D03*
X0555252Y0113057D03*
X0561152Y0113057D03*
X0572752Y0117357D03*
X0573652Y0110357D03*
X0549552Y0125157D03*
X0567852Y0128257D03*
X0570952Y0133457D03*
X0575052Y0138457D03*
X0568652Y0142457D03*
X0568552Y0147957D03*
X0564752Y0149557D03*
X0560252Y0152757D03*
X0531852Y0146657D03*
X0528452Y0158257D03*
X0519252Y0152257D03*
X0513252Y0146357D03*
X0509352Y0149557D03*
X0505652Y0149157D03*
X0496952Y0152357D03*
X0550952Y0141657D03*
X0570882Y0174257D03*
X0589102Y0194107D03*
X0657382Y0212257D03*
X0623752Y0246257D03*
X0439252Y0311257D03*
X0434252Y0313257D03*
X0371252Y0323257D03*
X0307752Y0308257D03*
X0304252Y0308257D03*
X0285552Y0315057D03*
X0285552Y0318357D03*
X0280952Y0320757D03*
X0328882Y0281757D03*
X0300852Y0279157D03*
X0415952Y0283757D03*
X0179552Y0380557D03*
X0112382Y0384257D03*
X0137252Y0313357D03*
X0132252Y0289757D03*
X0124139Y0169730D03*
X0094482Y0170757D03*
X0575252Y0085757D03*
X0634682Y0090057D03*
D21*
X0612482Y0063357D02*
X0610191Y0061067D01*
X0610191Y0059009D01*
X0611282Y0057918D01*
X0611282Y0021554D01*
X0598785Y0009057D01*
X0478779Y0009057D01*
X0427452Y0060384D01*
X0427452Y0083757D01*
X0427552Y0083757D01*
X0425052Y0081057D02*
X0425052Y0061087D01*
X0478282Y0007857D01*
X0599282Y0007857D01*
X0612482Y0021057D01*
X0612482Y0059957D01*
X0559552Y0093518D02*
X0555022Y0088988D01*
X0553761Y0090248D01*
X0531861Y0090248D01*
X0525252Y0096857D01*
X0522352Y0096857D01*
X0524503Y0102648D02*
X0510403Y0088548D01*
X0510303Y0088548D01*
X0509013Y0087257D01*
X0504752Y0087257D01*
X0503752Y0086257D01*
X0508706Y0088648D02*
X0495703Y0088648D01*
X0494361Y0087306D01*
X0494361Y0086257D01*
X0493361Y0085257D01*
X0479282Y0085257D01*
X0467182Y0097357D01*
X0458891Y0097357D01*
X0458355Y0097893D01*
X0457946Y0097893D01*
X0444852Y0110987D01*
X0444852Y0114037D01*
X0442682Y0116207D01*
X0442682Y0137957D01*
X0441652Y0147557D02*
X0441652Y0153557D01*
X0442352Y0154257D01*
X0441652Y0147557D02*
X0467952Y0121257D01*
X0511013Y0121257D01*
X0512103Y0122348D01*
X0514001Y0122348D01*
X0514891Y0121457D01*
X0516452Y0121457D01*
X0519252Y0125357D02*
X0519252Y0129327D01*
X0519982Y0130057D01*
X0519982Y0136157D01*
X0518482Y0137657D01*
X0518482Y0151487D01*
X0519252Y0152257D01*
X0531852Y0146857D02*
X0535161Y0150167D01*
X0535201Y0150167D01*
X0536543Y0151509D01*
X0536543Y0155148D01*
X0544552Y0163157D01*
X0544552Y0175057D01*
X0550352Y0180857D01*
X0556352Y0180857D01*
X0551252Y0188257D02*
X0541752Y0178757D01*
X0526752Y0178757D01*
X0525352Y0177357D01*
X0525352Y0174357D01*
X0517652Y0172763D02*
X0517652Y0177657D01*
X0522252Y0182257D01*
X0528252Y0182257D01*
X0529752Y0180757D01*
X0540252Y0180757D01*
X0549252Y0189757D01*
X0580752Y0189757D01*
X0587752Y0182757D01*
X0587752Y0176218D01*
X0587524Y0175990D01*
X0592882Y0174757D02*
X0601382Y0166257D01*
X0592882Y0174757D02*
X0592882Y0181757D01*
X0583682Y0190957D01*
X0543343Y0190957D01*
X0541591Y0189206D01*
X0541591Y0185967D01*
X0537882Y0182257D01*
X0529949Y0182257D01*
X0528749Y0183457D01*
X0521755Y0183457D01*
X0520555Y0182257D01*
X0514882Y0182257D01*
X0510858Y0174757D02*
X0498952Y0174757D01*
X0510858Y0174757D02*
X0514258Y0171357D01*
X0516246Y0171357D01*
X0517652Y0172763D01*
X0485752Y0160257D02*
X0482752Y0163257D01*
X0480752Y0163257D01*
X0476252Y0167757D01*
X0476252Y0172757D01*
X0477752Y0174257D01*
X0477752Y0183257D01*
X0486252Y0191757D01*
X0436202Y0191607D02*
X0435652Y0191057D01*
X0435652Y0157157D01*
X0480252Y0151257D02*
X0480252Y0143757D01*
X0480252Y0151257D02*
X0485752Y0156757D01*
X0485752Y0160257D01*
X0531852Y0146857D02*
X0531852Y0146657D01*
X0546382Y0143257D02*
X0570882Y0167757D01*
X0570882Y0174257D01*
X0580752Y0179257D02*
X0580752Y0152761D01*
X0587524Y0145990D01*
X0578252Y0148257D02*
X0578252Y0107557D01*
X0569552Y0098857D01*
X0542455Y0098857D01*
X0537255Y0104057D01*
X0531513Y0104057D01*
X0530103Y0102648D01*
X0524503Y0102648D01*
X0524006Y0103848D02*
X0509906Y0089748D01*
X0509806Y0089748D01*
X0508706Y0088648D01*
X0509806Y0089748D02*
X0509906Y0089748D01*
X0507052Y0081757D02*
X0480552Y0081757D01*
X0473343Y0074548D01*
X0466303Y0074548D01*
X0464313Y0072557D01*
X0447552Y0072557D01*
X0425652Y0094457D01*
X0425652Y0198657D01*
X0422252Y0202057D01*
X0325252Y0202057D01*
X0322652Y0204657D01*
X0427752Y0190457D02*
X0427752Y0110057D01*
X0434252Y0103557D01*
X0434252Y0092057D01*
X0421482Y0097063D02*
X0421482Y0120057D01*
X0422682Y0121357D01*
X0420282Y0123557D02*
X0421582Y0124857D01*
X0420282Y0123557D02*
X0420282Y0097560D01*
X0408179Y0085457D01*
X0372182Y0085457D01*
X0364282Y0077657D01*
X0369482Y0070857D02*
X0383382Y0084257D01*
X0408676Y0084257D01*
X0421482Y0097063D01*
X0419082Y0098057D02*
X0407682Y0086657D01*
X0351282Y0086657D01*
X0342482Y0095457D01*
X0334082Y0095457D01*
X0326282Y0103257D01*
X0295382Y0103257D01*
X0295329Y0103310D01*
X0292702Y0100683D01*
X0292702Y0098374D01*
X0295082Y0095994D01*
X0295082Y0095000D01*
X0295082Y0095000D01*
X0295082Y0077797D01*
X0296172Y0076706D01*
X0296172Y0066967D01*
X0298882Y0064257D01*
X0293882Y0075757D02*
X0293882Y0095497D01*
X0291502Y0097877D01*
X0291502Y0101180D01*
X0295079Y0104757D01*
X0327843Y0104757D01*
X0328633Y0103967D01*
X0330691Y0103967D01*
X0332982Y0106257D01*
X0329582Y0106257D02*
X0316682Y0106257D01*
X0316382Y0105957D01*
X0295576Y0105957D01*
X0295576Y0105957D01*
X0294582Y0105957D01*
X0290302Y0101677D01*
X0290302Y0101677D01*
X0289882Y0101257D01*
X0289882Y0096257D01*
X0315252Y0124257D02*
X0326252Y0124257D01*
X0345382Y0124257D01*
X0350132Y0119507D01*
X0352382Y0117257D01*
X0352382Y0098127D01*
X0355252Y0095257D01*
X0385752Y0095257D01*
X0389752Y0099257D01*
X0389752Y0121757D01*
X0419082Y0127157D02*
X0419082Y0098057D01*
X0448082Y0113357D02*
X0448991Y0112448D01*
X0448991Y0112048D01*
X0452282Y0108757D01*
X0459782Y0108757D01*
X0462472Y0111448D01*
X0463982Y0111448D01*
X0464631Y0111448D01*
X0465721Y0110357D01*
X0466182Y0110357D01*
X0465721Y0110357D01*
X0466182Y0110357D02*
X0473079Y0110357D01*
X0478179Y0105257D01*
X0489182Y0105257D01*
X0494982Y0110957D01*
X0499558Y0111257D02*
X0529182Y0111257D01*
X0532382Y0114457D01*
X0532382Y0119757D01*
X0546382Y0133757D01*
X0546382Y0143257D01*
X0560252Y0152757D02*
X0573752Y0152757D01*
X0578252Y0148257D01*
X0575052Y0138457D02*
X0575352Y0138157D01*
X0575352Y0127857D01*
X0565252Y0117757D01*
X0565252Y0112557D01*
X0561552Y0108857D01*
X0500552Y0108857D01*
X0487252Y0095557D01*
X0487252Y0094457D01*
X0486955Y0096957D02*
X0500055Y0110057D01*
X0557152Y0110057D01*
X0558452Y0111357D01*
X0558452Y0122657D01*
X0555952Y0125157D01*
X0549552Y0125157D01*
X0528052Y0118557D02*
X0526052Y0118557D01*
X0519252Y0125357D01*
X0499558Y0111257D02*
X0492358Y0104057D01*
X0477682Y0104057D01*
X0472582Y0109157D01*
X0463682Y0109157D01*
X0483652Y0094527D02*
X0486082Y0096957D01*
X0486955Y0096957D01*
X0483652Y0094527D02*
X0483652Y0094157D01*
X0469252Y0090157D02*
X0464591Y0090157D01*
X0464201Y0090548D01*
X0460443Y0090548D01*
X0459752Y0089857D01*
X0457752Y0089857D01*
X0466960Y0082948D02*
X0467770Y0083757D01*
X0546552Y0083757D01*
X0550752Y0087957D01*
X0555022Y0088988D02*
X0547552Y0081518D01*
X0547552Y0060857D01*
X0508352Y0080457D02*
X0507052Y0081757D01*
X0466960Y0082948D02*
X0460703Y0082948D01*
X0459361Y0081606D01*
X0459361Y0081367D01*
X0453243Y0075249D01*
X0451561Y0075249D01*
X0524006Y0103848D02*
X0528272Y0103848D01*
X0530882Y0106457D01*
X0559552Y0093857D02*
X0559552Y0093518D01*
X0580752Y0179257D02*
X0571752Y0188257D01*
X0551252Y0188257D01*
X0579152Y0215157D02*
X0579252Y0215257D01*
X0579252Y0235257D01*
X0570552Y0243957D01*
X0570552Y0250157D01*
X0584043Y0243448D02*
X0584043Y0228059D01*
X0582552Y0226568D01*
X0582552Y0217957D01*
X0584043Y0243448D02*
X0586952Y0246357D01*
X0429552Y0192257D02*
X0427752Y0190457D01*
X0350882Y0077757D02*
X0346182Y0073057D01*
X0329682Y0073057D01*
X0322882Y0066257D01*
X0322882Y0064257D01*
D22*
X0378043Y0123867D02*
X0374852Y0127057D01*
X0354833Y0127057D01*
X0354242Y0126467D01*
X0346643Y0126467D01*
X0342652Y0130457D01*
X0347843Y0130467D02*
X0347843Y0143927D01*
X0345452Y0146318D01*
X0345452Y0149977D01*
X0346443Y0150967D01*
X0346443Y0152948D01*
X0344152Y0155238D01*
X0344152Y0160057D01*
X0346543Y0161048D02*
X0342333Y0165257D01*
X0332791Y0165257D01*
X0346543Y0161048D02*
X0346543Y0154827D01*
X0347843Y0153527D01*
X0347843Y0145907D01*
X0349243Y0144507D01*
X0349243Y0132867D01*
X0353252Y0128857D01*
X0349352Y0128957D02*
X0347843Y0130467D01*
X0344052Y0138957D02*
X0344052Y0138977D01*
X0346443Y0141367D01*
X0346443Y0143348D01*
X0344052Y0145738D01*
X0344052Y0151957D01*
X0344052Y0142357D02*
X0328452Y0142357D01*
X0318352Y0152457D01*
X0318352Y0152957D01*
X0364252Y0131357D02*
X0374252Y0131357D01*
X0379352Y0126257D01*
X0380342Y0123867D02*
X0378043Y0123867D01*
X0380342Y0123867D02*
X0382733Y0126257D01*
X0388152Y0126257D01*
X0479752Y0168357D02*
X0481152Y0166957D01*
X0487352Y0166957D01*
X0496152Y0158157D01*
X0525171Y0158157D01*
X0527462Y0155867D01*
X0529442Y0155867D01*
X0531733Y0158157D01*
X0531852Y0158157D01*
X0539382Y0165257D02*
X0539382Y0173257D01*
X0550382Y0184257D01*
X0551882Y0184257D01*
X0539252Y0187257D02*
X0539252Y0189257D01*
X0536252Y0192257D01*
X0530075Y0192257D01*
X0522799Y0199533D01*
X0510252Y0180257D02*
X0507752Y0177757D01*
X0366752Y0244257D02*
X0366752Y0253757D01*
X0365752Y0254757D01*
X0360252Y0254757D01*
X0334343Y0228848D01*
X0330862Y0228848D01*
X0330271Y0228257D01*
X0314252Y0228257D01*
X0309752Y0221757D02*
X0309752Y0211557D01*
X0317152Y0210557D02*
X0346652Y0210557D01*
X0348752Y0212657D01*
X0348752Y0238057D01*
X0363052Y0252357D01*
X0306352Y0226757D02*
X0306352Y0203257D01*
X0307252Y0202357D01*
X0170443Y0291267D02*
X0170443Y0309248D01*
X0190652Y0329457D01*
X0219152Y0329457D01*
X0235352Y0345657D01*
X0272552Y0345657D01*
X0235152Y0352257D02*
X0235152Y0354357D01*
X0235052Y0354457D01*
X0235152Y0352257D02*
X0213952Y0331057D01*
X0169152Y0331057D01*
X0167752Y0332457D01*
X0167752Y0333257D01*
X0169152Y0331057D02*
X0168052Y0329957D01*
X0168052Y0292257D01*
X0169042Y0289867D02*
X0167062Y0289867D01*
X0165661Y0291267D01*
X0165661Y0298948D01*
X0158752Y0305857D01*
X0154752Y0305857D01*
X0147252Y0313357D01*
X0137252Y0313357D01*
X0169042Y0289867D02*
X0170443Y0291267D01*
D23*
X0202552Y0244357D03*
X0384752Y0169257D03*
X0384252Y0162757D03*
X0364752Y0151257D03*
X0387752Y0144757D03*
X0216482Y0047157D03*
X0130482Y0022157D03*
X0110382Y0025057D03*
D24*
X0208082Y0092457D03*
X0246082Y0105957D03*
X0216882Y0131557D03*
X0209482Y0169757D03*
X0171682Y0193257D03*
X0225282Y0217857D03*
X0258282Y0202257D03*
X0280982Y0190457D03*
X0287752Y0199957D03*
X0288752Y0238157D03*
X0333652Y0253457D03*
X0353882Y0300757D03*
X0389382Y0315257D03*
X0490382Y0376257D03*
X0202152Y0306457D03*
X0083882Y0294757D03*
X0083382Y0287257D03*
X0457752Y0089857D03*
X0419552Y0086757D03*
X0635752Y0227757D03*
D25*
X0354252Y0308257D03*
D26*
X0255882Y0301257D03*
X0246882Y0201557D03*
D27*
X0225382Y0198757D03*
X0202882Y0214757D03*
X0135882Y0187257D03*
X0129382Y0169257D03*
X0397382Y0102257D03*
X0567882Y0029657D03*
X0140382Y0030157D03*
X0034382Y0290757D03*
X0034882Y0314757D03*
X0034382Y0327257D03*
X0034382Y0344757D03*
X0034382Y0361257D03*
X0034382Y0374757D03*
X0034382Y0391257D03*
D28*
X0113882Y0261757D03*
X0113882Y0255757D03*
X0291182Y0178157D03*
X0333382Y0178257D03*
X0410634Y0183757D03*
X0410634Y0189757D03*
X0258082Y0153457D03*
X0253382Y0101757D03*
X0251982Y0028857D03*
X0271982Y0028857D03*
X0291982Y0028857D03*
X0311982Y0028857D03*
D29*
X0406182Y0011957D03*
X0455082Y0039057D03*
X0180282Y0017157D03*
X0170282Y0031057D03*
D30*
X0072582Y0160657D03*
X0145882Y0215257D03*
X0100882Y0222257D03*
X0094382Y0222257D03*
X0218882Y0195757D03*
D31*
X0216382Y0198257D01*
X0216382Y0210757D01*
X0262661Y0263116D02*
X0264794Y0265248D01*
X0410634Y0189757D02*
X0410634Y0183757D01*
X0414082Y0180309D01*
X0414082Y0101457D01*
X0403882Y0091257D01*
X0352882Y0091257D01*
X0347382Y0096757D01*
X0347382Y0103757D01*
X0339882Y0111257D01*
X0279382Y0111257D01*
X0104382Y0065757D02*
X0083677Y0086462D01*
X0059665Y0086462D01*
X0085882Y0047257D02*
X0104382Y0065757D01*
X0085882Y0047257D02*
X0059165Y0047257D01*
D32*
X0179382Y0116057D03*
D33*
X0188882Y0141257D02*
X0182382Y0147757D01*
X0182382Y0217641D01*
X0163071Y0236952D01*
X0188882Y0141257D02*
X0199382Y0141257D01*
X0245882Y0094757D01*
X0262882Y0094757D01*
X0279382Y0111257D01*
D34*
X0220512Y0105987D02*
X0207912Y0105987D01*
X0198082Y0096157D01*
X0198082Y0063257D01*
X0191182Y0056357D01*
X0108182Y0056357D01*
X0073082Y0021257D01*
X0048082Y0021257D01*
X0039282Y0030057D01*
X0039282Y0102121D01*
X0027382Y0114021D01*
X0104382Y0065757D02*
X0160282Y0065757D01*
X0180182Y0085657D01*
X0180182Y0115257D01*
X0179382Y0116057D01*
X0179382Y0126357D01*
X0163071Y0142668D01*
X0163071Y0236952D01*
D35*
X0130382Y0227457D02*
X0130382Y0221157D01*
X0113482Y0204257D01*
X0113482Y0193857D01*
X0117982Y0189357D01*
X0117982Y0130757D01*
X0124382Y0124357D01*
X0124382Y0109857D01*
X0319252Y0190257D02*
X0319252Y0194957D01*
X0438252Y0169157D02*
X0494152Y0225057D01*
X0494152Y0267257D01*
X0479652Y0281757D01*
X0534752Y0336857D01*
X0534752Y0366857D01*
X0534352Y0367257D01*
X0534052Y0367257D01*
X0479652Y0281757D02*
X0447952Y0281757D01*
X0446852Y0280657D01*
X0511652Y0224757D02*
X0496052Y0209157D01*
X0480515Y0209157D01*
X0439852Y0168495D01*
X0439852Y0117057D01*
X0443452Y0113457D01*
X0443452Y0107757D01*
X0438252Y0102657D02*
X0438252Y0169157D01*
X0511652Y0224757D02*
X0519652Y0224757D01*
X0438252Y0102657D02*
X0444352Y0096557D01*
X0432382Y0073257D02*
X0432382Y0062257D01*
X0450382Y0044257D01*
X0461882Y0044257D01*
D36*
X0042682Y0013657D02*
X0033882Y0022457D01*
X0026482Y0022457D01*
X0019182Y0029757D01*
X0019182Y0230057D01*
X0023182Y0234057D01*
X0081871Y0234057D01*
X0089654Y0241840D01*
X0154252Y0289757D02*
X0157252Y0286757D01*
X0169752Y0286757D01*
X0172252Y0289257D01*
X0172252Y0303257D01*
X0195752Y0326757D01*
X0207752Y0326757D01*
X0216252Y0318257D01*
X0234752Y0318257D01*
X0154252Y0289757D02*
X0132252Y0289757D01*
X0107752Y0289757D01*
X0101752Y0295757D01*
X0101752Y0314257D01*
X0098587Y0317423D01*
X0086299Y0317423D01*
X0480252Y0143757D02*
X0492252Y0143757D01*
X0504252Y0155757D01*
X0520252Y0155757D01*
X0523252Y0152757D01*
X0523252Y0145257D01*
X0527752Y0140757D01*
X0538152Y0140757D01*
X0457407Y0095603D02*
X0449252Y0103757D01*
X0442752Y0103757D01*
X0457407Y0095603D02*
X0457752Y0095257D01*
X0457752Y0089857D01*
X0457752Y0085757D01*
X0456252Y0084257D01*
X0641182Y0214757D02*
X0641182Y0281457D01*
X0629882Y0292757D01*
X0536782Y0292757D01*
X0532382Y0297157D01*
X0572132Y0334007D02*
X0578882Y0327257D01*
X0603132Y0327257D01*
X0611382Y0327257D01*
X0621632Y0337507D01*
X0621632Y0347972D01*
X0630339Y0356679D01*
X0594102Y0386728D02*
X0572132Y0364757D01*
X0572132Y0362507D01*
X0572132Y0334007D01*
X0594102Y0386728D02*
X0594102Y0390840D01*
X0641182Y0214757D02*
X0642082Y0213857D01*
X0110382Y0025057D02*
X0098982Y0013657D01*
X0042682Y0013657D01*
D37*
X0133782Y0095157D03*
X0133782Y0131357D03*
D38*
X0287752Y0199957D02*
X0289152Y0199957D01*
X0294152Y0194957D01*
X0319252Y0194957D01*
X0325952Y0194957D01*
X0352052Y0168857D01*
D39*
X0246082Y0117957D02*
X0246082Y0105957D01*
X0246082Y0117957D02*
X0224682Y0139357D01*
X0224682Y0156457D01*
X0214682Y0166457D01*
X0212782Y0166457D01*
X0209482Y0169757D01*
X0224682Y0139357D02*
X0216882Y0131557D01*
X0486252Y0191757D02*
X0498752Y0191757D01*
X0498752Y0200257D01*
X0507752Y0209257D01*
X0522752Y0209257D01*
X0522799Y0209210D01*
X0522799Y0199533D01*
X0522752Y0209257D02*
X0610752Y0209257D01*
X0623752Y0222257D01*
X0623752Y0246257D01*
X0510252Y0180257D02*
X0498752Y0191757D01*
X0510252Y0180257D02*
X0515252Y0175257D01*
X0515252Y0173757D01*
X0202882Y0381757D02*
X0167882Y0346757D01*
X0102882Y0346757D01*
X0077882Y0321757D01*
X0077882Y0300757D01*
X0083882Y0294757D01*
X0083382Y0287257D02*
X0071382Y0299257D01*
X0071382Y0332257D01*
X0090882Y0351757D01*
X0164382Y0351757D01*
X0188882Y0376257D01*
X0188882Y0393257D01*
X0195882Y0400257D01*
X0209382Y0400257D01*
X0212882Y0396757D01*
X0212882Y0390757D01*
X0202882Y0390757D02*
X0202882Y0381757D01*
D40*
X0207352Y0357157D02*
X0234752Y0384557D01*
X0250452Y0400257D01*
X0284452Y0400257D01*
X0286752Y0397957D01*
X0286752Y0381957D01*
X0282752Y0377957D01*
X0282752Y0375757D01*
X0389382Y0315257D02*
X0402882Y0328757D01*
X0424382Y0328757D01*
X0432382Y0336757D01*
X0432382Y0345257D01*
X0463382Y0376257D01*
X0490382Y0376257D01*
X0432382Y0346757D02*
X0425866Y0353273D01*
X0421402Y0353273D01*
X0432382Y0346757D02*
X0432382Y0345257D01*
X0389382Y0315257D02*
X0368382Y0315257D01*
X0353882Y0300757D01*
X0352052Y0168857D02*
X0359852Y0161057D01*
X0359852Y0149357D01*
X0376152Y0133057D01*
X0391952Y0133057D01*
X0395882Y0129127D01*
X0395882Y0103757D01*
X0397382Y0102257D01*
D41*
X0387752Y0144757D02*
X0387752Y0166257D01*
X0384752Y0169257D01*
X0384252Y0162757D02*
X0384252Y0158257D01*
X0382252Y0156257D01*
X0369752Y0156257D01*
X0364752Y0151257D01*
X0366252Y0159757D02*
X0359252Y0166757D01*
X0366252Y0159757D02*
X0375752Y0159757D01*
X0212252Y0151957D02*
X0212252Y0139857D01*
X0212252Y0151957D02*
X0200752Y0163457D01*
X0530082Y0299457D02*
X0532382Y0297157D01*
X0421402Y0353273D02*
X0421402Y0361238D01*
X0416882Y0365757D01*
X0334882Y0365757D01*
X0330850Y0361726D01*
X0330850Y0353273D01*
X0642082Y0213857D02*
X0657682Y0198257D01*
X0657682Y0076157D01*
X0663782Y0070057D01*
X0667740Y0070057D01*
X0676893Y0060905D01*
X0641809Y0053136D02*
X0637003Y0053136D01*
X0633482Y0056657D01*
X0633482Y0080057D01*
X0619682Y0093857D01*
X0559552Y0093857D01*
D42*
X0419552Y0086757D02*
X0413580Y0086757D01*
X0409380Y0082557D01*
X0384068Y0082557D01*
X0378782Y0077461D01*
X0378782Y0070157D01*
X0376282Y0067657D01*
X0360982Y0067657D01*
X0350882Y0077757D01*
D43*
X0333652Y0253457D02*
X0301703Y0253457D01*
X0289912Y0265248D01*
X0264794Y0265248D01*
X0227034Y0302508D01*
X0206102Y0302508D01*
X0202152Y0306457D01*
D44*
X0333382Y0178257D02*
X0323382Y0168257D01*
X0282882Y0168257D01*
X0267517Y0152893D01*
X0267517Y0149580D01*
X0253382Y0135445D01*
X0253382Y0101757D01*
D45*
X0216382Y0210757D02*
X0176882Y0249257D01*
X0176882Y0296257D01*
X0197382Y0316757D01*
X0212573Y0316757D01*
X0215426Y0313905D01*
X0243235Y0313905D01*
X0255882Y0301257D01*
D46*
X0265982Y0199857D03*
X0275682Y0200357D03*
D47*
X0275882Y0200557D01*
X0275882Y0209557D01*
X0275982Y0210457D01*
X0257882Y0210457D01*
X0257182Y0210757D01*
X0216382Y0210757D01*
X0196345Y0217794D02*
X0164382Y0249757D01*
X0138051Y0249757D01*
X0103714Y0215420D01*
X0101245Y0215420D01*
X0088282Y0202457D01*
X0088282Y0162357D01*
X0110420Y0140220D01*
X0110420Y0112108D01*
X0223195Y0168645D02*
X0227582Y0164257D01*
X0244282Y0164257D01*
X0265982Y0185957D01*
X0265982Y0199857D01*
X0223195Y0168645D02*
X0223182Y0168645D01*
X0196345Y0195482D01*
X0196345Y0217794D01*
D48*
X0256382Y0300757D02*
X0353882Y0300757D01*
X0256382Y0300757D02*
X0255882Y0301257D01*
M02*
