G75*
%MOIN*%
%OFA0B0*%
%FSLAX25Y25*%
%IPPOS*%
%LPD*%
%AMOC8*
5,1,8,0,0,1.08239X$1,22.5*
%
%ADD10R,0.03800X0.03000*%
%ADD11R,0.03000X0.03800*%
%ADD12R,0.03937X0.01181*%
%ADD13R,0.01181X0.03937*%
%ADD14R,0.13386X0.13386*%
%ADD15R,0.01400X0.06000*%
%ADD16C,0.11250*%
%ADD17C,0.37402*%
%ADD18R,0.05118X0.08661*%
%ADD19R,0.03500X0.03100*%
%ADD20R,0.05512X0.01496*%
%ADD21C,0.02756*%
%ADD22R,0.02362X0.04724*%
%ADD23R,0.06300X0.06300*%
%ADD24OC8,0.06300*%
%ADD25C,0.03937*%
%ADD26R,0.04724X0.01496*%
%ADD27R,0.06299X0.00945*%
%ADD28R,0.00945X0.06299*%
%ADD29R,0.07874X0.04724*%
%ADD30R,0.05200X0.05200*%
%ADD31C,0.05200*%
%ADD32R,0.01969X0.03937*%
%ADD33R,0.05512X0.07874*%
%ADD34R,0.04724X0.02362*%
%ADD35R,0.03937X0.01969*%
%ADD36R,0.03937X0.03150*%
%ADD37R,0.03150X0.01654*%
%ADD38R,0.06000X0.02400*%
%ADD39R,0.06700X0.04500*%
%ADD40R,0.03300X0.03300*%
%ADD41R,0.03300X0.04700*%
%ADD42C,0.05500*%
%ADD43R,0.05500X0.04300*%
%ADD44R,0.03346X0.01102*%
%ADD45R,0.01102X0.03346*%
%ADD46R,0.03150X0.04724*%
%ADD47R,0.18500X0.15000*%
%ADD48R,0.16000X0.29000*%
%ADD49R,0.04331X0.03937*%
%ADD50R,0.03937X0.04331*%
%ADD51R,0.02559X0.04291*%
%ADD52R,0.07480X0.11024*%
%ADD53R,0.02559X0.01732*%
%ADD54R,0.01181X0.01378*%
%ADD55R,0.07087X0.06299*%
%ADD56R,0.06299X0.07087*%
%ADD57R,0.04291X0.02559*%
%ADD58R,0.11024X0.07480*%
%ADD59R,0.01732X0.02559*%
%ADD60R,0.01378X0.01181*%
%ADD61R,0.06299X0.10630*%
%ADD62R,0.11417X0.21260*%
%ADD63R,0.10630X0.06299*%
%ADD64R,0.05500X0.10200*%
%ADD65R,0.10200X0.05500*%
%ADD66R,0.10800X0.08500*%
%ADD67R,0.07200X0.07200*%
%ADD68C,0.07200*%
%ADD69R,0.02362X0.01654*%
%ADD70R,0.21260X0.27559*%
%ADD71R,0.04724X0.07874*%
%ADD72R,0.27559X0.21260*%
%ADD73R,0.08500X0.10800*%
%ADD74R,0.04300X0.05500*%
%ADD75R,0.04724X0.01378*%
%ADD76R,0.03100X0.03500*%
%ADD77R,0.04724X0.01181*%
%ADD78R,0.11811X0.22047*%
%ADD79R,0.07900X0.09400*%
%ADD80R,0.07874X0.08661*%
%ADD81R,0.08661X0.07874*%
%ADD82R,0.04724X0.04331*%
%ADD83R,0.27559X0.11811*%
%ADD84R,0.01181X0.06299*%
%ADD85R,0.24291X0.09449*%
%ADD86R,0.06535X0.16614*%
%ADD87R,0.12598X0.06299*%
%ADD88R,0.02165X0.04724*%
%ADD89R,0.03937X0.05512*%
%ADD90R,0.01260X0.05512*%
%ADD91OC8,0.05200*%
%ADD92R,0.04500X0.06700*%
%ADD93C,0.05000*%
%ADD94R,0.06400X0.06400*%
%ADD95OC8,0.12400*%
%ADD96C,0.12400*%
%ADD97R,0.09449X0.09449*%
%ADD98R,0.06700X0.13386*%
%ADD99C,0.06000*%
%ADD100C,0.25000*%
%ADD101R,0.02362X0.08661*%
%ADD102R,0.07087X0.10236*%
%ADD103C,0.13055*%
%ADD104C,0.05622*%
%ADD105C,0.10630*%
%ADD106C,0.10000*%
%ADD107OC8,0.10000*%
%ADD108R,0.06299X0.13780*%
%ADD109R,0.05512X0.02500*%
%ADD110C,0.06496*%
%ADD111R,0.18504X0.05118*%
%ADD112R,0.23622X0.04331*%
%ADD113R,0.05118X0.18504*%
%ADD114R,0.04331X0.23622*%
%ADD115OC8,0.07000*%
%ADD116C,0.00600*%
%ADD117C,0.02781*%
%ADD118C,0.01200*%
%ADD119C,0.00800*%
%ADD120C,0.00900*%
%ADD121C,0.00787*%
%ADD122C,0.01400*%
%ADD123C,0.02000*%
%ADD124C,0.01500*%
%ADD125C,0.03000*%
%ADD126C,0.03100*%
%ADD127C,0.01800*%
%ADD128C,0.04000*%
%ADD129C,0.03600*%
%ADD130C,0.02400*%
%ADD131C,0.01000*%
%ADD132C,0.01181*%
%ADD133C,0.03175*%
%ADD134C,0.07087*%
%ADD135C,0.04000*%
%ADD136C,0.03150*%
%ADD137C,0.07874*%
%ADD138C,0.03937*%
%ADD139C,0.04750*%
%ADD140C,0.02978*%
%ADD141C,0.04600*%
%ADD142C,0.06000*%
%ADD143C,0.01600*%
%ADD144C,0.05000*%
%ADD145C,0.07087*%
%ADD146C,0.02800*%
%ADD147C,0.05906*%
%ADD148C,0.09000*%
%ADD149C,0.11811*%
%ADD150C,0.08000*%
%ADD151C,0.01100*%
%ADD152C,0.01300*%
%ADD153C,0.04724*%
%ADD154C,0.07500*%
%ADD155C,0.03800*%
%ADD156C,0.01969*%
D10*
X0202333Y0086317D03*
X0202333Y0092517D03*
X0224114Y0121864D03*
X0224114Y0128064D03*
X0224114Y0134031D03*
X0224114Y0140231D03*
X0130982Y0174657D03*
X0123982Y0174657D03*
X0117482Y0174657D03*
X0110982Y0174657D03*
X0100982Y0175157D03*
X0094482Y0175157D03*
X0094482Y0181357D03*
X0100982Y0181357D03*
X0110982Y0180857D03*
X0117482Y0180857D03*
X0123982Y0180857D03*
X0130982Y0180857D03*
X0195831Y0255811D03*
X0195831Y0262011D03*
X0203311Y0262011D03*
X0203311Y0255811D03*
X0210004Y0255811D03*
X0210004Y0262011D03*
X0368311Y0286484D03*
X0368311Y0292684D03*
X0386713Y0304331D03*
X0386713Y0310531D03*
X0375748Y0316980D03*
X0366874Y0316980D03*
X0366874Y0323180D03*
X0375748Y0323180D03*
X0420059Y0308420D03*
X0420059Y0302220D03*
X0518232Y0346433D03*
X0518232Y0352633D03*
X0517839Y0361000D03*
X0517839Y0367200D03*
X0508390Y0367200D03*
X0508390Y0361000D03*
X0559750Y0362837D03*
X0559750Y0356637D03*
X0566837Y0356637D03*
X0566837Y0362837D03*
X0603244Y0373248D03*
X0603244Y0379448D03*
X0593795Y0327086D03*
X0587496Y0327086D03*
X0587496Y0320886D03*
X0593795Y0320886D03*
X0544130Y0260499D03*
X0536650Y0260499D03*
X0536650Y0254299D03*
X0544130Y0254299D03*
X0481382Y0192357D03*
X0474382Y0192357D03*
X0474382Y0186157D03*
X0481382Y0186157D03*
X0479650Y0179405D03*
X0479650Y0173205D03*
X0504059Y0174976D03*
X0519807Y0172023D03*
X0519807Y0178223D03*
X0531382Y0175657D03*
X0531382Y0181857D03*
X0537882Y0181857D03*
X0537882Y0175657D03*
X0544382Y0175657D03*
X0544382Y0181857D03*
X0504059Y0181176D03*
X0463193Y0155822D03*
X0456106Y0155822D03*
X0456106Y0149622D03*
X0463193Y0149622D03*
X0505059Y0099090D03*
X0505059Y0092890D03*
X0511358Y0092890D03*
X0511358Y0099090D03*
X0517657Y0099090D03*
X0517657Y0092890D03*
X0474382Y0044357D03*
X0474382Y0038157D03*
X0467882Y0038157D03*
X0467882Y0044357D03*
X0332752Y0069657D03*
X0326252Y0069657D03*
X0326252Y0075857D03*
X0332752Y0075857D03*
X0321382Y0092157D03*
X0321382Y0098357D03*
X0314882Y0098357D03*
X0314882Y0092157D03*
X0268035Y0338441D03*
X0268035Y0344641D03*
D11*
X0405809Y0296793D03*
X0412009Y0296793D03*
X0427589Y0308470D03*
X0433789Y0308470D03*
X0443731Y0285242D03*
X0449931Y0285242D03*
X0541510Y0238903D03*
X0547710Y0238903D03*
X0555683Y0238903D03*
X0561883Y0238903D03*
X0598203Y0229454D03*
X0604403Y0229454D03*
X0528813Y0234179D03*
X0522613Y0234179D03*
X0519364Y0209375D03*
X0513164Y0209375D03*
X0486482Y0200257D03*
X0480282Y0200257D03*
X0560152Y0167757D03*
X0566352Y0167757D03*
X0566352Y0161757D03*
X0560152Y0161757D03*
X0558439Y0142446D03*
X0564639Y0142446D03*
X0561096Y0118037D03*
X0554896Y0118037D03*
X0480387Y0139297D03*
X0474187Y0139297D03*
X0468970Y0100714D03*
X0462770Y0100714D03*
X0456372Y0079848D03*
X0450172Y0079848D03*
X0488754Y0077879D03*
X0494954Y0077879D03*
X0494954Y0070793D03*
X0488754Y0070793D03*
X0474482Y0050757D03*
X0468282Y0050757D03*
X0373997Y0075320D03*
X0367797Y0075320D03*
X0360836Y0075320D03*
X0354636Y0075320D03*
X0321482Y0085757D03*
X0315282Y0085757D03*
X0312782Y0076257D03*
X0318982Y0076257D03*
X0318982Y0069757D03*
X0312782Y0069757D03*
X0288982Y0069757D03*
X0282782Y0069757D03*
X0282782Y0076257D03*
X0288982Y0076257D03*
X0242739Y0089713D03*
X0236539Y0089713D03*
X0236539Y0096040D03*
X0242739Y0096040D03*
X0244931Y0115478D03*
X0238731Y0115478D03*
X0212254Y0145005D03*
X0206054Y0145005D03*
X0205660Y0163509D03*
X0211860Y0163509D03*
X0184482Y0182757D03*
X0178282Y0182757D03*
X0131082Y0187257D03*
X0124882Y0187257D03*
X0124882Y0193757D03*
X0131082Y0193757D03*
X0131082Y0200257D03*
X0124882Y0200257D03*
X0113850Y0200301D03*
X0107650Y0200301D03*
X0096582Y0200757D03*
X0090382Y0200757D03*
X0107582Y0206557D03*
X0113782Y0206557D03*
X0096582Y0194257D03*
X0090382Y0194257D03*
X0090382Y0187757D03*
X0096582Y0187757D03*
X0229487Y0225727D03*
X0235687Y0225727D03*
X0188694Y0267966D03*
X0182494Y0267966D03*
X0182494Y0274659D03*
X0188694Y0274659D03*
X0188694Y0283714D03*
X0182494Y0283714D03*
X0223046Y0278990D03*
X0229246Y0278990D03*
X0230033Y0271509D03*
X0223833Y0271509D03*
X0460014Y0356226D03*
X0466214Y0356226D03*
X0473006Y0356226D03*
X0479206Y0356226D03*
X0466214Y0370399D03*
X0460014Y0370399D03*
X0519463Y0334572D03*
X0525663Y0334572D03*
X0543085Y0373155D03*
X0549285Y0373155D03*
X0581274Y0269218D03*
X0587474Y0269218D03*
X0300667Y0164466D03*
X0294467Y0164466D03*
X0331282Y0098257D03*
X0337482Y0098257D03*
D12*
X0460949Y0074927D03*
X0460949Y0072958D03*
X0460949Y0070990D03*
X0460949Y0069021D03*
X0460949Y0067053D03*
X0460949Y0065084D03*
X0460949Y0063116D03*
X0460949Y0061147D03*
X0481815Y0061147D03*
X0481815Y0063116D03*
X0481815Y0065084D03*
X0481815Y0067053D03*
X0481815Y0069021D03*
X0481815Y0070990D03*
X0481815Y0072958D03*
X0481815Y0074927D03*
X0118628Y0185934D03*
X0118628Y0187903D03*
X0118628Y0189871D03*
X0118628Y0191840D03*
X0118628Y0193808D03*
X0102486Y0193808D03*
X0102486Y0191840D03*
X0102486Y0189871D03*
X0102486Y0187903D03*
X0102486Y0185934D03*
D13*
X0464492Y0078470D03*
X0466461Y0078470D03*
X0468429Y0078470D03*
X0470398Y0078470D03*
X0472366Y0078470D03*
X0474335Y0078470D03*
X0476303Y0078470D03*
X0478272Y0078470D03*
X0478272Y0057604D03*
X0476303Y0057604D03*
X0474335Y0057604D03*
X0472366Y0057604D03*
X0470398Y0057604D03*
X0468429Y0057604D03*
X0466461Y0057604D03*
X0464492Y0057604D03*
D14*
X0471382Y0068037D03*
D15*
X0586144Y0237870D03*
X0588723Y0237870D03*
X0591262Y0237870D03*
X0593841Y0237870D03*
X0596380Y0237870D03*
X0598959Y0237870D03*
X0601498Y0237870D03*
X0601498Y0260845D03*
X0598959Y0260845D03*
X0596380Y0260845D03*
X0593841Y0260845D03*
X0591262Y0260845D03*
X0588723Y0260845D03*
X0586144Y0260845D03*
D16*
X0652371Y0275911D02*
X0663621Y0275911D01*
X0663621Y0223942D02*
X0652371Y0223942D01*
D17*
X0657996Y0249927D03*
D18*
X0619807Y0271580D03*
X0600909Y0271580D03*
D19*
X0618295Y0244178D03*
X0610295Y0240378D03*
X0618295Y0236578D03*
X0494673Y0181916D03*
X0486673Y0178116D03*
X0486673Y0185716D03*
D20*
X0510188Y0219748D03*
X0510188Y0222248D03*
X0510188Y0224748D03*
X0510188Y0227248D03*
X0528439Y0227248D03*
X0528439Y0224748D03*
X0528439Y0222248D03*
X0528439Y0219748D03*
D21*
X0439295Y0183785D03*
X0623857Y0252661D03*
X0612299Y0375167D03*
D22*
X0378988Y0309581D03*
X0375248Y0309581D03*
X0371508Y0309581D03*
X0371508Y0299295D03*
X0375238Y0299295D03*
X0378988Y0299295D03*
X0275205Y0164416D03*
X0267724Y0164416D03*
X0267724Y0154918D03*
X0271465Y0154918D03*
X0275205Y0154918D03*
X0339386Y0077270D03*
X0343126Y0077270D03*
X0346866Y0077270D03*
X0346866Y0066984D03*
X0343116Y0066984D03*
X0339386Y0066984D03*
D23*
X0412949Y0061694D03*
X0587524Y0115990D03*
X0512799Y0199533D03*
X0651809Y0013136D03*
X0574102Y0390840D03*
D24*
X0584102Y0390840D03*
X0594102Y0390840D03*
X0604102Y0390840D03*
X0614102Y0390840D03*
X0624102Y0390840D03*
X0552799Y0199533D03*
X0542799Y0199533D03*
X0532799Y0199533D03*
X0522799Y0199533D03*
X0587524Y0175990D03*
X0587524Y0165990D03*
X0587524Y0155990D03*
X0587524Y0145990D03*
X0587524Y0135990D03*
X0587524Y0125990D03*
X0641809Y0083136D03*
X0651809Y0083136D03*
X0651809Y0073136D03*
X0641809Y0073136D03*
X0641809Y0063136D03*
X0651809Y0063136D03*
X0651809Y0053136D03*
X0641809Y0053136D03*
X0641809Y0043136D03*
X0651809Y0043136D03*
X0651809Y0033136D03*
X0641809Y0033136D03*
X0641809Y0023136D03*
X0651809Y0023136D03*
X0641809Y0013136D03*
X0402949Y0061694D03*
X0392949Y0061694D03*
X0382949Y0061694D03*
X0372949Y0061694D03*
D25*
X0024138Y0012131D03*
X0457146Y0107913D03*
X0469201Y0147639D03*
X0471776Y0177486D03*
X0510502Y0187257D03*
X0516252Y0187257D03*
X0524138Y0187328D03*
X0565882Y0174257D03*
X0613114Y0224336D03*
X0561882Y0084257D03*
X0673744Y0012131D03*
X0650122Y0397958D03*
X0071382Y0397958D03*
D26*
X0510674Y0249343D03*
X0510674Y0246784D03*
X0510674Y0244225D03*
X0510674Y0241666D03*
X0527308Y0241666D03*
X0527308Y0244225D03*
X0527308Y0246784D03*
X0527308Y0249343D03*
D27*
X0543429Y0156620D03*
X0543429Y0155045D03*
X0543429Y0153470D03*
X0543429Y0151895D03*
X0543429Y0150320D03*
X0543429Y0148745D03*
X0543429Y0147171D03*
X0543429Y0145596D03*
X0543429Y0144021D03*
X0543429Y0142446D03*
X0543429Y0140871D03*
X0543429Y0139297D03*
X0543429Y0137722D03*
X0543429Y0136147D03*
X0543429Y0134572D03*
X0543429Y0132997D03*
X0543429Y0131423D03*
X0543429Y0129848D03*
X0543429Y0128273D03*
X0543429Y0126698D03*
X0543429Y0125123D03*
X0543429Y0123549D03*
X0543429Y0121974D03*
X0543429Y0120399D03*
X0543429Y0118824D03*
X0491461Y0118824D03*
X0491461Y0120399D03*
X0491461Y0121974D03*
X0491461Y0123549D03*
X0491461Y0125123D03*
X0491461Y0126698D03*
X0491461Y0128273D03*
X0491461Y0129848D03*
X0491461Y0131423D03*
X0491461Y0132997D03*
X0491461Y0134572D03*
X0491461Y0136147D03*
X0491461Y0137722D03*
X0491461Y0139297D03*
X0491461Y0140871D03*
X0491461Y0142446D03*
X0491461Y0144021D03*
X0491461Y0145596D03*
X0491461Y0147171D03*
X0491461Y0148745D03*
X0491461Y0150320D03*
X0491461Y0151895D03*
X0491461Y0153470D03*
X0491461Y0155045D03*
X0491461Y0156620D03*
D28*
X0498547Y0163706D03*
X0500122Y0163706D03*
X0501697Y0163706D03*
X0503272Y0163706D03*
X0504846Y0163706D03*
X0506421Y0163706D03*
X0507996Y0163706D03*
X0509571Y0163706D03*
X0511146Y0163706D03*
X0512720Y0163706D03*
X0514295Y0163706D03*
X0515870Y0163706D03*
X0517445Y0163706D03*
X0519020Y0163706D03*
X0520594Y0163706D03*
X0522169Y0163706D03*
X0523744Y0163706D03*
X0525319Y0163706D03*
X0526894Y0163706D03*
X0528469Y0163706D03*
X0530043Y0163706D03*
X0531618Y0163706D03*
X0533193Y0163706D03*
X0534768Y0163706D03*
X0536343Y0163706D03*
X0536343Y0111738D03*
X0534768Y0111738D03*
X0533193Y0111738D03*
X0531618Y0111738D03*
X0530043Y0111738D03*
X0528469Y0111738D03*
X0526894Y0111738D03*
X0525319Y0111738D03*
X0523744Y0111738D03*
X0522169Y0111738D03*
X0520594Y0111738D03*
X0519020Y0111738D03*
X0517445Y0111738D03*
X0515870Y0111738D03*
X0514295Y0111738D03*
X0512720Y0111738D03*
X0511146Y0111738D03*
X0509571Y0111738D03*
X0507996Y0111738D03*
X0506421Y0111738D03*
X0504846Y0111738D03*
X0503272Y0111738D03*
X0501697Y0111738D03*
X0500122Y0111738D03*
X0498547Y0111738D03*
D29*
X0464295Y0132997D03*
X0449335Y0132997D03*
X0449335Y0142446D03*
X0464295Y0142446D03*
X0191614Y0104423D03*
X0191614Y0086470D03*
D30*
X0669019Y0029408D03*
X0170272Y0387675D03*
D31*
X0162398Y0387675D03*
X0154524Y0387675D03*
X0146650Y0387675D03*
X0138776Y0387675D03*
X0138776Y0395549D03*
X0146650Y0395549D03*
X0154524Y0395549D03*
X0162398Y0395549D03*
X0170272Y0395549D03*
X0669019Y0060905D03*
X0676893Y0060905D03*
X0676893Y0053031D03*
X0669019Y0053031D03*
X0669019Y0045157D03*
X0676893Y0045157D03*
X0676893Y0037282D03*
X0676893Y0029408D03*
X0669019Y0037282D03*
D32*
X0363217Y0061647D03*
X0360067Y0061647D03*
X0356917Y0061647D03*
X0353768Y0061647D03*
X0353768Y0068734D03*
X0356917Y0068734D03*
X0360067Y0068734D03*
X0363217Y0068734D03*
X0337106Y0084214D03*
X0333957Y0084214D03*
X0330807Y0084214D03*
X0327657Y0084214D03*
X0327657Y0091301D03*
X0330807Y0091301D03*
X0333957Y0091301D03*
X0337106Y0091301D03*
D33*
X0627248Y0105832D03*
X0637248Y0105832D03*
X0647248Y0105832D03*
X0657248Y0105832D03*
X0657248Y0205832D03*
X0647248Y0205832D03*
X0637248Y0205832D03*
X0627248Y0205832D03*
D34*
X0509990Y0344218D03*
X0509990Y0347948D03*
X0509990Y0351698D03*
X0499704Y0351698D03*
X0499704Y0347958D03*
X0499704Y0344218D03*
X0292025Y0089997D03*
X0292025Y0086247D03*
X0292025Y0082517D03*
X0281739Y0082517D03*
X0281739Y0086257D03*
X0281739Y0089997D03*
D35*
X0298839Y0088832D03*
X0298839Y0085682D03*
X0298839Y0082533D03*
X0298839Y0077982D03*
X0298839Y0074832D03*
X0298839Y0071682D03*
X0298839Y0068533D03*
X0305925Y0068533D03*
X0305925Y0071682D03*
X0305925Y0074832D03*
X0305925Y0077982D03*
X0305925Y0082533D03*
X0305925Y0085682D03*
X0305925Y0088832D03*
X0305925Y0091982D03*
X0298839Y0091982D03*
D36*
X0452091Y0099139D03*
X0452091Y0103076D03*
D37*
X0456421Y0103667D03*
X0456421Y0101108D03*
X0456421Y0098549D03*
X0447760Y0098549D03*
X0447760Y0101108D03*
X0447760Y0103667D03*
D38*
X0253812Y0122151D03*
X0253812Y0127151D03*
X0253812Y0132151D03*
X0253812Y0137151D03*
X0232212Y0137151D03*
X0232212Y0132151D03*
X0232212Y0127151D03*
X0232212Y0122151D03*
X0236543Y0158820D03*
X0236543Y0163820D03*
X0236543Y0168820D03*
X0236543Y0173820D03*
X0258143Y0173820D03*
X0258143Y0168820D03*
X0258143Y0163820D03*
X0258143Y0158820D03*
X0541684Y0217230D03*
X0541684Y0222230D03*
X0541684Y0227230D03*
X0541684Y0232230D03*
X0563284Y0232230D03*
X0563284Y0227230D03*
X0563284Y0222230D03*
X0563284Y0217230D03*
X0465505Y0292702D03*
X0465505Y0297702D03*
X0465505Y0302702D03*
X0465505Y0307702D03*
X0443905Y0307702D03*
X0443905Y0302702D03*
X0443905Y0297702D03*
X0443905Y0292702D03*
D39*
X0407839Y0305737D03*
X0396315Y0305737D03*
X0396315Y0317337D03*
X0407839Y0317337D03*
X0193382Y0197057D03*
X0193382Y0185457D03*
X0224304Y0184538D03*
X0224304Y0172938D03*
D40*
X0427126Y0293940D03*
X0435326Y0293940D03*
X0435326Y0301840D03*
D41*
X0427126Y0301040D03*
D42*
X0426402Y0343273D03*
X0416402Y0343273D03*
X0406402Y0343273D03*
X0411402Y0353273D03*
X0421402Y0353273D03*
X0401402Y0353273D03*
X0335850Y0343273D03*
X0325850Y0343273D03*
X0315850Y0343273D03*
X0310850Y0353273D03*
X0320850Y0353273D03*
X0330850Y0353273D03*
D43*
X0362831Y0308138D03*
X0362831Y0300738D03*
X0223783Y0261823D03*
X0223783Y0254423D03*
X0126161Y0161083D03*
X0126161Y0153683D03*
X0151815Y0135260D03*
X0151815Y0127860D03*
X0253579Y0115184D03*
X0253579Y0107784D03*
X0558569Y0342651D03*
X0558569Y0350051D03*
X0567624Y0350051D03*
X0567624Y0342651D03*
D44*
X0327134Y0223320D03*
X0327134Y0221352D03*
X0327134Y0219383D03*
X0327134Y0217415D03*
X0315520Y0217415D03*
X0315520Y0219383D03*
X0315520Y0221352D03*
X0315520Y0223320D03*
X0348441Y0142005D03*
X0348441Y0140037D03*
X0348441Y0138068D03*
X0348441Y0136100D03*
X0360055Y0136100D03*
X0360055Y0138068D03*
X0360055Y0140037D03*
X0360055Y0142005D03*
D45*
X0357201Y0144860D03*
X0355232Y0144860D03*
X0353264Y0144860D03*
X0351295Y0144860D03*
X0351295Y0133245D03*
X0353264Y0133245D03*
X0355232Y0133245D03*
X0357201Y0133245D03*
X0324280Y0214560D03*
X0322311Y0214560D03*
X0320343Y0214560D03*
X0318374Y0214560D03*
X0318374Y0226175D03*
X0320343Y0226175D03*
X0322311Y0226175D03*
X0324280Y0226175D03*
D46*
X0321327Y0220368D03*
X0354248Y0139053D03*
D47*
X0419033Y0218954D03*
X0419033Y0259954D03*
D48*
X0483283Y0239454D03*
D49*
X0343177Y0225092D03*
X0336484Y0225092D03*
X0336287Y0234344D03*
X0336287Y0241037D03*
X0326642Y0234147D03*
X0319949Y0234147D03*
X0306760Y0233950D03*
X0306760Y0240643D03*
X0309681Y0215923D03*
X0302988Y0215923D03*
X0303083Y0206824D03*
X0309776Y0206824D03*
X0317252Y0204604D03*
X0317252Y0197911D03*
X0327429Y0197927D03*
X0334122Y0197927D03*
X0326295Y0175864D03*
X0326295Y0169171D03*
X0323933Y0160116D03*
X0332791Y0160312D03*
X0339484Y0160312D03*
X0350705Y0161297D03*
X0350705Y0154604D03*
X0358972Y0154604D03*
X0358972Y0161297D03*
X0346374Y0169171D03*
X0346374Y0175864D03*
X0338697Y0152438D03*
X0332004Y0152438D03*
X0323933Y0153423D03*
X0332004Y0145745D03*
X0338697Y0145745D03*
X0379445Y0137675D03*
X0379445Y0130982D03*
X0388894Y0130982D03*
X0388894Y0137675D03*
X0226370Y0158749D03*
X0226370Y0165442D03*
X0152193Y0296557D03*
X0145500Y0296557D03*
X0152390Y0304234D03*
X0152390Y0310927D03*
X0220421Y0341328D03*
X0227114Y0341328D03*
X0240476Y0339375D03*
X0240476Y0346068D03*
X0248350Y0346068D03*
X0248350Y0339375D03*
X0261343Y0337801D03*
X0261343Y0344494D03*
X0287720Y0369297D03*
X0287720Y0375990D03*
X0273477Y0392322D03*
X0266784Y0392322D03*
X0259577Y0392330D03*
X0252884Y0392330D03*
D50*
X0245988Y0392131D03*
X0245988Y0385438D03*
X0238902Y0385438D03*
X0238902Y0392131D03*
X0212445Y0371848D03*
X0203390Y0371848D03*
X0203390Y0365155D03*
X0212445Y0365155D03*
X0213594Y0340950D03*
X0213594Y0334257D03*
X0220421Y0333454D03*
X0227114Y0333454D03*
X0248941Y0328549D03*
X0255634Y0328549D03*
X0263508Y0328549D03*
X0270201Y0328549D03*
X0270201Y0319887D03*
X0263508Y0319887D03*
X0255634Y0319887D03*
X0248941Y0319887D03*
X0166941Y0317816D03*
X0160248Y0317816D03*
X0151996Y0319194D03*
X0144516Y0319194D03*
X0137035Y0319194D03*
X0129555Y0319194D03*
X0129555Y0325887D03*
X0137035Y0325887D03*
X0144516Y0325887D03*
X0151996Y0325887D03*
X0160248Y0326084D03*
X0166941Y0326084D03*
X0144516Y0310927D03*
X0144516Y0304234D03*
X0145500Y0289076D03*
X0152193Y0289076D03*
X0152193Y0279627D03*
X0145500Y0279627D03*
X0327429Y0206194D03*
X0334122Y0206194D03*
X0341799Y0205604D03*
X0341799Y0198911D03*
X0307217Y0197572D03*
X0307217Y0190879D03*
X0250157Y0183781D03*
X0243465Y0183781D03*
X0243921Y0149753D03*
X0250614Y0149753D03*
X0231004Y0149336D03*
X0224311Y0149336D03*
X0323933Y0145942D03*
X0323933Y0139249D03*
X0332004Y0138659D03*
X0338697Y0138659D03*
X0338303Y0130391D03*
X0331610Y0130391D03*
X0370783Y0130982D03*
X0370783Y0137675D03*
X0370783Y0144761D03*
X0379445Y0144761D03*
X0379445Y0151454D03*
X0370783Y0151454D03*
X0343177Y0217612D03*
X0336484Y0217612D03*
X0371543Y0244332D03*
X0378236Y0244332D03*
X0378236Y0252600D03*
X0371543Y0252600D03*
X0380205Y0261773D03*
X0386898Y0261773D03*
X0394772Y0261379D03*
X0401465Y0261379D03*
X0287720Y0384257D03*
X0280240Y0384257D03*
X0280240Y0390950D03*
X0287720Y0390950D03*
D51*
X0387980Y0249765D03*
D52*
X0393787Y0247206D03*
D53*
X0387980Y0245927D03*
X0387980Y0243368D03*
X0399594Y0243368D03*
X0399594Y0245927D03*
X0399594Y0248486D03*
X0399594Y0251045D03*
D54*
X0396189Y0253407D03*
X0391465Y0253407D03*
X0391386Y0241005D03*
X0396110Y0241005D03*
D55*
X0368441Y0261466D03*
X0356236Y0261466D03*
X0340638Y0264490D03*
X0356236Y0272490D03*
X0368441Y0272490D03*
X0340638Y0253466D03*
X0301366Y0139812D03*
X0290189Y0139919D03*
X0290189Y0128895D03*
X0301366Y0128789D03*
D56*
X0298644Y0192477D03*
X0287620Y0192477D03*
X0315815Y0264856D03*
X0326839Y0264856D03*
X0225736Y0322824D03*
X0214713Y0322824D03*
X0215500Y0351171D03*
X0226524Y0351171D03*
D57*
X0371768Y0163954D03*
D58*
X0374327Y0169761D03*
D59*
X0375606Y0163954D03*
X0378165Y0163954D03*
X0378165Y0175568D03*
X0375606Y0175568D03*
X0373047Y0175568D03*
X0370488Y0175568D03*
D60*
X0368126Y0172163D03*
X0368126Y0167438D03*
X0380528Y0167360D03*
X0380528Y0172084D03*
D61*
X0407791Y0171730D03*
X0418815Y0171730D03*
X0418815Y0154801D03*
X0407791Y0154801D03*
D62*
X0396965Y0206301D03*
X0358776Y0206301D03*
D63*
X0181382Y0203269D03*
X0181382Y0192245D03*
X0280862Y0332596D03*
X0280862Y0343620D03*
D64*
X0231658Y0289226D03*
X0219058Y0289226D03*
X0209611Y0289226D03*
X0197011Y0289226D03*
X0288350Y0269934D03*
X0300950Y0269934D03*
X0215123Y0235832D03*
X0202523Y0235832D03*
X0476106Y0367643D03*
X0488706Y0367643D03*
D65*
X0276185Y0223086D03*
X0276185Y0210486D03*
D66*
X0288732Y0211771D03*
X0288750Y0229171D03*
X0137543Y0162759D03*
X0137525Y0145359D03*
D67*
X0220512Y0075987D03*
X0086299Y0307423D03*
X0212882Y0390757D03*
X0088744Y0394340D03*
X0459020Y0388116D03*
D68*
X0469020Y0388116D03*
X0202882Y0390757D03*
X0098744Y0394340D03*
X0086299Y0317423D03*
X0220512Y0105987D03*
X0220512Y0095987D03*
X0220512Y0085987D03*
D69*
X0212106Y0151501D03*
X0212106Y0154060D03*
X0212106Y0156620D03*
X0204626Y0156620D03*
X0204626Y0154060D03*
X0204626Y0151501D03*
D70*
X0158480Y0155316D03*
D71*
X0149504Y0185238D03*
X0167457Y0185238D03*
D72*
X0161693Y0095446D03*
D73*
X0169171Y0116344D03*
X0151771Y0116362D03*
X0145983Y0201362D03*
X0163383Y0201344D03*
X0286731Y0251442D03*
X0304131Y0251424D03*
D74*
X0314956Y0255458D03*
X0322356Y0255458D03*
X0322356Y0246712D03*
X0314956Y0246712D03*
X0274706Y0191670D03*
X0267306Y0191670D03*
X0267306Y0183516D03*
X0274706Y0183516D03*
X0274665Y0175446D03*
X0267265Y0175446D03*
X0167031Y0127190D03*
X0159631Y0127190D03*
X0125885Y0145037D03*
X0118485Y0145037D03*
D75*
X0285783Y0149891D03*
X0285783Y0152450D03*
X0285783Y0155009D03*
X0285783Y0157568D03*
X0308815Y0157568D03*
X0308815Y0155009D03*
X0308815Y0152450D03*
X0308815Y0149891D03*
D76*
X0241263Y0255305D03*
X0233663Y0255305D03*
X0237463Y0263305D03*
D77*
X0216088Y0269768D03*
X0216088Y0272327D03*
X0216088Y0274886D03*
X0216088Y0277445D03*
X0199454Y0277445D03*
X0199454Y0274886D03*
X0199454Y0272327D03*
X0199454Y0269768D03*
D78*
X0246224Y0282927D03*
X0269846Y0282927D03*
D79*
X0287950Y0287257D03*
X0301350Y0287257D03*
D80*
X0269846Y0261667D03*
X0252130Y0261667D03*
X0382370Y0272009D03*
X0400087Y0272009D03*
X0491461Y0329454D03*
X0509177Y0329454D03*
D81*
X0392831Y0172911D03*
X0392831Y0155194D03*
D82*
X0490280Y0340084D03*
X0490280Y0353470D03*
X0498547Y0361344D03*
X0498547Y0374730D03*
D83*
X0466264Y0344808D03*
X0466264Y0318824D03*
D84*
X0279157Y0354533D03*
X0276598Y0354533D03*
X0274039Y0354533D03*
X0271480Y0354533D03*
X0268921Y0354533D03*
X0266362Y0354533D03*
X0263803Y0354533D03*
X0261244Y0354533D03*
X0258685Y0354533D03*
X0256126Y0354533D03*
X0253567Y0354533D03*
X0251008Y0354533D03*
X0248449Y0354533D03*
X0245890Y0354533D03*
X0245890Y0376580D03*
X0248449Y0376580D03*
X0251008Y0376580D03*
X0253567Y0376580D03*
X0256126Y0376580D03*
X0258685Y0376580D03*
X0261244Y0376580D03*
X0263803Y0376580D03*
X0266362Y0376580D03*
X0268921Y0376580D03*
X0271480Y0376580D03*
X0274039Y0376580D03*
X0276598Y0376580D03*
X0279157Y0376580D03*
D85*
X0262524Y0365557D03*
D86*
X0236728Y0369013D03*
X0220035Y0369013D03*
X0195138Y0369013D03*
X0178445Y0369013D03*
D87*
X0182319Y0344478D03*
X0202004Y0344478D03*
X0202004Y0314557D03*
X0182319Y0314557D03*
D88*
X0167941Y0307336D03*
X0164201Y0307336D03*
X0160461Y0307336D03*
X0160461Y0297100D03*
X0164201Y0297100D03*
X0167941Y0297100D03*
D89*
X0163114Y0287112D03*
X0159374Y0278450D03*
X0166854Y0278450D03*
D90*
X0577949Y0335994D03*
X0580508Y0335994D03*
X0583067Y0335994D03*
X0585626Y0335994D03*
X0588185Y0335994D03*
X0590744Y0335994D03*
X0593303Y0335994D03*
X0595862Y0335994D03*
X0598421Y0335994D03*
X0600980Y0335994D03*
X0603539Y0335994D03*
X0606098Y0335994D03*
X0608657Y0335994D03*
X0611217Y0335994D03*
X0611217Y0363159D03*
X0608657Y0363159D03*
X0606098Y0363159D03*
X0603539Y0363159D03*
X0600980Y0363159D03*
X0598421Y0363159D03*
X0595862Y0363159D03*
X0593303Y0363159D03*
X0590744Y0363159D03*
X0588185Y0363159D03*
X0585626Y0363159D03*
X0583067Y0363159D03*
X0580508Y0363159D03*
X0577949Y0363159D03*
D91*
X0431815Y0183785D03*
D92*
X0297127Y0308234D03*
X0285527Y0308234D03*
D93*
X0317941Y0287352D03*
X0328965Y0287352D03*
X0237034Y0303508D03*
X0202882Y0225757D03*
X0203282Y0206157D03*
X0107685Y0139726D03*
X0410634Y0195564D03*
D94*
X0239295Y0325399D03*
D95*
X0110420Y0082108D03*
D96*
X0110420Y0112108D03*
D97*
X0099150Y0156317D03*
X0081827Y0156317D03*
D98*
X0080199Y0140145D03*
X0097799Y0140145D03*
D99*
X0492799Y0390242D03*
X0502799Y0390242D03*
X0512799Y0390242D03*
X0522799Y0390242D03*
X0532799Y0390242D03*
X0542799Y0390242D03*
X0552799Y0390242D03*
D100*
X0672667Y0392812D03*
X0368626Y0345793D03*
X0123657Y0369291D03*
X0368736Y0111383D03*
X0672622Y0084850D03*
D101*
X0440898Y0030415D03*
X0436961Y0030415D03*
X0433024Y0030415D03*
X0429087Y0030415D03*
X0425150Y0030415D03*
X0421213Y0030415D03*
X0417276Y0030415D03*
X0413339Y0030415D03*
X0409402Y0030415D03*
X0405465Y0030415D03*
D102*
X0395228Y0020966D03*
X0451134Y0020966D03*
D103*
X0648882Y0328057D03*
X0648882Y0375458D03*
D104*
X0638213Y0356679D03*
X0630339Y0356679D03*
X0630339Y0346836D03*
X0638213Y0346836D03*
D105*
X0089654Y0258375D03*
X0068000Y0258375D03*
X0068000Y0241840D03*
X0089654Y0241840D03*
D106*
X0163071Y0236952D03*
D107*
X0143071Y0236952D03*
D108*
X0109087Y0243320D03*
X0109087Y0222060D03*
D109*
X0214781Y0219005D03*
X0214781Y0214005D03*
X0214781Y0209005D03*
X0214781Y0204005D03*
X0235648Y0204005D03*
X0235648Y0209005D03*
X0235648Y0214005D03*
X0235648Y0219005D03*
D110*
X0059665Y0224257D03*
X0059665Y0210478D03*
X0059665Y0196698D03*
X0027382Y0196698D03*
X0027382Y0210478D03*
X0027382Y0224257D03*
X0027382Y0182919D03*
X0027382Y0169139D03*
X0027382Y0155360D03*
X0059665Y0155360D03*
X0059665Y0169139D03*
X0059665Y0182919D03*
X0059665Y0141580D03*
X0059665Y0127801D03*
X0059665Y0114021D03*
X0027382Y0114021D03*
X0027382Y0127801D03*
X0027382Y0141580D03*
X0027382Y0100242D03*
X0027382Y0086462D03*
X0027382Y0072682D03*
X0059665Y0072682D03*
X0059665Y0086462D03*
X0059665Y0100242D03*
X0059165Y0047257D03*
X0059165Y0033478D03*
X0026882Y0033478D03*
X0026882Y0047257D03*
D111*
X0051205Y0284757D03*
X0051205Y0294757D03*
X0051205Y0304757D03*
X0051205Y0314757D03*
X0051205Y0324757D03*
X0051205Y0334757D03*
X0051205Y0344757D03*
X0051205Y0354757D03*
X0051205Y0364757D03*
X0051205Y0374757D03*
X0051205Y0384757D03*
X0051205Y0394757D03*
D112*
X0030929Y0404757D03*
X0030929Y0274757D03*
D113*
X0090282Y0043680D03*
X0100282Y0043680D03*
X0110282Y0043680D03*
X0120282Y0043680D03*
X0130282Y0043680D03*
X0140282Y0043680D03*
X0150282Y0043680D03*
X0160282Y0043680D03*
X0170282Y0043680D03*
X0180282Y0043680D03*
X0190282Y0043680D03*
X0200282Y0043680D03*
X0231982Y0043680D03*
X0241982Y0043680D03*
X0251982Y0043680D03*
X0261982Y0043680D03*
X0271982Y0043680D03*
X0281982Y0043680D03*
X0291982Y0043680D03*
X0301982Y0043680D03*
X0311982Y0043680D03*
X0321982Y0043680D03*
X0331982Y0043680D03*
X0341982Y0043680D03*
X0507982Y0042780D03*
X0517982Y0042780D03*
X0527982Y0042780D03*
X0537982Y0042780D03*
X0547982Y0042780D03*
X0557982Y0042780D03*
X0567982Y0042780D03*
X0577982Y0042780D03*
X0587982Y0042780D03*
X0597982Y0042780D03*
X0607982Y0042780D03*
X0617982Y0042780D03*
D114*
X0627982Y0022505D03*
X0497982Y0022505D03*
X0351982Y0023405D03*
X0221982Y0023405D03*
X0210282Y0023405D03*
X0080282Y0023405D03*
D115*
X0600382Y0116257D03*
X0601382Y0126257D03*
X0600382Y0136257D03*
X0601382Y0146257D03*
X0600382Y0156257D03*
X0601382Y0166257D03*
X0600382Y0176257D03*
X0601382Y0186257D03*
D116*
X0594652Y0188557D02*
X0594652Y0113957D01*
X0591052Y0110357D01*
X0573652Y0110357D01*
X0570461Y0110309D02*
X0575252Y0105518D01*
X0575252Y0085757D01*
X0567261Y0082357D02*
X0552861Y0067957D01*
X0506385Y0067957D01*
X0504712Y0066284D01*
X0486652Y0066284D01*
X0485883Y0067053D01*
X0481815Y0067053D01*
X0481815Y0069021D02*
X0478488Y0069021D01*
X0475252Y0072257D01*
X0471472Y0068037D02*
X0471382Y0068037D01*
X0471472Y0068037D02*
X0475252Y0064257D01*
X0481815Y0065084D02*
X0505209Y0065084D01*
X0506882Y0066757D01*
X0553358Y0066757D01*
X0567758Y0081157D01*
X0614652Y0081157D01*
X0621752Y0088257D01*
X0621752Y0110757D01*
X0624252Y0113257D01*
X0645502Y0113257D01*
X0647248Y0111511D01*
X0647248Y0105832D01*
X0637248Y0105832D02*
X0637248Y0103761D01*
X0637248Y0101123D01*
X0635382Y0099257D01*
X0631452Y0099257D01*
X0622952Y0090757D01*
X0622952Y0087760D01*
X0615149Y0079957D01*
X0568255Y0079957D01*
X0553555Y0065257D01*
X0509982Y0065257D01*
X0507840Y0063116D01*
X0492371Y0063116D01*
X0491982Y0063116D01*
X0481815Y0063116D01*
X0481815Y0061147D02*
X0508142Y0061147D01*
X0510752Y0063757D01*
X0553752Y0063757D01*
X0568752Y0078757D01*
X0615646Y0078757D01*
X0624152Y0087263D01*
X0624152Y0090260D01*
X0631949Y0098057D01*
X0635879Y0098057D01*
X0636780Y0098959D01*
X0655549Y0098959D01*
X0657248Y0100657D01*
X0657248Y0105832D01*
X0637252Y0103757D02*
X0637248Y0103761D01*
X0620002Y0111007D02*
X0637248Y0128253D01*
X0637248Y0205832D01*
X0657248Y0205832D02*
X0657248Y0211253D01*
X0657382Y0212257D01*
X0604403Y0229454D02*
X0604403Y0232406D01*
X0603652Y0233157D01*
X0602452Y0233157D01*
X0601552Y0234057D01*
X0601552Y0237816D01*
X0601498Y0237870D01*
X0601498Y0241204D01*
X0602452Y0242157D01*
X0605452Y0242157D01*
X0607231Y0240378D01*
X0610295Y0240378D01*
X0618295Y0244178D02*
X0621672Y0244178D01*
X0623752Y0246257D01*
X0601498Y0260845D02*
X0601498Y0264604D01*
X0603052Y0266157D01*
X0607852Y0266157D01*
X0613275Y0271580D01*
X0619807Y0271580D01*
X0600909Y0271580D02*
X0600909Y0266115D01*
X0598959Y0264164D01*
X0598959Y0260845D01*
X0591262Y0260845D02*
X0591262Y0252968D01*
X0586952Y0248657D01*
X0586952Y0246357D01*
X0586252Y0250157D02*
X0588723Y0252628D01*
X0588723Y0260845D01*
X0588723Y0265486D01*
X0587474Y0266735D01*
X0587474Y0269218D01*
X0564252Y0261357D02*
X0536652Y0288957D01*
X0536652Y0303057D01*
X0512452Y0293257D02*
X0512452Y0289957D01*
X0510252Y0287757D01*
X0510252Y0274754D01*
X0516552Y0268454D01*
X0516552Y0263260D01*
X0510649Y0257357D01*
X0509349Y0257357D01*
X0506252Y0254260D01*
X0506252Y0239860D01*
X0497152Y0230760D01*
X0497152Y0223057D01*
X0497661Y0222548D01*
X0500398Y0222548D01*
X0502852Y0220094D01*
X0502852Y0200657D01*
X0516252Y0187257D01*
X0514414Y0185419D01*
X0512720Y0185419D01*
X0511082Y0183781D01*
X0511082Y0179364D01*
X0511243Y0179203D01*
X0511243Y0176311D01*
X0511082Y0176151D01*
X0511082Y0169254D01*
X0512720Y0167616D01*
X0512720Y0163706D01*
X0511146Y0163706D02*
X0511146Y0167494D01*
X0509882Y0168757D01*
X0509882Y0176648D01*
X0510043Y0176809D01*
X0510043Y0178706D01*
X0509882Y0178867D01*
X0509882Y0186637D01*
X0510502Y0187257D01*
X0501243Y0196517D01*
X0501243Y0220006D01*
X0499901Y0221348D01*
X0497061Y0221348D01*
X0495952Y0222457D01*
X0495952Y0231257D01*
X0505052Y0240357D01*
X0505052Y0254757D01*
X0508852Y0258557D01*
X0510152Y0258557D01*
X0515352Y0263757D01*
X0515352Y0267957D01*
X0509052Y0274257D01*
X0509052Y0293057D01*
X0492352Y0282757D02*
X0489952Y0285157D01*
X0488552Y0285157D02*
X0488552Y0279957D01*
X0502252Y0266257D01*
X0509352Y0266257D01*
X0494752Y0268757D02*
X0494752Y0209627D01*
X0491082Y0205957D01*
X0477885Y0205957D01*
X0475682Y0203754D01*
X0475682Y0202187D01*
X0459552Y0186057D01*
X0457813Y0186057D01*
X0456461Y0184706D01*
X0456461Y0182967D01*
X0447852Y0174357D01*
X0436058Y0174357D01*
X0430652Y0168951D01*
X0430652Y0153894D01*
X0429561Y0152803D01*
X0429561Y0149409D01*
X0433252Y0145718D01*
X0433252Y0134957D01*
X0435352Y0132857D01*
X0433152Y0130057D02*
X0432052Y0131157D01*
X0432052Y0145221D01*
X0428361Y0148911D01*
X0428361Y0153300D01*
X0429452Y0154391D01*
X0429452Y0169449D01*
X0435561Y0175557D01*
X0447355Y0175557D01*
X0455261Y0183464D01*
X0455261Y0185203D01*
X0457316Y0187257D01*
X0459055Y0187257D01*
X0474482Y0202684D01*
X0474482Y0204251D01*
X0477388Y0207157D01*
X0490585Y0207157D01*
X0493552Y0210124D01*
X0493552Y0262957D01*
X0487752Y0268757D01*
X0487252Y0268757D01*
X0494752Y0268757D02*
X0487152Y0276357D01*
X0487152Y0285257D01*
X0492352Y0282757D02*
X0494252Y0282757D01*
X0480252Y0287757D02*
X0478252Y0287757D01*
X0470752Y0280257D01*
X0450252Y0280257D01*
X0448361Y0278367D01*
X0418103Y0278367D01*
X0413913Y0282557D01*
X0400016Y0282557D01*
X0389284Y0293290D01*
X0376692Y0293290D01*
X0375238Y0294744D01*
X0380803Y0290648D02*
X0372613Y0282457D01*
X0340749Y0282457D01*
X0337101Y0286106D01*
X0337101Y0290606D01*
X0331749Y0295957D01*
X0324249Y0295957D01*
X0318749Y0301457D01*
X0301052Y0301457D01*
X0299552Y0302957D01*
X0281252Y0302957D01*
X0280052Y0304157D01*
X0280052Y0314757D01*
X0278952Y0315857D01*
X0264352Y0315857D01*
X0263508Y0316701D01*
X0263508Y0319887D01*
X0255652Y0325757D02*
X0255652Y0328531D01*
X0255634Y0328549D01*
X0255652Y0325757D02*
X0254652Y0324757D01*
X0253052Y0324757D01*
X0252252Y0323957D01*
X0252252Y0316657D01*
X0254252Y0314657D01*
X0277652Y0314657D01*
X0278852Y0313457D01*
X0278852Y0303660D01*
X0280755Y0301757D01*
X0298752Y0301757D01*
X0300252Y0300257D01*
X0318252Y0300257D01*
X0323752Y0294757D01*
X0331252Y0294757D01*
X0335752Y0290257D01*
X0335752Y0285757D01*
X0340252Y0281257D01*
X0374652Y0281257D01*
X0381752Y0288357D01*
X0381843Y0290648D02*
X0381852Y0290657D01*
X0384252Y0290657D01*
X0381843Y0290648D02*
X0380803Y0290648D01*
X0368311Y0286484D02*
X0363379Y0286484D01*
X0362352Y0285457D01*
X0383752Y0298257D02*
X0386013Y0298257D01*
X0400513Y0283757D01*
X0415952Y0283757D01*
X0407839Y0317337D02*
X0407839Y0321844D01*
X0409752Y0323757D01*
X0414752Y0323757D01*
X0416402Y0325407D01*
X0416402Y0343273D01*
X0416402Y0357108D01*
X0412752Y0360757D01*
X0329252Y0360757D01*
X0325850Y0357356D01*
X0325850Y0343273D01*
X0366874Y0323180D02*
X0371175Y0323180D01*
X0371252Y0323257D01*
X0371329Y0323180D01*
X0375748Y0323180D01*
X0396315Y0322320D02*
X0396315Y0317337D01*
X0396315Y0322320D02*
X0399252Y0325257D01*
X0409252Y0325257D01*
X0411402Y0327407D01*
X0411402Y0353273D01*
X0506352Y0350857D02*
X0506352Y0342557D01*
X0509177Y0339732D01*
X0509177Y0329454D01*
X0519463Y0330346D02*
X0521452Y0328357D01*
X0529752Y0328357D01*
X0531252Y0329857D01*
X0531252Y0359457D01*
X0529709Y0361000D01*
X0517839Y0361000D01*
X0517839Y0367200D02*
X0522052Y0367200D01*
X0527052Y0362200D01*
X0530207Y0362200D01*
X0532452Y0359954D01*
X0532452Y0329360D01*
X0523552Y0320460D01*
X0523452Y0264757D01*
X0525882Y0274257D02*
X0525882Y0320257D01*
X0534382Y0328757D01*
X0534382Y0362257D01*
X0522799Y0373840D01*
X0522799Y0390242D01*
X0584102Y0390840D02*
X0584102Y0376307D01*
X0585626Y0374783D01*
X0585626Y0363159D01*
X0600980Y0363159D02*
X0600980Y0353186D01*
X0600952Y0353157D01*
X0603539Y0354070D02*
X0603539Y0363159D01*
X0603539Y0372953D01*
X0603244Y0373248D01*
X0610380Y0373248D01*
X0612299Y0375167D01*
X0611952Y0370357D02*
X0608052Y0370357D01*
X0606098Y0368404D01*
X0606098Y0363159D01*
X0600980Y0363159D02*
X0600980Y0367829D01*
X0598882Y0369927D01*
X0598882Y0382257D01*
X0600382Y0383757D01*
X0607020Y0383757D01*
X0614102Y0390840D01*
X0610020Y0396757D02*
X0604102Y0390840D01*
X0610020Y0396757D02*
X0626882Y0396757D01*
X0629882Y0393757D01*
X0629882Y0386590D01*
X0611217Y0367925D01*
X0611217Y0363159D01*
X0611217Y0353422D01*
X0611152Y0353357D01*
X0604452Y0353157D02*
X0603539Y0354070D01*
X0616882Y0349407D02*
X0586380Y0349407D01*
X0579982Y0343009D01*
X0579982Y0339507D01*
X0580508Y0338981D01*
X0580508Y0335994D01*
X0583067Y0335994D02*
X0583067Y0331342D01*
X0583452Y0330957D01*
X0587496Y0327086D02*
X0588185Y0327775D01*
X0588185Y0335994D01*
X0590744Y0335994D02*
X0590744Y0332165D01*
X0593352Y0329557D01*
X0593352Y0327529D01*
X0593795Y0327086D01*
X0595862Y0335994D02*
X0595862Y0342507D01*
X0597503Y0344148D01*
X0599661Y0344148D01*
X0602052Y0341757D01*
X0598452Y0341857D02*
X0598421Y0341827D01*
X0598421Y0335994D01*
X0585883Y0350607D02*
X0578782Y0343506D01*
X0578782Y0339507D01*
X0577949Y0338674D01*
X0577949Y0335994D01*
X0567852Y0336157D02*
X0567852Y0342423D01*
X0567624Y0342651D01*
X0558569Y0342651D02*
X0558552Y0342634D01*
X0558552Y0335857D01*
X0585883Y0350607D02*
X0624882Y0350607D01*
X0625782Y0351507D01*
X0633882Y0351507D01*
X0638213Y0347177D01*
X0638213Y0346836D01*
X0630339Y0346836D02*
X0627453Y0346836D01*
X0624882Y0349407D01*
X0624178Y0349407D01*
X0624131Y0349405D01*
X0624084Y0349400D01*
X0624038Y0349390D01*
X0623993Y0349378D01*
X0623948Y0349361D01*
X0623906Y0349342D01*
X0623865Y0349319D01*
X0623825Y0349292D01*
X0623788Y0349263D01*
X0623754Y0349231D01*
X0623722Y0349197D01*
X0623693Y0349160D01*
X0623666Y0349120D01*
X0623643Y0349079D01*
X0623624Y0349037D01*
X0623607Y0348992D01*
X0623595Y0348947D01*
X0623585Y0348901D01*
X0623580Y0348854D01*
X0623578Y0348807D01*
X0623578Y0347587D01*
X0623576Y0347540D01*
X0623571Y0347493D01*
X0623561Y0347447D01*
X0623549Y0347402D01*
X0623532Y0347357D01*
X0623513Y0347315D01*
X0623490Y0347274D01*
X0623463Y0347234D01*
X0623434Y0347197D01*
X0623402Y0347163D01*
X0623368Y0347131D01*
X0623331Y0347102D01*
X0623291Y0347075D01*
X0623250Y0347052D01*
X0623208Y0347033D01*
X0623163Y0347016D01*
X0623118Y0347004D01*
X0623072Y0346994D01*
X0623025Y0346989D01*
X0622978Y0346987D01*
X0622959Y0346987D01*
X0622912Y0346989D01*
X0622865Y0346994D01*
X0622819Y0347004D01*
X0622774Y0347016D01*
X0622729Y0347033D01*
X0622687Y0347052D01*
X0622646Y0347075D01*
X0622606Y0347102D01*
X0622569Y0347131D01*
X0622535Y0347163D01*
X0622503Y0347197D01*
X0622474Y0347234D01*
X0622447Y0347274D01*
X0622424Y0347315D01*
X0622405Y0347357D01*
X0622388Y0347402D01*
X0622376Y0347447D01*
X0622366Y0347493D01*
X0622361Y0347540D01*
X0622359Y0347587D01*
X0622359Y0348807D01*
X0622357Y0348854D01*
X0622352Y0348901D01*
X0622342Y0348947D01*
X0622330Y0348992D01*
X0622313Y0349037D01*
X0622294Y0349079D01*
X0622271Y0349120D01*
X0622244Y0349160D01*
X0622215Y0349197D01*
X0622183Y0349231D01*
X0622149Y0349263D01*
X0622112Y0349292D01*
X0622072Y0349319D01*
X0622031Y0349342D01*
X0621989Y0349361D01*
X0621944Y0349378D01*
X0621899Y0349390D01*
X0621853Y0349400D01*
X0621806Y0349405D01*
X0621759Y0349407D01*
X0621740Y0349407D01*
X0621693Y0349405D01*
X0621646Y0349400D01*
X0621600Y0349390D01*
X0621555Y0349378D01*
X0621510Y0349361D01*
X0621468Y0349342D01*
X0621427Y0349319D01*
X0621387Y0349292D01*
X0621350Y0349263D01*
X0621316Y0349231D01*
X0621284Y0349197D01*
X0621255Y0349160D01*
X0621228Y0349120D01*
X0621205Y0349079D01*
X0621186Y0349037D01*
X0621169Y0348992D01*
X0621157Y0348947D01*
X0621147Y0348901D01*
X0621142Y0348854D01*
X0621140Y0348807D01*
X0621140Y0347587D01*
X0621138Y0347540D01*
X0621133Y0347493D01*
X0621123Y0347447D01*
X0621111Y0347402D01*
X0621094Y0347357D01*
X0621075Y0347315D01*
X0621052Y0347274D01*
X0621025Y0347234D01*
X0620996Y0347197D01*
X0620964Y0347163D01*
X0620930Y0347131D01*
X0620893Y0347102D01*
X0620853Y0347075D01*
X0620812Y0347052D01*
X0620770Y0347033D01*
X0620725Y0347016D01*
X0620680Y0347004D01*
X0620634Y0346994D01*
X0620587Y0346989D01*
X0620540Y0346987D01*
X0620520Y0346987D01*
X0620473Y0346989D01*
X0620426Y0346994D01*
X0620380Y0347004D01*
X0620335Y0347016D01*
X0620290Y0347033D01*
X0620248Y0347052D01*
X0620207Y0347075D01*
X0620167Y0347102D01*
X0620130Y0347131D01*
X0620096Y0347163D01*
X0620064Y0347197D01*
X0620035Y0347234D01*
X0620008Y0347274D01*
X0619985Y0347315D01*
X0619966Y0347357D01*
X0619949Y0347402D01*
X0619937Y0347447D01*
X0619927Y0347493D01*
X0619922Y0347540D01*
X0619920Y0347587D01*
X0619920Y0348807D01*
X0619918Y0348854D01*
X0619913Y0348901D01*
X0619903Y0348947D01*
X0619891Y0348992D01*
X0619874Y0349037D01*
X0619855Y0349079D01*
X0619832Y0349120D01*
X0619805Y0349160D01*
X0619776Y0349197D01*
X0619744Y0349231D01*
X0619710Y0349263D01*
X0619673Y0349292D01*
X0619633Y0349319D01*
X0619592Y0349342D01*
X0619550Y0349361D01*
X0619505Y0349378D01*
X0619460Y0349390D01*
X0619414Y0349400D01*
X0619367Y0349405D01*
X0619320Y0349407D01*
X0619301Y0349407D01*
X0619254Y0349405D01*
X0619207Y0349400D01*
X0619161Y0349390D01*
X0619116Y0349378D01*
X0619071Y0349361D01*
X0619029Y0349342D01*
X0618988Y0349319D01*
X0618948Y0349292D01*
X0618911Y0349263D01*
X0618877Y0349231D01*
X0618845Y0349197D01*
X0618816Y0349160D01*
X0618789Y0349120D01*
X0618766Y0349079D01*
X0618747Y0349037D01*
X0618730Y0348992D01*
X0618718Y0348947D01*
X0618708Y0348901D01*
X0618703Y0348854D01*
X0618701Y0348807D01*
X0618701Y0347587D01*
X0618699Y0347540D01*
X0618694Y0347493D01*
X0618684Y0347447D01*
X0618672Y0347402D01*
X0618655Y0347357D01*
X0618636Y0347315D01*
X0618613Y0347274D01*
X0618586Y0347234D01*
X0618557Y0347197D01*
X0618525Y0347163D01*
X0618491Y0347131D01*
X0618454Y0347102D01*
X0618414Y0347075D01*
X0618373Y0347052D01*
X0618331Y0347033D01*
X0618286Y0347016D01*
X0618241Y0347004D01*
X0618195Y0346994D01*
X0618148Y0346989D01*
X0618101Y0346987D01*
X0618082Y0346987D01*
X0618035Y0346989D01*
X0617988Y0346994D01*
X0617942Y0347004D01*
X0617897Y0347016D01*
X0617852Y0347033D01*
X0617810Y0347052D01*
X0617769Y0347075D01*
X0617729Y0347102D01*
X0617692Y0347131D01*
X0617658Y0347163D01*
X0617626Y0347197D01*
X0617597Y0347234D01*
X0617570Y0347274D01*
X0617547Y0347315D01*
X0617528Y0347357D01*
X0617511Y0347402D01*
X0617499Y0347447D01*
X0617489Y0347493D01*
X0617484Y0347540D01*
X0617482Y0347587D01*
X0617482Y0348807D01*
X0617480Y0348854D01*
X0617475Y0348901D01*
X0617465Y0348947D01*
X0617453Y0348992D01*
X0617436Y0349037D01*
X0617417Y0349079D01*
X0617394Y0349120D01*
X0617367Y0349160D01*
X0617338Y0349197D01*
X0617306Y0349231D01*
X0617272Y0349263D01*
X0617235Y0349292D01*
X0617195Y0349319D01*
X0617154Y0349342D01*
X0617112Y0349361D01*
X0617067Y0349378D01*
X0617022Y0349390D01*
X0616976Y0349400D01*
X0616929Y0349405D01*
X0616882Y0349407D01*
X0611952Y0370357D02*
X0624102Y0382508D01*
X0624102Y0390840D01*
X0509990Y0351698D02*
X0507193Y0351698D01*
X0506352Y0350857D01*
X0519463Y0334572D02*
X0519463Y0330346D01*
X0564252Y0261357D02*
X0564252Y0251457D01*
X0570552Y0245157D01*
X0579452Y0245157D01*
X0586252Y0250157D02*
X0570552Y0250157D01*
X0561882Y0248757D02*
X0575382Y0235257D01*
X0575382Y0231257D01*
X0572752Y0227757D02*
X0572652Y0227657D01*
X0571552Y0227657D01*
X0572752Y0227757D02*
X0581502Y0227757D01*
X0586144Y0232399D01*
X0586144Y0237870D01*
X0588723Y0237870D02*
X0588723Y0231728D01*
X0581752Y0224757D01*
X0559502Y0224757D01*
X0558252Y0223507D01*
X0558252Y0218757D01*
X0559780Y0217230D01*
X0563284Y0217230D01*
X0567380Y0217230D01*
X0568852Y0215757D01*
X0568852Y0206357D01*
X0562452Y0199957D01*
X0564752Y0200560D02*
X0564752Y0193257D01*
X0567152Y0196057D02*
X0579152Y0208057D01*
X0579152Y0215157D01*
X0582552Y0217957D02*
X0582552Y0206357D01*
X0558252Y0182057D01*
X0557552Y0182057D01*
X0556352Y0180857D01*
X0554061Y0180167D02*
X0554061Y0181806D01*
X0555513Y0183257D01*
X0557252Y0183257D01*
X0559652Y0185657D01*
X0559652Y0210596D01*
X0555752Y0214496D01*
X0555752Y0223957D01*
X0556843Y0225048D01*
X0556843Y0227257D01*
X0550002Y0227257D02*
X0549974Y0227230D01*
X0541684Y0227230D01*
X0541684Y0232230D02*
X0537280Y0232230D01*
X0536452Y0233057D01*
X0536452Y0238057D01*
X0537298Y0238903D01*
X0541510Y0238903D01*
X0534160Y0241666D02*
X0544130Y0251635D01*
X0544130Y0254299D01*
X0546840Y0254299D01*
X0547882Y0253257D01*
X0547882Y0249757D01*
X0546882Y0248757D01*
X0555683Y0243689D02*
X0555752Y0243757D01*
X0555683Y0243689D02*
X0555683Y0238903D01*
X0557382Y0248757D02*
X0561882Y0248757D01*
X0536650Y0246655D02*
X0534219Y0244225D01*
X0527308Y0244225D01*
X0519522Y0244225D01*
X0509255Y0233957D01*
X0506755Y0233957D01*
X0503552Y0230754D01*
X0503552Y0228260D01*
X0503455Y0228260D01*
X0500452Y0225257D01*
X0503552Y0228260D02*
X0507064Y0224748D01*
X0510188Y0224748D01*
X0510188Y0227248D02*
X0514143Y0227248D01*
X0514852Y0227957D01*
X0514852Y0230657D01*
X0513852Y0231657D01*
X0509752Y0232757D02*
X0518660Y0241666D01*
X0527308Y0241666D01*
X0534160Y0241666D01*
X0536650Y0246655D02*
X0536650Y0254299D01*
X0509752Y0232757D02*
X0507252Y0232757D01*
X0504752Y0230257D01*
X0504752Y0228757D01*
X0506261Y0227248D01*
X0510188Y0227248D01*
X0510179Y0219757D02*
X0510188Y0219748D01*
X0498952Y0219057D02*
X0498552Y0218657D01*
X0498552Y0202057D01*
X0492252Y0195757D01*
X0490382Y0195757D01*
X0493752Y0201857D02*
X0490852Y0204757D01*
X0478382Y0204757D01*
X0476882Y0203257D01*
X0476882Y0201690D01*
X0460049Y0184857D01*
X0459852Y0184857D01*
X0458752Y0183757D01*
X0466352Y0180757D02*
X0466952Y0181357D01*
X0466352Y0180757D02*
X0466352Y0173557D01*
X0483290Y0156620D01*
X0491461Y0156620D01*
X0491461Y0155045D02*
X0481565Y0155045D01*
X0478652Y0157957D01*
X0474252Y0157757D02*
X0474252Y0162757D01*
X0471252Y0165757D01*
X0468752Y0165757D01*
X0469343Y0163467D02*
X0467803Y0163467D01*
X0466252Y0165018D01*
X0466252Y0169757D01*
X0462852Y0173157D01*
X0462852Y0175757D01*
X0462852Y0175857D01*
X0462852Y0173157D02*
X0436555Y0173157D01*
X0431852Y0168454D01*
X0431852Y0153397D01*
X0430761Y0152306D01*
X0430761Y0150409D01*
X0432103Y0149067D01*
X0433143Y0149067D01*
X0434452Y0147757D01*
X0433052Y0151357D02*
X0433052Y0167957D01*
X0437052Y0171957D01*
X0452152Y0171957D01*
X0452252Y0171857D01*
X0452252Y0170057D01*
X0452152Y0171957D02*
X0462355Y0171957D01*
X0465052Y0169260D01*
X0465052Y0164521D01*
X0467306Y0162267D01*
X0468843Y0162267D01*
X0471852Y0159257D01*
X0471852Y0156763D01*
X0477558Y0151057D01*
X0480591Y0151057D01*
X0481391Y0150257D01*
X0481391Y0149311D01*
X0483436Y0147267D01*
X0487545Y0147267D01*
X0487642Y0147171D01*
X0491461Y0147171D01*
X0491461Y0148745D02*
X0486109Y0148745D01*
X0485831Y0148467D01*
X0483933Y0148467D01*
X0482591Y0149809D01*
X0482591Y0150757D01*
X0481091Y0152257D01*
X0478055Y0152257D01*
X0473052Y0157260D01*
X0473052Y0159757D01*
X0469343Y0163467D01*
X0473252Y0170257D02*
X0485252Y0158257D01*
X0502252Y0158257D01*
X0503252Y0159257D01*
X0503252Y0163686D01*
X0503272Y0163706D01*
X0501697Y0163706D02*
X0501697Y0172012D01*
X0498952Y0174757D01*
X0497382Y0169257D02*
X0491882Y0169257D01*
X0497382Y0169257D02*
X0498547Y0168092D01*
X0498547Y0163706D01*
X0509369Y0163504D02*
X0509369Y0160061D01*
X0502774Y0153467D01*
X0498061Y0153467D01*
X0496952Y0152357D01*
X0491461Y0153470D02*
X0478539Y0153470D01*
X0474252Y0157757D01*
X0484882Y0150757D02*
X0485319Y0150320D01*
X0491461Y0150320D01*
X0491461Y0142446D02*
X0487275Y0142446D01*
X0483673Y0146048D01*
X0479303Y0146048D01*
X0479013Y0145757D01*
X0477882Y0145757D01*
X0476182Y0147457D01*
X0469383Y0147457D01*
X0469201Y0147639D01*
X0463193Y0149622D02*
X0463193Y0143549D01*
X0464295Y0142446D01*
X0464295Y0139714D01*
X0466252Y0137757D01*
X0469752Y0137757D01*
X0471752Y0135757D01*
X0484252Y0135757D01*
X0486252Y0137757D01*
X0491425Y0137757D01*
X0491461Y0137722D01*
X0491350Y0136257D02*
X0486752Y0136257D01*
X0485052Y0134557D01*
X0471255Y0134557D01*
X0469255Y0136557D01*
X0465755Y0136557D01*
X0465055Y0137257D01*
X0458752Y0137257D01*
X0454492Y0132997D01*
X0449335Y0132997D01*
X0449335Y0135840D01*
X0451252Y0137757D01*
X0453752Y0137757D01*
X0456252Y0140257D01*
X0456252Y0149476D01*
X0456106Y0149622D01*
X0444643Y0153309D02*
X0444643Y0168818D01*
X0444682Y0168857D01*
X0474502Y0181257D02*
X0476355Y0179405D01*
X0479650Y0179405D01*
X0494673Y0181916D02*
X0494832Y0181757D01*
X0498502Y0181757D01*
X0503478Y0181757D01*
X0504059Y0181176D01*
X0512282Y0181257D02*
X0512282Y0179861D01*
X0512443Y0179700D01*
X0512443Y0175814D01*
X0512282Y0175654D01*
X0512282Y0169751D01*
X0514295Y0167738D01*
X0514295Y0163706D01*
X0517445Y0163706D02*
X0517445Y0154064D01*
X0519252Y0152257D01*
X0519461Y0149967D02*
X0515543Y0146048D01*
X0515543Y0145409D01*
X0514201Y0144067D01*
X0505552Y0135418D01*
X0505552Y0128769D01*
X0498547Y0121764D01*
X0498547Y0111738D01*
X0500122Y0111738D02*
X0500122Y0117387D01*
X0499752Y0117757D01*
X0499752Y0121272D01*
X0506752Y0128272D01*
X0506752Y0134921D01*
X0514698Y0142867D01*
X0516743Y0144911D01*
X0516743Y0145551D01*
X0519958Y0148767D01*
X0520698Y0148767D01*
X0524488Y0152557D01*
X0530713Y0152557D01*
X0530803Y0152467D01*
X0534243Y0152467D01*
X0534252Y0152457D01*
X0535852Y0154097D02*
X0535852Y0155057D01*
X0538052Y0157257D01*
X0538090Y0157257D01*
X0539652Y0158819D01*
X0539652Y0160257D01*
X0545161Y0165767D01*
X0551195Y0165767D01*
X0557443Y0172014D01*
X0557443Y0173557D01*
X0594152Y0210266D01*
X0594152Y0215457D01*
X0590352Y0212857D02*
X0589143Y0211648D01*
X0589143Y0206954D01*
X0556243Y0174054D01*
X0556243Y0172511D01*
X0551598Y0167867D01*
X0549003Y0167867D01*
X0548813Y0168057D01*
X0547252Y0168057D01*
X0544079Y0168257D02*
X0536952Y0168257D01*
X0536343Y0167648D01*
X0536343Y0163706D01*
X0534768Y0163706D02*
X0534752Y0163722D01*
X0534752Y0168357D01*
X0535852Y0169457D01*
X0543582Y0169457D01*
X0547382Y0173257D01*
X0547382Y0194950D01*
X0542799Y0199533D01*
X0548582Y0195316D02*
X0548582Y0172760D01*
X0544079Y0168257D01*
X0549952Y0170157D02*
X0552191Y0170157D01*
X0555043Y0173009D01*
X0555043Y0174551D01*
X0587943Y0207451D01*
X0587943Y0215348D01*
X0588052Y0215457D01*
X0582474Y0222230D02*
X0568552Y0222230D01*
X0568651Y0222131D01*
X0568651Y0217656D01*
X0570052Y0216254D01*
X0570052Y0205860D01*
X0564752Y0200560D01*
X0552799Y0199533D02*
X0548582Y0195316D01*
X0543882Y0188257D02*
X0544382Y0187757D01*
X0544382Y0181857D01*
X0551152Y0177257D02*
X0554061Y0180167D01*
X0565882Y0174257D02*
X0566352Y0173787D01*
X0566352Y0167757D01*
X0570252Y0167257D02*
X0584852Y0181857D01*
X0590452Y0181857D01*
X0593452Y0178857D01*
X0593452Y0141918D01*
X0587524Y0135990D01*
X0575252Y0133257D02*
X0575252Y0121199D01*
X0573701Y0119648D01*
X0571803Y0119648D01*
X0570461Y0118306D01*
X0570461Y0110309D01*
X0557252Y0107757D02*
X0557252Y0088887D01*
X0561882Y0084257D01*
X0567261Y0082357D02*
X0614155Y0082357D01*
X0620002Y0088204D01*
X0620002Y0111007D01*
X0587524Y0125990D02*
X0582684Y0125990D01*
X0574052Y0117357D01*
X0572752Y0117357D01*
X0567852Y0128257D02*
X0567836Y0128273D01*
X0543429Y0128273D01*
X0543429Y0126698D02*
X0532193Y0126698D01*
X0531752Y0126257D01*
X0522252Y0126257D01*
X0519782Y0130657D02*
X0514161Y0125037D01*
X0514161Y0120509D01*
X0515676Y0118994D01*
X0520618Y0118994D01*
X0522169Y0117443D01*
X0522169Y0111738D01*
X0520594Y0111738D02*
X0520594Y0117321D01*
X0520121Y0117794D01*
X0515179Y0117794D01*
X0512961Y0120011D01*
X0512961Y0127937D01*
X0516982Y0131957D01*
X0519782Y0132457D02*
X0519782Y0130657D01*
X0519782Y0132457D02*
X0516882Y0135357D01*
X0516189Y0139267D02*
X0510352Y0133430D01*
X0510352Y0126781D01*
X0504846Y0121275D01*
X0504846Y0111738D01*
X0503272Y0111738D02*
X0503272Y0117632D01*
X0502152Y0118751D01*
X0502152Y0120278D01*
X0509152Y0127278D01*
X0509152Y0133927D01*
X0515692Y0140467D01*
X0519143Y0143917D01*
X0519143Y0144557D01*
X0520953Y0146367D01*
X0521692Y0146367D01*
X0525483Y0150157D01*
X0529718Y0150157D01*
X0530909Y0148967D01*
X0535698Y0148967D01*
X0536588Y0149857D01*
X0538152Y0149857D01*
X0536543Y0151509D02*
X0535201Y0150167D01*
X0531406Y0150167D01*
X0530216Y0151357D01*
X0524985Y0151357D01*
X0521195Y0147567D01*
X0520456Y0147567D01*
X0517943Y0145054D01*
X0517943Y0144414D01*
X0507952Y0134424D01*
X0507952Y0127775D01*
X0500952Y0120775D01*
X0500952Y0118254D01*
X0501697Y0117509D01*
X0501697Y0111738D01*
X0501697Y0107889D01*
X0499766Y0105957D01*
X0498213Y0105957D01*
X0494982Y0109188D01*
X0494982Y0110957D01*
X0493543Y0115548D02*
X0486303Y0115548D01*
X0484961Y0114206D01*
X0484961Y0100048D01*
X0486752Y0098257D01*
X0492252Y0098257D01*
X0494352Y0096157D01*
X0494352Y0092751D01*
X0487758Y0086157D01*
X0479258Y0086157D01*
X0474813Y0081712D01*
X0474813Y0078948D01*
X0474335Y0078470D01*
X0476303Y0078470D02*
X0476303Y0081506D01*
X0479755Y0084957D01*
X0488255Y0084957D01*
X0495552Y0092254D01*
X0495552Y0096654D01*
X0492749Y0099457D01*
X0487249Y0099457D01*
X0486161Y0100545D01*
X0486161Y0112167D01*
X0487252Y0113257D01*
X0488971Y0110757D02*
X0489752Y0110757D01*
X0488971Y0110757D02*
X0487361Y0109148D01*
X0487361Y0103157D01*
X0487361Y0101042D01*
X0487746Y0100657D01*
X0493246Y0100657D01*
X0496752Y0097151D01*
X0496752Y0091757D01*
X0488752Y0083757D01*
X0480252Y0083757D01*
X0478272Y0081777D01*
X0478272Y0078470D01*
X0482752Y0078757D02*
X0484752Y0078757D01*
X0485252Y0078257D01*
X0485252Y0075757D01*
X0484421Y0074927D01*
X0481815Y0074927D01*
X0481815Y0072958D02*
X0484453Y0072958D01*
X0485752Y0074257D01*
X0487752Y0074257D01*
X0488752Y0075257D01*
X0488752Y0077877D01*
X0488754Y0077879D01*
X0494954Y0077879D02*
X0494954Y0084660D01*
X0496652Y0086357D01*
X0499650Y0082162D02*
X0499650Y0102359D01*
X0498752Y0103257D01*
X0499711Y0103257D01*
X0500711Y0104257D01*
X0500711Y0105206D01*
X0502053Y0106548D01*
X0503595Y0106548D01*
X0504555Y0107507D01*
X0505632Y0107507D01*
X0506421Y0108297D01*
X0506421Y0111738D01*
X0507996Y0111738D02*
X0507996Y0107871D01*
X0506382Y0106257D01*
X0505002Y0106257D01*
X0503002Y0104257D01*
X0500851Y0102106D01*
X0500851Y0082659D01*
X0505452Y0078057D01*
X0504252Y0077560D02*
X0499650Y0082162D01*
X0508352Y0080457D02*
X0508352Y0087476D01*
X0507280Y0088548D01*
X0503882Y0088548D01*
X0502051Y0090379D01*
X0502051Y0100926D01*
X0503091Y0101967D01*
X0503951Y0101967D01*
X0505293Y0103309D01*
X0505293Y0103757D01*
X0506396Y0104861D01*
X0509158Y0104861D01*
X0511146Y0106848D01*
X0511146Y0111738D01*
X0512720Y0111738D02*
X0512720Y0106726D01*
X0511358Y0105364D01*
X0511358Y0099090D01*
X0511358Y0092890D02*
X0505059Y0092890D01*
X0511358Y0092890D02*
X0517657Y0092890D01*
X0517657Y0088852D01*
X0517752Y0088757D01*
X0519752Y0086257D02*
X0511252Y0086257D01*
X0519752Y0086257D02*
X0523161Y0089667D01*
X0523161Y0093287D01*
X0524882Y0095007D01*
X0524882Y0097567D01*
X0523301Y0099148D01*
X0523241Y0099148D01*
X0523132Y0099257D01*
X0523132Y0101277D01*
X0524503Y0102648D01*
X0525752Y0102648D01*
X0526894Y0103790D01*
X0526894Y0111738D01*
X0528469Y0111738D02*
X0528469Y0103374D01*
X0525452Y0100357D01*
X0522352Y0096857D02*
X0519890Y0096857D01*
X0517657Y0099090D01*
X0517657Y0103352D01*
X0514295Y0106714D01*
X0514295Y0111738D01*
X0515870Y0111738D02*
X0515870Y0108418D01*
X0516600Y0107688D01*
X0517451Y0107688D01*
X0519082Y0106057D01*
X0519020Y0111738D02*
X0519020Y0115920D01*
X0518345Y0116594D01*
X0514682Y0116594D01*
X0511761Y0119514D01*
X0511761Y0123257D01*
X0511761Y0130037D01*
X0513582Y0131857D01*
X0503152Y0129763D02*
X0503152Y0143357D01*
X0509352Y0149557D01*
X0508903Y0151848D02*
X0511103Y0154048D01*
X0513001Y0154048D01*
X0514343Y0152706D01*
X0514343Y0150809D01*
X0513652Y0150118D01*
X0513652Y0146757D01*
X0513252Y0146357D01*
X0508903Y0151848D02*
X0505103Y0151848D01*
X0503361Y0150106D01*
X0503361Y0146961D01*
X0500752Y0144351D01*
X0500752Y0130757D01*
X0496693Y0126698D01*
X0491461Y0126698D01*
X0491663Y0125326D02*
X0491461Y0125123D01*
X0491663Y0125326D02*
X0497018Y0125326D01*
X0501952Y0130260D01*
X0501952Y0143854D01*
X0505652Y0147554D01*
X0505652Y0149157D01*
X0519461Y0149967D02*
X0520201Y0149967D01*
X0523991Y0153757D01*
X0530752Y0153757D01*
X0531752Y0154757D01*
X0535852Y0154097D02*
X0536543Y0153406D01*
X0536543Y0151509D01*
X0531852Y0146657D02*
X0530743Y0147767D01*
X0530412Y0147767D01*
X0529221Y0148957D01*
X0525980Y0148957D01*
X0522189Y0145167D01*
X0521450Y0145167D01*
X0520343Y0144060D01*
X0520343Y0143420D01*
X0516189Y0139267D01*
X0530752Y0137657D02*
X0530817Y0137722D01*
X0543429Y0137722D01*
X0543429Y0139297D02*
X0554513Y0139297D01*
X0555352Y0138457D01*
X0575052Y0138457D01*
X0571901Y0135748D02*
X0564045Y0135748D01*
X0562870Y0134572D01*
X0543429Y0134572D01*
X0543429Y0132997D02*
X0562992Y0132997D01*
X0563452Y0133457D01*
X0570952Y0133457D01*
X0571901Y0135748D02*
X0573391Y0134257D01*
X0574252Y0134257D01*
X0575252Y0133257D01*
X0569501Y0145667D02*
X0570843Y0147009D01*
X0570843Y0148748D01*
X0587524Y0165429D01*
X0587524Y0165990D01*
X0592252Y0168957D02*
X0590452Y0170757D01*
X0576152Y0170757D01*
X0571452Y0166057D01*
X0571452Y0158260D01*
X0569049Y0155857D01*
X0558549Y0155857D01*
X0554587Y0151895D01*
X0543429Y0151895D01*
X0543429Y0150320D02*
X0557815Y0150320D01*
X0560252Y0152757D01*
X0558052Y0157057D02*
X0554465Y0153470D01*
X0543429Y0153470D01*
X0543429Y0155045D02*
X0549300Y0155045D01*
X0552803Y0158548D01*
X0554043Y0158548D01*
X0557252Y0161757D01*
X0560152Y0161757D01*
X0555903Y0162106D02*
X0555903Y0165909D01*
X0557752Y0167757D01*
X0560152Y0167757D01*
X0570252Y0167257D02*
X0570252Y0158757D01*
X0568552Y0157057D01*
X0558052Y0157057D01*
X0553545Y0159748D02*
X0552306Y0159748D01*
X0549178Y0156620D01*
X0543429Y0156620D01*
X0553545Y0159748D02*
X0555903Y0162106D01*
X0564752Y0149557D02*
X0563940Y0148745D01*
X0543429Y0148745D01*
X0543429Y0147171D02*
X0567765Y0147171D01*
X0568552Y0147957D01*
X0567299Y0145971D02*
X0550365Y0145971D01*
X0549991Y0145596D01*
X0543429Y0145596D01*
X0543429Y0144021D02*
X0536016Y0144021D01*
X0535752Y0143757D01*
X0536642Y0136147D02*
X0535752Y0135257D01*
X0536642Y0136147D02*
X0543429Y0136147D01*
X0543429Y0131423D02*
X0531587Y0131423D01*
X0531252Y0131757D01*
X0528252Y0131757D01*
X0526252Y0129757D01*
X0530252Y0129257D02*
X0530843Y0129848D01*
X0543429Y0129848D01*
X0543429Y0125123D02*
X0549518Y0125123D01*
X0549552Y0125157D01*
X0543429Y0123549D02*
X0531961Y0123549D01*
X0531752Y0123757D01*
X0532382Y0119757D02*
X0531618Y0118994D01*
X0531618Y0111738D01*
X0530043Y0111738D02*
X0530043Y0107296D01*
X0530882Y0106457D01*
X0536343Y0108297D02*
X0536343Y0111738D01*
X0534768Y0111738D02*
X0534768Y0095970D01*
X0528445Y0089648D01*
X0526606Y0089648D01*
X0524561Y0087603D01*
X0524561Y0084064D01*
X0519455Y0078957D01*
X0516252Y0078957D01*
X0528052Y0086157D02*
X0528052Y0070557D01*
X0538752Y0072257D02*
X0547252Y0080757D01*
X0547252Y0094257D01*
X0550752Y0094257D02*
X0550752Y0091197D01*
X0548461Y0088906D01*
X0548461Y0079030D01*
X0541752Y0072321D01*
X0541752Y0070257D01*
X0536352Y0077107D02*
X0541143Y0081898D01*
X0541143Y0096848D01*
X0546352Y0102057D01*
X0546352Y0103557D01*
X0546452Y0104157D01*
X0549252Y0106557D02*
X0548752Y0107057D01*
X0537582Y0107057D01*
X0536343Y0108297D01*
X0523744Y0111738D02*
X0523744Y0117565D01*
X0519852Y0121457D01*
X0516452Y0121457D01*
X0511761Y0123257D02*
X0511761Y0123400D01*
X0503152Y0129763D02*
X0497140Y0123751D01*
X0491663Y0123751D01*
X0491461Y0123549D01*
X0491461Y0121974D02*
X0485665Y0121974D01*
X0483982Y0123657D01*
X0481303Y0128273D02*
X0476788Y0123757D01*
X0429716Y0123757D01*
X0422816Y0130657D01*
X0410088Y0130657D01*
X0406698Y0127267D01*
X0401806Y0127267D01*
X0399761Y0129311D01*
X0399761Y0135306D01*
X0402403Y0137948D01*
X0405943Y0137948D01*
X0406152Y0138157D01*
X0403352Y0135657D02*
X0403352Y0134097D01*
X0400961Y0131706D01*
X0400961Y0129809D01*
X0402303Y0128467D01*
X0404201Y0128467D01*
X0405543Y0129809D01*
X0405543Y0130457D01*
X0406052Y0130967D01*
X0408701Y0130967D01*
X0409591Y0131857D01*
X0423313Y0131857D01*
X0430213Y0124957D01*
X0476290Y0124957D01*
X0481181Y0129848D01*
X0491461Y0129848D01*
X0491461Y0128273D02*
X0481303Y0128273D01*
X0476952Y0122557D02*
X0429219Y0122557D01*
X0422319Y0129457D01*
X0410585Y0129457D01*
X0407195Y0126067D01*
X0401309Y0126067D01*
X0398561Y0128814D01*
X0398561Y0132357D01*
X0397452Y0133467D01*
X0397452Y0135657D01*
X0419082Y0127157D02*
X0422582Y0127157D01*
X0428382Y0121357D01*
X0466582Y0121357D01*
X0468982Y0118957D01*
X0466691Y0119551D02*
X0466691Y0118009D01*
X0468033Y0116667D01*
X0470091Y0116667D01*
X0472382Y0118957D01*
X0471788Y0116667D02*
X0470588Y0115467D01*
X0467536Y0115467D01*
X0465491Y0117511D01*
X0465491Y0118448D01*
X0464982Y0118957D01*
X0425182Y0118957D01*
X0422682Y0121357D01*
X0423182Y0124857D02*
X0421582Y0124857D01*
X0423182Y0124857D02*
X0427882Y0120157D01*
X0466085Y0120157D01*
X0466691Y0119551D01*
X0463548Y0117757D02*
X0425194Y0117757D01*
X0424709Y0117747D01*
X0399978Y0117747D01*
X0378388Y0096157D01*
X0364485Y0096157D01*
X0357695Y0102948D01*
X0353082Y0102948D01*
X0348882Y0107148D01*
X0348882Y0110757D01*
X0347482Y0114457D02*
X0338943Y0114457D01*
X0334443Y0118957D01*
X0320182Y0118957D01*
X0317543Y0121597D01*
X0317543Y0125206D01*
X0316201Y0126548D01*
X0310075Y0126548D01*
X0305275Y0121748D01*
X0299436Y0121748D01*
X0297391Y0119703D01*
X0297391Y0116811D01*
X0297883Y0116319D01*
X0297883Y0108556D01*
X0295385Y0106057D01*
X0278382Y0106057D01*
X0268082Y0095757D01*
X0268082Y0072457D01*
X0263482Y0067857D01*
X0206882Y0067857D01*
X0202333Y0072407D01*
X0202333Y0086317D01*
X0188882Y0073757D02*
X0183382Y0065757D01*
X0163782Y0065757D01*
X0160282Y0062257D01*
X0160282Y0043680D01*
X0150282Y0043680D02*
X0150282Y0059257D01*
X0157982Y0066957D01*
X0179582Y0066957D01*
X0184882Y0074257D01*
X0195230Y0062806D02*
X0269733Y0062806D01*
X0273182Y0066254D01*
X0273182Y0092754D01*
X0284385Y0103957D01*
X0294982Y0103957D01*
X0299582Y0108557D01*
X0299582Y0116318D01*
X0298591Y0117309D01*
X0298591Y0119206D01*
X0299933Y0120548D01*
X0305772Y0120548D01*
X0307282Y0122057D01*
X0307313Y0122057D01*
X0309803Y0124548D01*
X0311701Y0124548D01*
X0313043Y0123206D01*
X0313043Y0121664D01*
X0316949Y0117757D01*
X0333946Y0117757D01*
X0349956Y0101748D01*
X0357198Y0101748D01*
X0363988Y0094957D01*
X0378885Y0094957D01*
X0393885Y0109957D01*
X0402782Y0109957D01*
X0407482Y0114657D01*
X0437191Y0114657D01*
X0438491Y0113357D01*
X0448082Y0113357D01*
X0446043Y0114557D02*
X0438988Y0114557D01*
X0437688Y0115857D01*
X0404782Y0115857D01*
X0404082Y0115157D01*
X0404833Y0107557D02*
X0394879Y0107557D01*
X0379764Y0092442D01*
X0361567Y0092442D01*
X0355752Y0098257D01*
X0354852Y0093457D02*
X0358855Y0093457D01*
X0361255Y0091057D01*
X0361440Y0091242D01*
X0380261Y0091242D01*
X0395376Y0106357D01*
X0404336Y0106357D01*
X0411836Y0098857D01*
X0426394Y0098857D01*
X0427561Y0100025D01*
X0427561Y0100167D01*
X0428652Y0101257D01*
X0424213Y0100057D02*
X0412333Y0100057D01*
X0404833Y0107557D01*
X0403839Y0105157D02*
X0416654Y0092342D01*
X0423467Y0092342D01*
X0423952Y0091857D01*
X0436882Y0095257D02*
X0436882Y0104257D01*
X0435682Y0105457D01*
X0431913Y0107757D02*
X0443452Y0107757D01*
X0443102Y0101108D02*
X0442052Y0100057D01*
X0442052Y0095557D01*
X0443952Y0093657D01*
X0455752Y0093657D01*
X0456152Y0093257D01*
X0458752Y0093257D01*
X0459497Y0094003D01*
X0460590Y0094003D01*
X0461345Y0094757D01*
X0477352Y0094757D01*
X0479882Y0097157D02*
X0479882Y0098948D01*
X0481743Y0100809D01*
X0481743Y0102706D01*
X0480401Y0104048D01*
X0479691Y0104048D01*
X0479482Y0104257D01*
X0479352Y0104387D01*
X0479352Y0104749D01*
X0472243Y0111857D01*
X0467615Y0111857D01*
X0465625Y0113848D01*
X0461001Y0113848D01*
X0459091Y0115757D01*
X0447243Y0115757D01*
X0446043Y0114557D01*
X0452652Y0111757D02*
X0453628Y0110782D01*
X0458334Y0110782D01*
X0458358Y0110757D01*
X0462043Y0110757D01*
X0462733Y0111448D01*
X0464631Y0111448D01*
X0466621Y0109457D01*
X0471249Y0109457D01*
X0475452Y0105254D01*
X0475452Y0100857D01*
X0476952Y0099357D01*
X0479452Y0101757D02*
X0478152Y0103057D01*
X0478152Y0104251D01*
X0471746Y0110657D01*
X0467118Y0110657D01*
X0465128Y0112648D01*
X0457361Y0112648D01*
X0456552Y0113457D01*
X0463548Y0117757D02*
X0467039Y0114267D01*
X0471085Y0114267D01*
X0472276Y0115457D01*
X0475582Y0115457D01*
X0473331Y0116667D02*
X0475621Y0118957D01*
X0475782Y0118957D01*
X0473331Y0116667D02*
X0471788Y0116667D01*
X0476952Y0122557D02*
X0479110Y0120399D01*
X0491461Y0120399D01*
X0493752Y0115757D02*
X0493543Y0115548D01*
X0474252Y0104757D02*
X0474252Y0097157D01*
X0474352Y0097057D01*
X0469252Y0100996D02*
X0469252Y0105257D01*
X0468252Y0108257D02*
X0464752Y0104757D01*
X0460252Y0104757D01*
X0459252Y0103757D01*
X0459252Y0101757D01*
X0458602Y0101108D01*
X0456421Y0101108D01*
X0456421Y0103667D02*
X0457146Y0104391D01*
X0457146Y0107913D01*
X0468252Y0108257D02*
X0470752Y0108257D01*
X0474252Y0104757D01*
X0469252Y0100996D02*
X0468970Y0100714D01*
X0481252Y0091157D02*
X0483652Y0093557D01*
X0483652Y0094157D01*
X0483658Y0091867D02*
X0481749Y0089957D01*
X0475749Y0089957D01*
X0470398Y0084606D01*
X0470398Y0078470D01*
X0472366Y0078470D02*
X0472366Y0084877D01*
X0476246Y0088757D01*
X0485052Y0088757D01*
X0490852Y0094557D01*
X0487252Y0094457D02*
X0487191Y0094457D01*
X0484601Y0091867D01*
X0483658Y0091867D01*
X0481252Y0091157D02*
X0475252Y0091157D01*
X0468429Y0084334D01*
X0468429Y0078470D01*
X0466461Y0078470D02*
X0466461Y0085549D01*
X0466252Y0085757D01*
X0464492Y0083999D02*
X0464492Y0078470D01*
X0461652Y0080657D02*
X0461652Y0086157D01*
X0460752Y0087057D01*
X0443152Y0087057D01*
X0440952Y0084857D01*
X0440952Y0076557D01*
X0444551Y0072958D01*
X0460949Y0072958D01*
X0460949Y0070990D02*
X0445882Y0070990D01*
X0445113Y0070221D01*
X0444849Y0070221D01*
X0421785Y0047157D01*
X0416388Y0047157D01*
X0405465Y0036234D01*
X0405465Y0030415D01*
X0405465Y0021275D01*
X0405482Y0021257D01*
X0409382Y0021257D02*
X0409402Y0021277D01*
X0409402Y0030415D01*
X0409402Y0038474D01*
X0416885Y0045957D01*
X0422282Y0045957D01*
X0445346Y0069021D01*
X0460949Y0069021D01*
X0460949Y0067053D02*
X0445586Y0067053D01*
X0423291Y0044757D01*
X0417382Y0044757D01*
X0413339Y0040714D01*
X0413339Y0030415D01*
X0413339Y0021301D01*
X0413382Y0021257D01*
X0417276Y0021264D02*
X0417282Y0021257D01*
X0417276Y0021264D02*
X0417276Y0030415D01*
X0417276Y0038651D01*
X0418382Y0039757D01*
X0425150Y0044919D02*
X0425150Y0030415D01*
X0425150Y0021290D01*
X0425182Y0021257D01*
X0436961Y0022479D02*
X0437182Y0022257D01*
X0436961Y0022479D02*
X0436961Y0030415D01*
X0436961Y0036336D01*
X0439698Y0039073D01*
X0439698Y0052770D01*
X0446685Y0059757D01*
X0454882Y0059757D01*
X0456272Y0061147D01*
X0460949Y0061147D01*
X0460949Y0063116D02*
X0453240Y0063116D01*
X0452382Y0062257D01*
X0444185Y0062257D01*
X0427882Y0045954D01*
X0427882Y0040257D01*
X0425150Y0044919D02*
X0445315Y0065084D01*
X0460949Y0065084D01*
X0458852Y0058557D02*
X0447182Y0058557D01*
X0440898Y0052273D01*
X0440898Y0030415D01*
X0440898Y0022842D01*
X0441482Y0022257D01*
X0471882Y0033257D02*
X0476382Y0033257D01*
X0479382Y0036257D01*
X0479382Y0049257D01*
X0487682Y0057557D01*
X0528252Y0057557D01*
X0530852Y0060157D01*
X0531913Y0060157D01*
X0534303Y0062548D01*
X0565275Y0062548D01*
X0574485Y0071757D01*
X0579082Y0071757D01*
X0581382Y0069457D02*
X0582482Y0070557D01*
X0581382Y0069457D02*
X0573882Y0069457D01*
X0564682Y0060257D01*
X0541752Y0060257D01*
X0538152Y0057357D02*
X0582982Y0057357D01*
X0603182Y0077557D01*
X0616143Y0077557D01*
X0628643Y0090057D01*
X0634682Y0090057D01*
X0641809Y0083136D02*
X0624861Y0083136D01*
X0615682Y0073957D01*
X0615682Y0064854D01*
X0614185Y0063357D01*
X0612482Y0063357D01*
X0612482Y0059957D02*
X0616882Y0064357D01*
X0616882Y0073460D01*
X0621579Y0078157D01*
X0646830Y0078157D01*
X0651809Y0083136D01*
X0651809Y0073136D02*
X0646830Y0068157D01*
X0639882Y0068157D01*
X0633682Y0074357D01*
X0621182Y0074357D01*
X0619382Y0072557D01*
X0619382Y0069457D01*
X0622482Y0064657D02*
X0639182Y0047957D01*
X0658344Y0047957D01*
X0669019Y0037282D01*
X0676893Y0053031D02*
X0672882Y0057042D01*
X0672882Y0062957D01*
X0670682Y0065157D01*
X0660282Y0065157D01*
X0658261Y0063136D01*
X0651809Y0063136D01*
X0641809Y0063136D02*
X0631403Y0063136D01*
X0630382Y0064157D01*
X0597982Y0042780D02*
X0597982Y0012657D01*
X0597882Y0012557D01*
X0587982Y0012457D02*
X0587982Y0042780D01*
X0557982Y0042780D02*
X0557982Y0012057D01*
X0537982Y0011957D02*
X0537982Y0042780D01*
X0527982Y0042780D02*
X0527982Y0011957D01*
X0517982Y0014357D02*
X0517982Y0042780D01*
X0507982Y0042780D02*
X0507982Y0011557D01*
X0507882Y0011457D01*
X0515182Y0011557D02*
X0517982Y0014357D01*
X0474382Y0038157D02*
X0467882Y0038157D01*
X0463782Y0038157D01*
X0463382Y0037757D01*
X0467882Y0044357D02*
X0469982Y0044357D01*
X0470882Y0045257D01*
X0470882Y0054257D01*
X0470382Y0054757D01*
X0470382Y0057588D01*
X0470398Y0057604D01*
X0472366Y0057604D01*
X0474335Y0057604D02*
X0474335Y0050905D01*
X0474482Y0050757D01*
X0477382Y0053257D02*
X0477382Y0045257D01*
X0476482Y0044357D01*
X0474382Y0044357D01*
X0468282Y0050757D02*
X0468429Y0050905D01*
X0468429Y0057604D01*
X0468382Y0057557D01*
X0464492Y0057604D02*
X0464492Y0054868D01*
X0462382Y0052757D01*
X0476303Y0054336D02*
X0477382Y0053257D01*
X0476303Y0054336D02*
X0476303Y0057604D01*
X0481815Y0069021D02*
X0485612Y0069021D01*
X0487149Y0067484D01*
X0491646Y0067484D01*
X0494954Y0070793D01*
X0488754Y0070793D02*
X0488557Y0070990D01*
X0481815Y0070990D01*
X0464492Y0083999D02*
X0463765Y0084727D01*
X0463765Y0087745D01*
X0463252Y0088257D01*
X0450252Y0084757D02*
X0450252Y0079928D01*
X0450172Y0079848D01*
X0438382Y0074757D02*
X0434382Y0070757D01*
X0421382Y0070757D01*
X0410582Y0081557D01*
X0359779Y0081557D01*
X0356879Y0084457D01*
X0342182Y0084457D01*
X0340882Y0085757D01*
X0342621Y0087257D02*
X0341831Y0088048D01*
X0339933Y0088048D01*
X0339143Y0087257D01*
X0334382Y0087257D01*
X0333957Y0086832D01*
X0333957Y0084214D01*
X0330382Y0087757D02*
X0325882Y0087757D01*
X0323882Y0085757D01*
X0321482Y0085757D01*
X0320382Y0089257D02*
X0316382Y0089257D01*
X0315382Y0088257D01*
X0315382Y0085857D01*
X0315282Y0085757D01*
X0311882Y0088757D02*
X0311982Y0089257D01*
X0314882Y0092157D01*
X0318282Y0095257D02*
X0311382Y0095257D01*
X0309079Y0095257D01*
X0304379Y0099957D01*
X0299385Y0099957D01*
X0298185Y0098757D01*
X0296382Y0098757D01*
X0299882Y0098757D02*
X0293382Y0092257D01*
X0289382Y0092257D01*
X0289382Y0095757D01*
X0289882Y0096257D01*
X0289382Y0092257D02*
X0288382Y0091257D01*
X0288382Y0086757D01*
X0288892Y0086247D01*
X0292025Y0086247D01*
X0295382Y0086757D02*
X0296457Y0085682D01*
X0298839Y0085682D01*
X0298839Y0088832D02*
X0301957Y0088832D01*
X0302382Y0089257D01*
X0302382Y0095757D01*
X0303882Y0098757D02*
X0309382Y0093257D01*
X0309382Y0089257D01*
X0308882Y0088757D01*
X0306000Y0088757D01*
X0305925Y0088832D01*
X0305925Y0085682D02*
X0303307Y0085682D01*
X0302382Y0084757D01*
X0302382Y0081257D01*
X0301382Y0080257D01*
X0296382Y0080257D01*
X0294382Y0082257D01*
X0292285Y0082257D01*
X0292025Y0082517D01*
X0295382Y0086757D02*
X0295382Y0089257D01*
X0294642Y0089997D01*
X0292025Y0089997D01*
X0281739Y0086257D02*
X0276882Y0086257D01*
X0274382Y0092257D02*
X0274382Y0066751D01*
X0274382Y0065757D01*
X0270230Y0061606D01*
X0247330Y0061606D01*
X0241982Y0056257D01*
X0241982Y0043680D01*
X0261982Y0043680D02*
X0261982Y0056057D01*
X0274382Y0066751D02*
X0274382Y0066751D01*
X0281982Y0061457D02*
X0285882Y0065357D01*
X0285882Y0073157D01*
X0288982Y0076257D01*
X0288982Y0076157D01*
X0291882Y0073257D01*
X0291882Y0064757D01*
X0296882Y0059757D01*
X0310882Y0059757D01*
X0312782Y0061657D01*
X0312782Y0069757D01*
X0310382Y0069757D01*
X0309382Y0070757D01*
X0309382Y0073757D01*
X0308307Y0074832D01*
X0305925Y0074832D01*
X0305925Y0071682D02*
X0305925Y0068533D01*
X0302382Y0069757D02*
X0301382Y0068757D01*
X0299063Y0068757D01*
X0298839Y0068533D01*
X0298839Y0064301D01*
X0298882Y0064257D01*
X0296385Y0058557D02*
X0288982Y0065960D01*
X0288982Y0069757D01*
X0294807Y0074832D02*
X0293882Y0075757D01*
X0294807Y0074832D02*
X0298839Y0074832D01*
X0298839Y0071682D01*
X0302382Y0069757D02*
X0302382Y0077257D01*
X0301657Y0077982D01*
X0298839Y0077982D01*
X0305925Y0077982D02*
X0308657Y0077982D01*
X0310382Y0076257D01*
X0312782Y0076257D01*
X0315882Y0073157D01*
X0315882Y0066757D01*
X0313982Y0064857D01*
X0313982Y0061160D01*
X0311379Y0058557D01*
X0296385Y0058557D01*
X0301882Y0053957D02*
X0303682Y0055757D01*
X0306182Y0055757D01*
X0301882Y0053957D02*
X0301882Y0042157D01*
X0302682Y0041357D01*
X0302682Y0042980D01*
X0301982Y0043680D01*
X0321982Y0043680D02*
X0321982Y0055557D01*
X0322782Y0056357D01*
X0350482Y0056357D01*
X0350882Y0056757D01*
X0350882Y0065757D01*
X0349882Y0066757D01*
X0349882Y0070757D01*
X0346866Y0073773D01*
X0346866Y0077270D01*
X0343126Y0077270D02*
X0343126Y0080501D01*
X0343882Y0081257D01*
X0352882Y0081257D01*
X0353882Y0080257D01*
X0354636Y0079503D01*
X0354636Y0075320D01*
X0351382Y0077257D02*
X0350882Y0077757D01*
X0351382Y0077257D02*
X0351382Y0069257D01*
X0351882Y0068757D01*
X0353744Y0068757D01*
X0353768Y0068734D01*
X0356917Y0068734D01*
X0360067Y0068734D02*
X0360067Y0071442D01*
X0360882Y0072257D01*
X0360882Y0075275D01*
X0363065Y0077457D01*
X0364282Y0077657D01*
X0360882Y0075275D02*
X0360836Y0075320D01*
X0363882Y0071757D02*
X0366882Y0071757D01*
X0367797Y0072672D01*
X0367797Y0075320D01*
X0367797Y0072042D01*
X0369482Y0070857D01*
X0373997Y0070842D02*
X0374082Y0070857D01*
X0373997Y0070842D02*
X0373997Y0075320D01*
X0376882Y0078257D02*
X0374782Y0080357D01*
X0359282Y0080357D01*
X0356382Y0083257D01*
X0341382Y0083257D01*
X0339386Y0081261D01*
X0339386Y0077270D01*
X0336882Y0071257D02*
X0342382Y0071257D01*
X0343382Y0070257D01*
X0343382Y0067250D01*
X0343116Y0066984D01*
X0343116Y0062523D01*
X0343382Y0062257D01*
X0346866Y0062773D02*
X0347382Y0062257D01*
X0346866Y0062773D02*
X0346866Y0066984D01*
X0353768Y0064143D02*
X0354382Y0064757D01*
X0362882Y0064757D01*
X0363382Y0064257D01*
X0363382Y0061812D01*
X0363500Y0061694D01*
X0372949Y0061694D01*
X0376882Y0065627D01*
X0376882Y0078257D01*
X0363882Y0071757D02*
X0363217Y0071092D01*
X0363217Y0068734D01*
X0353768Y0064143D02*
X0353768Y0061647D01*
X0356882Y0061612D02*
X0356917Y0061647D01*
X0360067Y0061647D01*
X0363182Y0061612D02*
X0363217Y0061647D01*
X0363382Y0061812D01*
X0363217Y0061647D02*
X0363217Y0057923D01*
X0363182Y0061612D02*
X0363182Y0046757D01*
X0360782Y0044357D01*
X0348082Y0044357D01*
X0346882Y0043157D01*
X0346882Y0033657D01*
X0345782Y0032557D01*
X0342482Y0032557D01*
X0341982Y0033057D01*
X0341982Y0043680D01*
X0350882Y0056757D02*
X0355882Y0056757D01*
X0356882Y0057757D01*
X0356882Y0061612D01*
X0339386Y0063261D02*
X0339386Y0066984D01*
X0339386Y0063261D02*
X0338382Y0062257D01*
X0335882Y0062257D01*
X0322882Y0064257D02*
X0322882Y0075257D01*
X0323482Y0075857D01*
X0326252Y0075857D01*
X0318982Y0076257D02*
X0318982Y0080657D01*
X0318882Y0080757D01*
X0318982Y0076257D02*
X0318982Y0069757D01*
X0326252Y0069657D02*
X0332752Y0069657D01*
X0335282Y0069657D01*
X0336882Y0071257D01*
X0312882Y0076357D02*
X0312882Y0080757D01*
X0312882Y0076357D02*
X0312782Y0076257D01*
X0320382Y0089257D02*
X0321382Y0090257D01*
X0321382Y0092157D01*
X0318282Y0095257D01*
X0321382Y0098357D02*
X0314882Y0098357D01*
X0314782Y0098257D01*
X0310382Y0098257D01*
X0303882Y0098757D02*
X0299882Y0098757D01*
X0284882Y0102757D02*
X0329382Y0102757D01*
X0331282Y0100857D01*
X0331282Y0098257D01*
X0330807Y0097782D01*
X0330807Y0091301D01*
X0330807Y0088182D01*
X0330382Y0087757D01*
X0327657Y0091301D02*
X0327657Y0096982D01*
X0326282Y0098357D01*
X0321382Y0098357D01*
X0329582Y0106257D02*
X0332182Y0108857D01*
X0336058Y0108857D01*
X0353858Y0091057D01*
X0357861Y0091057D01*
X0364761Y0084157D01*
X0365982Y0084157D01*
X0360758Y0089857D02*
X0380573Y0089857D01*
X0388482Y0097766D01*
X0388789Y0097766D01*
X0396181Y0105157D01*
X0403839Y0105157D01*
X0424213Y0100057D02*
X0431913Y0107757D01*
X0443102Y0101108D02*
X0447760Y0101108D01*
X0447760Y0098549D02*
X0445161Y0098549D01*
X0445152Y0098557D01*
X0444352Y0097757D01*
X0444352Y0096557D01*
X0445617Y0070990D02*
X0445882Y0070990D01*
X0382949Y0061694D02*
X0377882Y0056627D01*
X0377882Y0056257D01*
X0345382Y0087257D02*
X0342621Y0087257D01*
X0358358Y0092257D02*
X0360758Y0089857D01*
X0358358Y0092257D02*
X0354355Y0092257D01*
X0332455Y0114157D01*
X0315458Y0114157D01*
X0312558Y0117057D01*
X0306921Y0117057D01*
X0305831Y0115967D01*
X0303933Y0115967D01*
X0301643Y0118257D01*
X0300882Y0118257D01*
X0304882Y0118257D02*
X0313055Y0118257D01*
X0315955Y0115357D01*
X0332952Y0115357D01*
X0354852Y0093457D01*
X0329682Y0106357D02*
X0329582Y0106257D01*
X0284882Y0102757D02*
X0274382Y0092257D01*
X0247182Y0091157D02*
X0247182Y0099857D01*
X0245482Y0101557D01*
X0236582Y0101557D01*
X0224982Y0113157D01*
X0216682Y0113157D01*
X0198782Y0131057D01*
X0197782Y0131057D01*
X0196833Y0128767D02*
X0195491Y0130109D01*
X0195491Y0132006D01*
X0196833Y0133348D01*
X0198731Y0133348D01*
X0201021Y0131057D01*
X0202082Y0131057D01*
X0199375Y0128767D02*
X0216185Y0111957D01*
X0224485Y0111957D01*
X0236085Y0100357D01*
X0241882Y0100357D01*
X0242739Y0099500D01*
X0242739Y0096040D01*
X0242739Y0089713D02*
X0245737Y0089713D01*
X0247182Y0091157D01*
X0203252Y0112257D02*
X0190882Y0112257D01*
X0187382Y0115757D01*
X0187355Y0118057D02*
X0193379Y0118057D01*
X0194079Y0118757D01*
X0199882Y0118757D01*
X0199882Y0122257D02*
X0195882Y0122257D01*
X0192882Y0119257D01*
X0187852Y0119257D01*
X0186752Y0120357D01*
X0186752Y0169257D01*
X0182052Y0173957D01*
X0179682Y0173957D01*
X0176482Y0177157D01*
X0178782Y0178557D02*
X0178782Y0182257D01*
X0178282Y0182757D01*
X0178782Y0178557D02*
X0181082Y0176257D01*
X0194882Y0176257D01*
X0185552Y0168757D02*
X0181552Y0172757D01*
X0179185Y0172757D01*
X0178285Y0173657D01*
X0176382Y0173657D01*
X0185552Y0168760D02*
X0185552Y0168757D01*
X0185552Y0119860D01*
X0187355Y0118057D01*
X0196833Y0128767D02*
X0199375Y0128767D01*
X0195182Y0136257D02*
X0208652Y0136257D01*
X0212254Y0139859D01*
X0300667Y0164466D02*
X0307043Y0164466D01*
X0307052Y0164457D01*
X0308052Y0164457D01*
X0352752Y0174257D02*
X0359752Y0174257D01*
X0361752Y0176257D01*
X0374327Y0169761D02*
X0377748Y0169761D01*
X0377752Y0169757D01*
X0322752Y0191257D02*
X0321252Y0192757D01*
X0321252Y0202757D01*
X0319406Y0204604D01*
X0317252Y0204604D01*
X0317252Y0207257D01*
X0320343Y0210348D01*
X0320343Y0214560D01*
X0195831Y0262011D02*
X0195252Y0262590D01*
X0195252Y0270757D01*
X0196822Y0272327D01*
X0199454Y0272327D01*
X0199454Y0274886D02*
X0192881Y0274886D01*
X0192654Y0274659D01*
X0188694Y0274659D01*
X0173282Y0250657D02*
X0159382Y0264557D01*
X0159382Y0278442D01*
X0159374Y0278450D01*
X0173282Y0250657D02*
X0186882Y0250657D01*
X0128082Y0207557D02*
X0128082Y0194357D01*
X0127482Y0193757D01*
X0124882Y0193757D01*
X0124882Y0200257D02*
X0124982Y0200357D01*
X0124982Y0207257D01*
X0124682Y0207557D01*
X0354248Y0139053D02*
X0354248Y0138961D01*
X0354252Y0138957D01*
X0442682Y0137957D02*
X0442682Y0151348D01*
X0444643Y0153309D01*
X0474187Y0143693D02*
X0474187Y0139297D01*
X0474187Y0143693D02*
X0474252Y0143757D01*
X0480252Y0143757D02*
X0480387Y0143622D01*
X0480387Y0139297D01*
X0491350Y0136257D02*
X0491461Y0136147D01*
X0539380Y0121244D02*
X0539380Y0117979D01*
X0539907Y0117452D01*
X0545057Y0117452D01*
X0547752Y0114757D01*
X0548555Y0114757D01*
X0556052Y0107260D01*
X0556052Y0080557D01*
X0554752Y0079257D01*
X0550752Y0087957D02*
X0553752Y0090957D01*
X0553752Y0096257D01*
X0557252Y0107757D02*
X0549252Y0115757D01*
X0549252Y0117257D01*
X0547685Y0118824D01*
X0543429Y0118824D01*
X0543227Y0121771D02*
X0539907Y0121771D01*
X0539380Y0121244D01*
X0543227Y0121771D02*
X0543429Y0121974D01*
X0567299Y0145971D02*
X0567603Y0145667D01*
X0569501Y0145667D01*
X0587524Y0155990D02*
X0592252Y0160718D01*
X0592252Y0168957D01*
X0594652Y0188557D02*
X0589102Y0194107D01*
X0536224Y0217230D02*
X0536002Y0217007D01*
X0536224Y0217230D02*
X0541684Y0217230D01*
X0533752Y0221007D02*
X0532511Y0222248D01*
X0528439Y0222248D01*
X0528439Y0219748D02*
X0532493Y0219748D01*
X0533752Y0221007D01*
X0513164Y0209375D02*
X0512799Y0209011D01*
X0512799Y0199533D01*
X0524138Y0187328D02*
X0524138Y0176382D01*
X0523061Y0175306D01*
X0523061Y0173409D01*
X0523744Y0172726D01*
X0523744Y0163706D01*
X0525319Y0163706D02*
X0525319Y0174324D01*
X0525352Y0174357D01*
X0514882Y0182257D02*
X0513282Y0182257D01*
X0512282Y0181257D01*
X0509571Y0163706D02*
X0509369Y0163504D01*
X0563284Y0222230D02*
X0568552Y0222230D01*
X0582474Y0222230D02*
X0591262Y0231018D01*
X0591262Y0237870D01*
X0262524Y0365557D02*
X0256351Y0365557D01*
X0255952Y0365157D01*
X0525652Y0092057D02*
X0528652Y0092057D01*
X0530452Y0093857D01*
X0530452Y0095057D01*
X0531252Y0095857D01*
X0535252Y0060257D02*
X0538152Y0057357D01*
X0281982Y0061457D02*
X0281982Y0043680D01*
X0200282Y0043680D02*
X0200282Y0029857D01*
X0190282Y0043680D02*
X0190282Y0057857D01*
X0195230Y0062806D01*
D117*
X0188882Y0073757D03*
X0184882Y0074257D03*
X0261982Y0056057D03*
X0298882Y0064257D03*
X0304882Y0064257D03*
X0318882Y0064257D03*
X0322882Y0064257D03*
X0335882Y0062257D03*
X0343382Y0062257D03*
X0347382Y0062257D03*
X0350882Y0056757D03*
X0369482Y0070857D03*
X0374082Y0070857D03*
X0364282Y0077657D03*
X0353882Y0080257D03*
X0350882Y0077757D03*
X0332882Y0079757D03*
X0324882Y0080757D03*
X0318882Y0080757D03*
X0312882Y0080757D03*
X0311882Y0088757D03*
X0302382Y0095757D03*
X0296382Y0098757D03*
X0289882Y0096257D03*
X0284382Y0096757D03*
X0276882Y0089757D03*
X0276882Y0086257D03*
X0293882Y0075757D03*
X0340882Y0085757D03*
X0345382Y0087257D03*
X0340382Y0092257D03*
X0355752Y0098257D03*
X0332982Y0106257D03*
X0329582Y0106257D03*
X0347482Y0114457D03*
X0348882Y0110757D03*
X0315252Y0124257D03*
X0304882Y0118257D03*
X0300882Y0118257D03*
X0325752Y0130457D03*
X0342652Y0130457D03*
X0349352Y0128957D03*
X0353252Y0128857D03*
X0364252Y0131357D03*
X0364452Y0136157D03*
X0354252Y0138957D03*
X0344052Y0138957D03*
X0344052Y0142357D03*
X0350352Y0148657D03*
X0354752Y0149957D03*
X0344052Y0151957D03*
X0344152Y0160057D03*
X0332791Y0165257D03*
X0318352Y0160257D03*
X0308052Y0164457D03*
X0295752Y0155257D03*
X0288452Y0164457D03*
X0263952Y0151057D03*
X0282052Y0146157D03*
X0295652Y0145557D03*
X0318552Y0145957D03*
X0318352Y0152957D03*
X0352052Y0168857D03*
X0352752Y0174257D03*
X0361752Y0176257D03*
X0370752Y0169757D03*
X0377752Y0169757D03*
X0375752Y0159757D03*
X0359252Y0166757D03*
X0384252Y0146257D03*
X0406152Y0138157D03*
X0403352Y0135657D03*
X0403252Y0130757D03*
X0407752Y0133257D03*
X0397452Y0135657D03*
X0388152Y0126257D03*
X0389752Y0121757D03*
X0379352Y0126257D03*
X0404082Y0115157D03*
X0422682Y0121357D03*
X0421582Y0124857D03*
X0419082Y0127157D03*
X0433152Y0130057D03*
X0435352Y0132857D03*
X0442682Y0137957D03*
X0434452Y0147757D03*
X0433052Y0151357D03*
X0435652Y0157157D03*
X0442352Y0154257D03*
X0459552Y0158857D03*
X0468752Y0165757D03*
X0473252Y0170257D03*
X0479752Y0168357D03*
X0491882Y0169257D03*
X0498952Y0174757D03*
X0507352Y0171157D03*
X0515252Y0173757D03*
X0507752Y0177757D03*
X0514882Y0182257D03*
X0520152Y0191157D03*
X0533752Y0187757D03*
X0539252Y0187257D03*
X0543882Y0188257D03*
X0551882Y0184257D03*
X0556352Y0180857D03*
X0551152Y0177257D03*
X0549952Y0170157D03*
X0547252Y0168057D03*
X0539382Y0165257D03*
X0531852Y0158157D03*
X0531752Y0154757D03*
X0534252Y0152457D03*
X0538152Y0149857D03*
X0535752Y0143757D03*
X0538152Y0140757D03*
X0535752Y0135257D03*
X0530752Y0137657D03*
X0526252Y0129757D03*
X0530252Y0129257D03*
X0531752Y0123757D03*
X0532382Y0119757D03*
X0528052Y0118557D03*
X0516452Y0121457D03*
X0522252Y0126257D03*
X0516982Y0131957D03*
X0513582Y0131857D03*
X0516882Y0135357D03*
X0496952Y0134557D03*
X0480252Y0143757D03*
X0474252Y0143757D03*
X0484882Y0150757D03*
X0478652Y0157957D03*
X0496952Y0152357D03*
X0505652Y0149157D03*
X0509352Y0149557D03*
X0513252Y0146357D03*
X0519252Y0152257D03*
X0528452Y0158257D03*
X0531852Y0146657D03*
X0550952Y0141657D03*
X0564752Y0149557D03*
X0568552Y0147957D03*
X0568652Y0142457D03*
X0575052Y0138457D03*
X0570952Y0133457D03*
X0567852Y0128257D03*
X0572752Y0117357D03*
X0573652Y0110357D03*
X0561152Y0113057D03*
X0555252Y0113057D03*
X0549252Y0106557D03*
X0546452Y0104157D03*
X0553752Y0096257D03*
X0550752Y0094257D03*
X0547252Y0094257D03*
X0550752Y0087957D03*
X0559552Y0093857D03*
X0575252Y0085757D03*
X0554752Y0079257D03*
X0541752Y0070257D03*
X0538752Y0072257D03*
X0536352Y0077107D03*
X0528052Y0070557D03*
X0530852Y0060157D03*
X0535252Y0060257D03*
X0541752Y0060257D03*
X0579082Y0071757D03*
X0582482Y0070557D03*
X0612482Y0063357D03*
X0612482Y0059957D03*
X0622482Y0064657D03*
X0619382Y0069457D03*
X0630382Y0064157D03*
X0634682Y0090057D03*
X0549552Y0125157D03*
X0530882Y0106457D03*
X0525452Y0100357D03*
X0522352Y0096857D03*
X0525652Y0092057D03*
X0531252Y0095857D03*
X0517752Y0088757D03*
X0511252Y0086257D03*
X0508352Y0080457D03*
X0503752Y0086257D03*
X0496652Y0086357D03*
X0490852Y0094557D03*
X0487252Y0094457D03*
X0483652Y0094157D03*
X0479882Y0097157D03*
X0477352Y0094757D03*
X0474352Y0097057D03*
X0476952Y0099357D03*
X0479452Y0101757D03*
X0469252Y0105257D03*
X0463682Y0109157D03*
X0456552Y0113457D03*
X0452652Y0111757D03*
X0448082Y0113357D03*
X0443452Y0107757D03*
X0442752Y0103757D03*
X0435682Y0105457D03*
X0428652Y0101257D03*
X0436882Y0095257D03*
X0434252Y0092057D03*
X0423952Y0091857D03*
X0427552Y0083757D03*
X0425052Y0081057D03*
X0432382Y0073257D03*
X0438382Y0074757D03*
X0451561Y0075249D03*
X0461652Y0080657D03*
X0456252Y0084257D03*
X0450252Y0084757D03*
X0457407Y0095603D03*
X0463252Y0088257D03*
X0466252Y0085757D03*
X0469252Y0090157D03*
X0444352Y0096557D03*
X0475582Y0115457D03*
X0475782Y0118957D03*
X0472382Y0118957D03*
X0468982Y0118957D03*
X0484152Y0116757D03*
X0487252Y0113257D03*
X0489752Y0110757D03*
X0494982Y0110957D03*
X0493752Y0115757D03*
X0483982Y0123657D03*
X0519082Y0106057D03*
X0503002Y0104257D03*
X0498752Y0103257D03*
X0528052Y0086157D03*
X0516252Y0078957D03*
X0482752Y0078757D03*
X0475252Y0072257D03*
X0467252Y0072257D03*
X0467252Y0064257D03*
X0475252Y0064257D03*
X0458852Y0058557D03*
X0452382Y0062257D03*
X0462252Y0052757D03*
X0461882Y0044257D03*
X0463382Y0037757D03*
X0471882Y0033257D03*
X0441482Y0022257D03*
X0437182Y0022257D03*
X0433382Y0022257D03*
X0425182Y0021257D03*
X0417282Y0021257D03*
X0413382Y0021257D03*
X0409382Y0021257D03*
X0405482Y0021257D03*
X0418382Y0039757D03*
X0427882Y0040257D03*
X0377882Y0056257D03*
X0365982Y0084157D03*
X0310382Y0098257D03*
X0306182Y0055757D03*
X0200282Y0029857D03*
X0203252Y0112257D03*
X0199882Y0118757D03*
X0199882Y0122257D03*
X0197782Y0131057D03*
X0202082Y0131057D03*
X0195182Y0136257D03*
X0212252Y0139857D03*
X0219352Y0140257D03*
X0219152Y0148957D03*
X0216652Y0151557D03*
X0216252Y0158257D03*
X0200752Y0163457D03*
X0194882Y0176257D03*
X0176482Y0177157D03*
X0176382Y0173657D03*
X0135982Y0180757D03*
X0110482Y0189257D03*
X0106982Y0189257D03*
X0107482Y0193757D03*
X0102482Y0200257D03*
X0118982Y0199757D03*
X0124682Y0207557D03*
X0128082Y0207557D03*
X0130982Y0205257D03*
X0113982Y0211157D03*
X0130382Y0227457D03*
X0186882Y0250657D03*
X0195673Y0249952D03*
X0202452Y0247357D03*
X0182552Y0262557D03*
X0204752Y0269857D03*
X0210752Y0269757D03*
X0207652Y0276057D03*
X0195152Y0280757D03*
X0182652Y0279157D03*
X0166852Y0272157D03*
X0140452Y0279557D03*
X0152152Y0284357D03*
X0168052Y0292257D03*
X0156952Y0300757D03*
X0157152Y0310857D03*
X0163752Y0313257D03*
X0173252Y0317257D03*
X0173252Y0324757D03*
X0167752Y0333257D03*
X0173252Y0337257D03*
X0160752Y0333257D03*
X0152452Y0332457D03*
X0144852Y0332557D03*
X0137052Y0333057D03*
X0159252Y0342657D03*
X0173252Y0344757D03*
X0207352Y0357157D03*
X0214152Y0359057D03*
X0207952Y0365157D03*
X0235052Y0354457D03*
X0255952Y0365157D03*
X0259252Y0365257D03*
X0264652Y0365157D03*
X0268352Y0365257D03*
X0282752Y0375757D03*
X0268352Y0382057D03*
X0256052Y0382657D03*
X0234752Y0384557D03*
X0238952Y0397657D03*
X0280252Y0396457D03*
X0242052Y0368957D03*
X0282952Y0354557D03*
X0271352Y0349157D03*
X0272552Y0345657D03*
X0272552Y0334257D03*
X0268052Y0334257D03*
X0259452Y0332957D03*
X0259552Y0324157D03*
X0234752Y0318257D03*
X0222252Y0328457D03*
X0209052Y0334257D03*
X0207752Y0326757D03*
X0227034Y0302508D03*
X0234552Y0278957D03*
X0232752Y0250757D03*
X0270352Y0252357D03*
X0302752Y0261557D03*
X0327152Y0272857D03*
X0340852Y0270657D03*
X0356252Y0278457D03*
X0368452Y0278457D03*
X0362352Y0285457D03*
X0381752Y0288357D03*
X0384252Y0290657D03*
X0383752Y0298257D03*
X0414252Y0305757D03*
X0416252Y0296757D03*
X0420252Y0297257D03*
X0437252Y0289757D03*
X0446852Y0280657D03*
X0455152Y0285157D03*
X0480252Y0287757D03*
X0494252Y0282757D03*
X0487252Y0268757D03*
X0509352Y0266257D03*
X0523452Y0264757D03*
X0525882Y0274257D03*
X0512452Y0293257D03*
X0509052Y0293057D03*
X0530082Y0299457D03*
X0536652Y0303057D03*
X0587752Y0316257D03*
X0593752Y0316257D03*
X0603132Y0327257D03*
X0599752Y0330757D03*
X0583452Y0330957D03*
X0567852Y0336157D03*
X0558552Y0335857D03*
X0527182Y0346257D03*
X0525752Y0340257D03*
X0504752Y0339257D03*
X0498252Y0339757D03*
X0484052Y0329157D03*
X0438882Y0335757D03*
X0454752Y0356757D03*
X0469752Y0360757D03*
X0466252Y0364007D03*
X0484752Y0358257D03*
X0507882Y0374757D03*
X0534052Y0367257D03*
X0523752Y0352757D03*
X0572132Y0362507D03*
X0594752Y0369257D03*
X0607752Y0379257D03*
X0611152Y0353357D03*
X0604452Y0353157D03*
X0600952Y0353157D03*
X0602052Y0341757D03*
X0598452Y0341857D03*
X0593752Y0277257D03*
X0593752Y0272257D03*
X0588752Y0277257D03*
X0582752Y0275257D03*
X0593752Y0267257D03*
X0606752Y0261257D03*
X0611752Y0264257D03*
X0616752Y0264257D03*
X0621752Y0264257D03*
X0626752Y0267257D03*
X0626752Y0272257D03*
X0626752Y0277257D03*
X0614752Y0277257D03*
X0610252Y0277257D03*
X0605752Y0277257D03*
X0579752Y0262257D03*
X0579752Y0257257D03*
X0570552Y0250157D03*
X0579452Y0245157D03*
X0586952Y0246357D03*
X0596252Y0244757D03*
X0575382Y0231257D03*
X0571552Y0227657D03*
X0556843Y0227257D03*
X0550002Y0227257D03*
X0533752Y0221007D03*
X0536002Y0217007D03*
X0519652Y0224757D03*
X0513852Y0231657D03*
X0517852Y0234157D03*
X0518252Y0246757D03*
X0546882Y0248757D03*
X0555752Y0243757D03*
X0557382Y0248757D03*
X0598252Y0223757D03*
X0582552Y0217957D03*
X0579152Y0215157D03*
X0588052Y0215457D03*
X0590352Y0212857D03*
X0594152Y0215457D03*
X0562452Y0199957D03*
X0567152Y0196057D03*
X0564752Y0193257D03*
X0589102Y0194107D03*
X0570882Y0174257D03*
X0525352Y0174357D03*
X0498502Y0181757D03*
X0486252Y0191757D03*
X0490382Y0195757D03*
X0477882Y0195757D03*
X0493752Y0201857D03*
X0498952Y0219057D03*
X0500452Y0225257D03*
X0429552Y0192257D03*
X0436202Y0191607D03*
X0458752Y0183757D03*
X0466952Y0181357D03*
X0462852Y0175757D03*
X0474502Y0181257D03*
X0452252Y0170057D03*
X0444682Y0168857D03*
X0343252Y0193757D03*
X0322752Y0191257D03*
X0319252Y0190257D03*
X0313752Y0191257D03*
X0307252Y0202357D03*
X0309752Y0211557D03*
X0303382Y0211257D03*
X0317152Y0210557D03*
X0322652Y0204657D03*
X0343152Y0212957D03*
X0332852Y0213057D03*
X0331852Y0226457D03*
X0342352Y0231257D03*
X0366752Y0244257D03*
X0363052Y0252357D03*
X0386652Y0256257D03*
X0394752Y0256757D03*
X0393782Y0250357D03*
X0393782Y0244057D03*
X0383752Y0242257D03*
X0314252Y0228257D03*
X0310452Y0225157D03*
X0309752Y0221757D03*
X0306352Y0226757D03*
X0302952Y0221857D03*
X0275152Y0229557D03*
X0224352Y0225457D03*
X0203282Y0200857D03*
X0250252Y0189057D03*
X0238752Y0183757D03*
X0230752Y0173857D03*
X0230752Y0170557D03*
X0236652Y0148657D03*
X0202752Y0147757D03*
X0187382Y0115757D03*
X0124382Y0109857D03*
X0124139Y0169730D03*
X0094482Y0170757D03*
X0300852Y0279157D03*
X0328882Y0281757D03*
X0307752Y0308257D03*
X0304252Y0308257D03*
X0285552Y0315057D03*
X0285552Y0318357D03*
X0280952Y0320757D03*
X0371252Y0323257D03*
X0434252Y0313257D03*
X0439252Y0311257D03*
X0415952Y0283757D03*
X0623752Y0246257D03*
X0657382Y0212257D03*
X0560252Y0152757D03*
X0548382Y0017257D03*
X0557982Y0012057D03*
X0537982Y0011957D03*
X0527982Y0011957D03*
X0515182Y0011557D03*
X0507882Y0011457D03*
X0587982Y0012457D03*
X0597882Y0012557D03*
X0617382Y0011257D03*
X0132252Y0289757D03*
X0137252Y0313357D03*
X0112382Y0384257D03*
X0179552Y0380557D03*
D118*
X0160248Y0326084D02*
X0160248Y0317816D01*
X0160248Y0307549D01*
X0160461Y0307336D01*
X0182494Y0274659D02*
X0182494Y0272515D01*
X0183752Y0271257D01*
X0187752Y0271257D01*
X0188752Y0270257D01*
X0188752Y0268023D01*
X0188694Y0267966D01*
X0314182Y0231057D02*
X0314382Y0231057D01*
X0342646Y0175864D02*
X0346374Y0175864D01*
X0346287Y0169257D02*
X0346374Y0169171D01*
X0346287Y0169257D02*
X0341252Y0169257D01*
X0339484Y0167490D01*
X0339484Y0160312D01*
X0332791Y0160312D02*
X0332791Y0165257D01*
X0332791Y0167218D01*
X0330752Y0169257D01*
X0326382Y0169257D01*
X0326295Y0169171D01*
X0359252Y0166757D02*
X0359252Y0161576D01*
X0358972Y0161297D01*
X0364752Y0151257D02*
X0370587Y0151257D01*
X0370783Y0151454D01*
X0375752Y0159757D02*
X0375606Y0159903D01*
X0375606Y0163954D01*
X0378165Y0163954D02*
X0378165Y0161344D01*
X0378752Y0160757D01*
X0382252Y0160757D01*
X0384252Y0162757D01*
X0384752Y0169257D02*
X0384752Y0171757D01*
X0383252Y0173257D01*
X0383252Y0177257D01*
X0382252Y0178257D01*
X0378752Y0178257D01*
X0378165Y0177671D01*
X0378165Y0175568D01*
X0384252Y0146257D02*
X0382756Y0144761D01*
X0379445Y0144761D01*
X0384252Y0141257D02*
X0384252Y0139757D01*
X0382169Y0137675D01*
X0379445Y0137675D01*
X0384252Y0141257D02*
X0387752Y0144757D01*
X0338697Y0145745D02*
X0338697Y0138659D01*
X0253812Y0132151D02*
X0249276Y0132151D01*
X0248882Y0131757D01*
X0248882Y0128757D01*
X0244882Y0124757D01*
X0244882Y0115527D01*
X0244931Y0115478D01*
X0238731Y0115478D02*
X0238731Y0120408D01*
X0236988Y0122151D01*
X0232212Y0122151D01*
X0212254Y0139859D02*
X0212252Y0139857D01*
X0212254Y0139859D02*
X0212254Y0145005D01*
X0124882Y0187257D02*
X0122482Y0187257D01*
X0121159Y0185934D01*
X0118628Y0185934D01*
X0109159Y0185934D01*
X0107482Y0184257D01*
X0107482Y0175757D01*
X0108582Y0174657D01*
X0110982Y0174657D01*
X0099482Y0181857D02*
X0098982Y0181357D01*
X0099482Y0181857D02*
X0099482Y0185257D01*
X0100159Y0185934D01*
X0102486Y0185934D01*
X0102486Y0187903D02*
X0096728Y0187903D01*
X0096582Y0187757D01*
X0102486Y0189871D02*
X0106368Y0189871D01*
X0106982Y0189257D01*
X0110482Y0189257D02*
X0111836Y0187903D01*
X0118628Y0187903D01*
X0118628Y0189871D02*
X0115368Y0189871D01*
X0113850Y0191390D01*
X0113850Y0200301D01*
X0113982Y0200433D01*
X0118982Y0199757D02*
X0121936Y0199757D01*
X0121959Y0199734D01*
X0122482Y0200257D01*
X0124882Y0200257D01*
X0121959Y0199734D02*
X0121959Y0195280D01*
X0120487Y0193808D01*
X0118628Y0193808D01*
X0118628Y0191840D02*
X0121065Y0191840D01*
X0122982Y0193757D01*
X0124882Y0193757D01*
X0107482Y0193757D02*
X0107431Y0193808D01*
X0102486Y0193808D01*
X0284382Y0096757D02*
X0285382Y0096757D01*
X0286382Y0095757D01*
X0286382Y0083757D01*
X0287622Y0082517D01*
X0292025Y0082517D01*
X0281739Y0082517D02*
X0281739Y0086257D01*
X0281739Y0082517D02*
X0280142Y0082517D01*
X0278882Y0081257D01*
X0278882Y0078257D01*
X0280882Y0076257D01*
X0282782Y0076257D01*
X0282782Y0069757D01*
X0429087Y0030415D02*
X0433024Y0030415D01*
X0433024Y0022616D01*
X0433382Y0022257D01*
X0447760Y0098549D02*
X0451500Y0098549D01*
X0452091Y0099139D01*
X0566352Y0161757D02*
X0566352Y0167757D01*
X0420252Y0297257D02*
X0420059Y0297450D01*
X0420059Y0302220D01*
X0420096Y0302257D01*
X0423752Y0302257D01*
X0424969Y0301040D01*
X0427126Y0301040D01*
X0518232Y0346433D02*
X0527006Y0346433D01*
X0527182Y0346257D01*
X0507882Y0374757D02*
X0498575Y0374757D01*
X0498547Y0374730D01*
D119*
X0460014Y0356226D02*
X0459483Y0356757D01*
X0454752Y0356757D01*
X0495752Y0343757D02*
X0495752Y0342257D01*
X0498252Y0339757D01*
X0499704Y0344218D02*
X0496213Y0344218D01*
X0495752Y0343757D01*
X0499704Y0347958D02*
X0503551Y0347958D01*
X0504752Y0346757D01*
X0504752Y0339257D01*
X0525663Y0340168D02*
X0525663Y0334572D01*
X0525663Y0340168D02*
X0525752Y0340257D01*
X0523628Y0352633D02*
X0518232Y0352633D01*
X0523628Y0352633D02*
X0523752Y0352757D01*
X0585626Y0340131D02*
X0585626Y0335994D01*
X0585626Y0340131D02*
X0586252Y0340757D01*
X0592752Y0340757D01*
X0593252Y0340257D01*
X0593252Y0336045D01*
X0593303Y0335994D01*
X0593303Y0332206D01*
X0594752Y0330757D01*
X0599752Y0330757D01*
X0602752Y0330757D01*
X0605752Y0330757D01*
X0606098Y0331104D01*
X0606098Y0335994D01*
X0603539Y0335994D02*
X0603539Y0331545D01*
X0602752Y0330757D01*
X0593795Y0320886D02*
X0593795Y0316301D01*
X0593752Y0316257D01*
X0587752Y0316257D02*
X0587496Y0316513D01*
X0587496Y0320886D01*
X0595862Y0363159D02*
X0595862Y0368147D01*
X0594752Y0369257D01*
X0603244Y0379448D02*
X0607561Y0379448D01*
X0607752Y0379257D01*
X0489952Y0305057D02*
X0489952Y0285157D01*
X0488552Y0285157D02*
X0488552Y0299587D01*
X0485437Y0302702D01*
X0471652Y0302702D01*
X0471452Y0302502D01*
X0471452Y0298757D01*
X0470397Y0297702D01*
X0465505Y0297702D01*
X0465505Y0292702D02*
X0483937Y0292702D01*
X0487152Y0289487D01*
X0487152Y0285257D01*
X0455152Y0285157D02*
X0455068Y0285242D01*
X0449931Y0285242D01*
X0443752Y0285220D02*
X0443731Y0285242D01*
X0443646Y0285157D01*
X0440052Y0285157D01*
X0439452Y0285757D01*
X0439452Y0289757D01*
X0437252Y0289757D01*
X0439452Y0289757D02*
X0439452Y0291957D01*
X0440197Y0292702D01*
X0443905Y0292702D01*
X0443905Y0297702D02*
X0432197Y0297702D01*
X0431252Y0298647D01*
X0431252Y0304807D01*
X0427589Y0308470D01*
X0420109Y0308470D01*
X0420059Y0308420D01*
X0415089Y0308420D01*
X0411752Y0311757D01*
X0398252Y0311757D01*
X0396315Y0309820D01*
X0396315Y0305737D01*
X0386713Y0304331D02*
X0380325Y0304331D01*
X0378988Y0302994D01*
X0378988Y0299295D01*
X0375238Y0299295D02*
X0375238Y0294744D01*
X0373179Y0292684D01*
X0368311Y0292684D01*
X0369252Y0305257D02*
X0366371Y0308138D01*
X0367374Y0309142D01*
X0367374Y0316635D01*
X0367252Y0316757D01*
X0366874Y0316980D01*
X0375748Y0316980D02*
X0380752Y0316980D01*
X0380752Y0326757D01*
X0378752Y0328757D01*
X0325752Y0328757D01*
X0315850Y0338659D01*
X0315850Y0343273D01*
X0282952Y0351993D02*
X0281634Y0350675D01*
X0279534Y0350675D01*
X0279152Y0351057D01*
X0279152Y0354527D01*
X0279157Y0354533D01*
X0282952Y0354557D02*
X0282952Y0351993D01*
X0274039Y0354533D02*
X0274039Y0347145D01*
X0272552Y0345657D01*
X0271352Y0349157D02*
X0271480Y0349286D01*
X0271480Y0354533D01*
X0268921Y0354533D02*
X0268921Y0349857D01*
X0266752Y0349857D01*
X0266362Y0350247D01*
X0266362Y0354533D01*
X0263803Y0354533D02*
X0263803Y0364277D01*
X0262524Y0365557D01*
X0264024Y0367057D01*
X0268752Y0367057D01*
X0268921Y0367227D01*
X0268921Y0376580D01*
X0266362Y0376580D02*
X0266362Y0381957D01*
X0266462Y0382057D01*
X0268352Y0382057D01*
X0270552Y0382057D01*
X0271480Y0381129D01*
X0271480Y0376580D01*
X0274039Y0376580D02*
X0274039Y0391760D01*
X0273477Y0392322D01*
X0273552Y0392397D01*
X0273552Y0395557D01*
X0272652Y0396457D01*
X0264152Y0396457D01*
X0263252Y0395557D01*
X0263252Y0388757D01*
X0263803Y0388206D01*
X0263803Y0376580D01*
X0261244Y0376580D02*
X0261244Y0384065D01*
X0259577Y0385732D01*
X0259577Y0392330D01*
X0259752Y0392505D01*
X0259752Y0395357D01*
X0258952Y0396157D01*
X0250352Y0396157D01*
X0249352Y0395157D01*
X0249352Y0389557D01*
X0251008Y0387901D01*
X0251008Y0376580D01*
X0253567Y0376580D02*
X0253567Y0382657D01*
X0256052Y0382657D01*
X0257852Y0382657D01*
X0258685Y0381824D01*
X0258685Y0376580D01*
X0256126Y0376580D02*
X0256126Y0367083D01*
X0256152Y0367057D01*
X0257652Y0367057D01*
X0255102Y0364507D01*
X0253652Y0365957D01*
X0252952Y0365957D01*
X0251008Y0364013D01*
X0251008Y0354533D01*
X0253567Y0354533D02*
X0253567Y0362972D01*
X0255102Y0364507D01*
X0257652Y0367057D02*
X0261023Y0367057D01*
X0262524Y0365557D01*
X0242052Y0368957D02*
X0241896Y0369013D01*
X0236728Y0369013D01*
X0245890Y0376580D02*
X0245890Y0381257D01*
X0248052Y0381257D01*
X0248449Y0380860D01*
X0248449Y0376580D01*
X0245890Y0381257D02*
X0245890Y0385340D01*
X0245988Y0385438D01*
X0252752Y0388357D02*
X0252752Y0392197D01*
X0252884Y0392330D01*
X0252752Y0388357D02*
X0253567Y0387542D01*
X0253567Y0382657D01*
X0266362Y0381957D02*
X0266362Y0391900D01*
X0266784Y0392322D01*
X0277052Y0380857D02*
X0278663Y0380857D01*
X0279157Y0380363D01*
X0280052Y0381257D01*
X0280052Y0384069D01*
X0280240Y0384257D01*
X0279157Y0380363D02*
X0279157Y0376580D01*
X0276598Y0376580D02*
X0276598Y0380404D01*
X0277052Y0380857D01*
X0261244Y0354533D02*
X0261244Y0344592D01*
X0261343Y0344494D01*
X0264216Y0344494D01*
X0264652Y0344057D01*
X0264652Y0342257D01*
X0265752Y0341157D01*
X0278400Y0341157D01*
X0280862Y0343620D01*
X0272552Y0334257D02*
X0272452Y0334257D01*
X0270061Y0331867D01*
X0267062Y0331867D01*
X0265171Y0333757D01*
X0263652Y0333757D01*
X0261852Y0335557D01*
X0261852Y0337291D01*
X0261343Y0337801D01*
X0257526Y0334883D02*
X0259452Y0332957D01*
X0257526Y0334883D02*
X0257526Y0349631D01*
X0258685Y0350790D01*
X0258685Y0354533D01*
X0256126Y0354533D02*
X0256126Y0329041D01*
X0255634Y0328549D01*
X0263508Y0328549D01*
X0259552Y0324157D02*
X0257052Y0324157D01*
X0255852Y0322957D01*
X0255852Y0320105D01*
X0255634Y0319887D01*
X0263508Y0319887D01*
X0280052Y0319757D02*
X0280952Y0320657D01*
X0280952Y0320757D01*
X0268052Y0334257D02*
X0268035Y0334274D01*
X0268035Y0338441D01*
X0268035Y0344641D02*
X0268035Y0347441D01*
X0268921Y0348327D01*
X0268921Y0349857D01*
X0248449Y0350057D02*
X0248449Y0346167D01*
X0248350Y0346068D01*
X0240476Y0346068D01*
X0245890Y0350520D02*
X0246352Y0350057D01*
X0248449Y0350057D01*
X0248449Y0354533D01*
X0245890Y0354533D02*
X0245890Y0350520D01*
X0235052Y0354457D02*
X0231765Y0351171D01*
X0226524Y0351171D01*
X0213594Y0334257D02*
X0209052Y0334257D01*
X0216619Y0322824D02*
X0222252Y0328457D01*
X0216619Y0322824D02*
X0214713Y0322824D01*
X0172152Y0308257D02*
X0166941Y0313468D01*
X0166941Y0317816D01*
X0163752Y0313257D02*
X0165552Y0311457D01*
X0166252Y0311457D01*
X0167941Y0309768D01*
X0167941Y0307336D01*
X0164201Y0307336D02*
X0164201Y0303006D01*
X0162052Y0300857D01*
X0156952Y0300757D01*
X0164201Y0297100D02*
X0164201Y0293706D01*
X0161752Y0291257D01*
X0159252Y0291257D01*
X0156252Y0288257D01*
X0156252Y0279627D01*
X0166854Y0278450D02*
X0166854Y0272160D01*
X0166852Y0272157D01*
X0182494Y0279315D02*
X0182494Y0283714D01*
X0182494Y0279315D02*
X0182652Y0279157D01*
X0188694Y0280815D02*
X0192064Y0277445D01*
X0199454Y0277445D01*
X0206264Y0277445D01*
X0207652Y0276057D01*
X0211752Y0276257D02*
X0211752Y0273257D01*
X0212682Y0272327D01*
X0216088Y0272327D01*
X0220682Y0272327D01*
X0221500Y0271509D01*
X0223833Y0271509D01*
X0230033Y0271509D02*
X0230033Y0266038D01*
X0229252Y0265257D01*
X0229252Y0256257D01*
X0227418Y0254423D01*
X0223783Y0254423D01*
X0223783Y0251826D01*
X0225252Y0250357D01*
X0229152Y0250357D01*
X0231152Y0248357D01*
X0238452Y0248357D01*
X0241263Y0251168D01*
X0241263Y0255305D01*
X0216088Y0269768D02*
X0216077Y0269757D01*
X0210752Y0269757D01*
X0204752Y0269857D02*
X0203841Y0269768D01*
X0199454Y0269768D01*
X0211752Y0276257D02*
X0212940Y0277445D01*
X0216088Y0277445D01*
X0219940Y0277445D01*
X0221484Y0278990D01*
X0223046Y0278990D01*
X0229623Y0274886D02*
X0216088Y0274886D01*
X0229623Y0274886D02*
X0230252Y0274257D01*
X0230252Y0271728D01*
X0230033Y0271509D01*
X0188694Y0280815D02*
X0188694Y0283714D01*
X0172152Y0290757D02*
X0172152Y0308257D01*
X0167941Y0297100D02*
X0167941Y0292368D01*
X0168052Y0292257D01*
X0172152Y0290757D02*
X0168506Y0287112D01*
X0163114Y0287112D01*
X0152193Y0289076D02*
X0152152Y0289035D01*
X0152152Y0284357D01*
X0145500Y0279627D02*
X0145430Y0279557D01*
X0140452Y0279557D01*
X0152459Y0310857D02*
X0152390Y0310927D01*
X0152459Y0310857D02*
X0157152Y0310857D01*
X0137252Y0313357D02*
X0137035Y0313574D01*
X0137035Y0319194D01*
X0137035Y0325887D02*
X0137035Y0333041D01*
X0137052Y0333057D01*
X0133352Y0336257D02*
X0159352Y0336257D01*
X0163752Y0340657D01*
X0163752Y0371557D01*
X0170272Y0378077D01*
X0170272Y0387675D01*
X0158124Y0389166D02*
X0158124Y0343786D01*
X0159252Y0342657D01*
X0133352Y0336257D02*
X0129555Y0332460D01*
X0129555Y0325887D01*
X0144516Y0325887D02*
X0144852Y0326223D01*
X0144852Y0332557D01*
X0152452Y0332457D02*
X0152452Y0326343D01*
X0151996Y0325887D01*
X0166941Y0326084D02*
X0166941Y0332446D01*
X0167752Y0333257D01*
X0158124Y0389166D02*
X0154524Y0392766D01*
X0154524Y0395549D01*
X0362831Y0308138D02*
X0366371Y0308138D01*
X0369252Y0305257D02*
X0377752Y0305257D01*
X0378988Y0306494D01*
X0378988Y0309581D01*
X0380752Y0316980D02*
X0386975Y0316980D01*
X0389252Y0319257D01*
X0389252Y0326757D01*
X0393752Y0331257D01*
X0403752Y0331257D01*
X0406402Y0333907D01*
X0406402Y0343273D01*
X0434252Y0313257D02*
X0434252Y0308933D01*
X0433789Y0308470D01*
X0437039Y0308470D01*
X0438752Y0306757D01*
X0438752Y0303757D01*
X0439807Y0302702D01*
X0443905Y0302702D01*
X0443905Y0307702D02*
X0440307Y0307702D01*
X0439252Y0308757D01*
X0439252Y0311257D01*
X0414252Y0305757D02*
X0407859Y0305757D01*
X0407839Y0305737D01*
X0407839Y0302344D01*
X0405752Y0300257D01*
X0405752Y0296850D01*
X0405809Y0296793D01*
X0405809Y0293200D01*
X0408752Y0290257D01*
X0434252Y0290257D01*
X0435326Y0291332D01*
X0435326Y0293940D01*
X0430752Y0294757D02*
X0429752Y0293757D01*
X0427309Y0293757D01*
X0427126Y0293940D01*
X0430752Y0294757D02*
X0430752Y0296257D01*
X0432197Y0297702D01*
X0416252Y0296757D02*
X0416217Y0296793D01*
X0412009Y0296793D01*
X0443752Y0285220D02*
X0443752Y0282157D01*
X0465505Y0302702D02*
X0471652Y0302702D01*
X0465505Y0307702D02*
X0487307Y0307702D01*
X0489952Y0305057D01*
X0386898Y0261773D02*
X0386898Y0256503D01*
X0386652Y0256257D01*
X0371543Y0252600D02*
X0363294Y0252600D01*
X0363052Y0252357D01*
X0366827Y0244332D02*
X0371543Y0244332D01*
X0366827Y0244332D02*
X0366752Y0244257D01*
X0383752Y0242257D02*
X0384862Y0243368D01*
X0387980Y0243368D01*
X0342352Y0231257D02*
X0339952Y0231257D01*
X0337543Y0228848D01*
X0330862Y0228848D01*
X0329461Y0227448D01*
X0329461Y0225467D01*
X0329852Y0225077D01*
X0329852Y0223857D01*
X0329315Y0223320D01*
X0327134Y0223320D01*
X0327134Y0221352D02*
X0330446Y0221352D01*
X0331352Y0222257D01*
X0331352Y0224537D01*
X0331852Y0225037D01*
X0331852Y0226457D01*
X0333887Y0225092D02*
X0336484Y0225092D01*
X0333887Y0225092D02*
X0332752Y0223957D01*
X0332752Y0220857D01*
X0331278Y0219383D01*
X0327134Y0219383D01*
X0327134Y0217415D02*
X0336287Y0217415D01*
X0336484Y0217612D01*
X0332852Y0213057D02*
X0330752Y0213057D01*
X0327429Y0209734D01*
X0327429Y0206194D01*
X0322652Y0204657D02*
X0322652Y0210657D01*
X0322311Y0210998D01*
X0322311Y0214560D01*
X0324280Y0214560D02*
X0324280Y0216830D01*
X0321327Y0219782D01*
X0321327Y0220368D01*
X0321327Y0220582D01*
X0318589Y0223320D01*
X0315520Y0223320D01*
X0312289Y0223320D01*
X0310452Y0225157D01*
X0307361Y0225748D02*
X0307361Y0220767D01*
X0308652Y0219477D01*
X0308652Y0219357D01*
X0315494Y0219357D01*
X0315520Y0219383D01*
X0315520Y0217415D02*
X0313509Y0217415D01*
X0313052Y0216957D01*
X0313052Y0213157D01*
X0313352Y0212857D01*
X0313352Y0191657D01*
X0313752Y0191257D01*
X0313130Y0190879D01*
X0307217Y0190879D01*
X0307217Y0197572D02*
X0307252Y0198608D01*
X0307252Y0202357D01*
X0303083Y0206824D02*
X0303083Y0210958D01*
X0303382Y0211257D01*
X0309752Y0211449D02*
X0309752Y0211557D01*
X0309681Y0215923D02*
X0303746Y0221857D01*
X0302952Y0221857D01*
X0307361Y0225748D02*
X0306352Y0226757D01*
X0309752Y0221757D02*
X0310157Y0221352D01*
X0315520Y0221352D01*
X0318374Y0214560D02*
X0318374Y0211779D01*
X0317152Y0210557D01*
X0318374Y0226175D02*
X0318374Y0228135D01*
X0317752Y0228757D01*
X0314752Y0228757D01*
X0314252Y0228257D01*
X0302802Y0261407D02*
X0302802Y0261507D01*
X0302752Y0261557D01*
X0203282Y0206157D02*
X0203282Y0200857D01*
X0250252Y0189057D02*
X0250252Y0183875D01*
X0250157Y0183781D01*
X0243465Y0183781D02*
X0243465Y0170670D01*
X0241615Y0168820D01*
X0236543Y0168820D01*
X0236543Y0173820D02*
X0236506Y0173857D01*
X0230752Y0173857D01*
X0238752Y0183757D02*
X0238776Y0183781D01*
X0243465Y0183781D01*
X0252315Y0173820D02*
X0250752Y0172257D01*
X0250752Y0168757D01*
X0250815Y0168820D01*
X0258143Y0168820D01*
X0258143Y0173820D02*
X0252315Y0173820D01*
X0250752Y0168757D02*
X0250752Y0149891D01*
X0250614Y0149753D01*
X0237552Y0147757D02*
X0236652Y0148657D01*
X0231683Y0148657D01*
X0231004Y0149336D01*
X0237552Y0147757D02*
X0237552Y0133057D01*
X0236646Y0132151D01*
X0232212Y0132151D01*
X0228258Y0132151D01*
X0226378Y0134031D01*
X0224114Y0134031D01*
X0206054Y0145005D02*
X0205752Y0145307D01*
X0205752Y0148757D01*
X0205002Y0149507D01*
X0204502Y0149507D01*
X0202752Y0147757D01*
X0204626Y0149883D02*
X0205002Y0149507D01*
X0204626Y0149883D02*
X0204626Y0151501D01*
X0212106Y0151501D02*
X0212162Y0151557D01*
X0216652Y0151557D01*
X0219152Y0149057D01*
X0219152Y0148957D01*
X0214614Y0156620D02*
X0216252Y0158257D01*
X0214614Y0156620D02*
X0212106Y0156620D01*
X0212106Y0163263D01*
X0211860Y0163509D01*
X0263952Y0151057D02*
X0267252Y0151057D01*
X0267724Y0151530D01*
X0267724Y0154918D01*
X0275205Y0154918D02*
X0275205Y0151805D01*
X0275752Y0151257D01*
X0279252Y0151257D01*
X0280445Y0152450D01*
X0285783Y0152450D01*
X0285783Y0149891D02*
X0282686Y0149891D01*
X0282052Y0149257D01*
X0282052Y0146157D01*
X0285783Y0155009D02*
X0289004Y0155009D01*
X0289752Y0155757D01*
X0289752Y0157568D01*
X0293441Y0157568D01*
X0295752Y0155257D01*
X0300667Y0159242D02*
X0302341Y0157568D01*
X0308815Y0157568D01*
X0300667Y0159242D02*
X0300667Y0164466D01*
X0294467Y0164466D02*
X0288461Y0164466D01*
X0288452Y0164457D01*
X0289752Y0157568D02*
X0285783Y0157568D01*
X0267752Y0164389D02*
X0267724Y0164416D01*
X0318352Y0152957D02*
X0318817Y0153423D01*
X0323933Y0153423D01*
X0338697Y0152438D02*
X0343571Y0152438D01*
X0344052Y0151957D01*
X0350705Y0151905D02*
X0352652Y0149957D01*
X0354752Y0149957D01*
X0355232Y0149477D01*
X0355232Y0144860D01*
X0353264Y0144860D02*
X0353264Y0146530D01*
X0352261Y0147533D01*
X0351476Y0147533D01*
X0350352Y0148657D01*
X0350705Y0151905D02*
X0350705Y0154604D01*
X0350705Y0161297D02*
X0350705Y0165610D01*
X0352052Y0166957D01*
X0352052Y0168857D01*
X0343897Y0160312D02*
X0339484Y0160312D01*
X0343897Y0160312D02*
X0344152Y0160057D01*
X0358972Y0154604D02*
X0358972Y0150178D01*
X0357201Y0148406D01*
X0357201Y0144860D01*
X0360055Y0142005D02*
X0363000Y0142005D01*
X0364052Y0143057D01*
X0364052Y0150557D01*
X0364752Y0151257D01*
X0375152Y0149957D02*
X0376649Y0151454D01*
X0379445Y0151454D01*
X0375152Y0149957D02*
X0375152Y0142257D01*
X0374052Y0141157D01*
X0366452Y0141157D01*
X0363843Y0138548D01*
X0363462Y0138548D01*
X0362982Y0138068D01*
X0360055Y0138068D01*
X0360113Y0136157D02*
X0364452Y0136157D01*
X0365969Y0137675D01*
X0370783Y0137675D01*
X0370783Y0130982D02*
X0370759Y0130957D01*
X0367552Y0130957D01*
X0365452Y0128857D01*
X0356952Y0128857D01*
X0355232Y0130577D01*
X0355232Y0133245D01*
X0353264Y0133245D02*
X0353264Y0128869D01*
X0353252Y0128857D01*
X0351295Y0130901D02*
X0349352Y0128957D01*
X0351295Y0130901D02*
X0351295Y0133245D01*
X0348441Y0136100D02*
X0346555Y0136100D01*
X0345622Y0135167D01*
X0344961Y0135167D01*
X0343552Y0133757D01*
X0343552Y0131357D01*
X0342652Y0130457D01*
X0338369Y0130457D01*
X0338303Y0130391D01*
X0343062Y0136567D02*
X0340970Y0138659D01*
X0338697Y0138659D01*
X0343062Y0136567D02*
X0345042Y0136567D01*
X0346544Y0138068D01*
X0348441Y0138068D01*
X0348441Y0140037D02*
X0345131Y0140037D01*
X0344052Y0138957D01*
X0344404Y0142005D02*
X0344052Y0142357D01*
X0344404Y0142005D02*
X0348441Y0142005D01*
X0351295Y0143190D02*
X0352298Y0142186D01*
X0352323Y0142186D01*
X0354248Y0140261D01*
X0354248Y0139053D01*
X0351295Y0143190D02*
X0351295Y0144860D01*
X0360055Y0140037D02*
X0363011Y0140037D01*
X0365452Y0142477D01*
X0365452Y0143757D01*
X0366456Y0144761D01*
X0370783Y0144761D01*
X0360113Y0136157D02*
X0360055Y0136100D01*
X0357201Y0133245D02*
X0357201Y0130808D01*
X0357752Y0130257D01*
X0363152Y0130257D01*
X0364252Y0131357D01*
X0379352Y0130889D02*
X0379352Y0126257D01*
X0379352Y0130889D02*
X0379445Y0130982D01*
X0388894Y0130982D02*
X0388894Y0126999D01*
X0388152Y0126257D01*
X0403252Y0130757D02*
X0405361Y0132867D01*
X0405361Y0134248D01*
X0406762Y0135648D01*
X0408742Y0135648D01*
X0409733Y0134657D01*
X0424752Y0134657D01*
X0431752Y0127657D01*
X0475172Y0127657D01*
X0477772Y0130257D01*
X0480410Y0132895D01*
X0491358Y0132895D01*
X0491461Y0132997D01*
X0491476Y0134557D02*
X0491461Y0134572D01*
X0491476Y0134557D02*
X0496952Y0134557D01*
X0491461Y0131423D02*
X0480917Y0131423D01*
X0475752Y0126257D01*
X0430752Y0126257D01*
X0423752Y0133257D01*
X0407752Y0133257D01*
X0443452Y0107757D02*
X0450752Y0107757D01*
X0452252Y0106257D01*
X0452252Y0103238D01*
X0452091Y0103076D01*
X0484152Y0116757D02*
X0486219Y0118824D01*
X0491461Y0118824D01*
X0477772Y0130257D02*
X0477752Y0130257D01*
X0520594Y0159415D02*
X0521752Y0158257D01*
X0528452Y0158257D01*
X0528469Y0158274D01*
X0528469Y0163706D01*
X0531618Y0163706D02*
X0531618Y0158391D01*
X0531852Y0158157D01*
X0533193Y0160216D02*
X0534852Y0158557D01*
X0537552Y0158557D01*
X0538352Y0159357D01*
X0538352Y0164227D01*
X0539382Y0165257D01*
X0533193Y0163706D02*
X0533193Y0160216D01*
X0520594Y0159415D02*
X0520594Y0163706D01*
X0506421Y0163706D02*
X0506421Y0170227D01*
X0507352Y0171157D01*
X0504971Y0174976D02*
X0507752Y0177757D01*
X0504971Y0174976D02*
X0504059Y0174976D01*
X0515252Y0173757D02*
X0516986Y0172023D01*
X0519807Y0172023D01*
X0519807Y0178223D02*
X0520152Y0178568D01*
X0520152Y0191157D01*
X0531382Y0185387D02*
X0533752Y0187757D01*
X0531382Y0185387D02*
X0531382Y0181857D01*
X0537882Y0181857D02*
X0537882Y0185887D01*
X0539252Y0187257D01*
X0551882Y0184257D02*
X0558352Y0190727D01*
X0558352Y0210057D01*
X0554452Y0213957D01*
X0554452Y0228957D01*
X0551180Y0232230D01*
X0541684Y0232230D01*
X0532852Y0229657D02*
X0532852Y0227957D01*
X0532252Y0227357D01*
X0528548Y0227357D01*
X0528439Y0227248D01*
X0529752Y0230457D02*
X0532052Y0230457D01*
X0532852Y0229657D01*
X0529752Y0230457D02*
X0528813Y0231397D01*
X0528813Y0234179D01*
X0528813Y0238118D01*
X0529452Y0238757D01*
X0534252Y0238757D01*
X0539652Y0244157D01*
X0547552Y0244157D01*
X0547710Y0243999D01*
X0547710Y0238903D01*
X0550806Y0238903D01*
X0551652Y0238057D01*
X0551652Y0236057D01*
X0552652Y0235057D01*
X0561352Y0235057D01*
X0562052Y0235757D01*
X0562052Y0238734D01*
X0561883Y0238903D01*
X0596380Y0237870D02*
X0596380Y0244629D01*
X0596252Y0244757D01*
X0598203Y0229454D02*
X0598203Y0223806D01*
X0598252Y0223757D01*
X0527308Y0246784D02*
X0510674Y0246784D01*
X0510701Y0246757D01*
X0518252Y0246757D01*
X0517852Y0234157D02*
X0522591Y0234157D01*
X0522613Y0234179D01*
X0480282Y0200257D02*
X0477288Y0200257D01*
X0466882Y0189852D01*
X0466882Y0186757D01*
X0467482Y0186157D01*
X0474382Y0186157D01*
X0486673Y0178116D02*
X0486673Y0174679D01*
X0485252Y0173257D01*
X0479702Y0173257D01*
X0479650Y0173205D01*
X0479650Y0168460D01*
X0479752Y0168357D01*
X0538152Y0140757D02*
X0539841Y0142446D01*
X0543429Y0142446D01*
X0547141Y0142446D01*
X0548752Y0144057D01*
X0554452Y0144057D01*
X0556063Y0142446D01*
X0558439Y0142446D01*
X0564639Y0142446D02*
X0568641Y0142446D01*
X0568652Y0142457D01*
X0550952Y0141657D02*
X0550166Y0140871D01*
X0543429Y0140871D01*
X0554896Y0118037D02*
X0554896Y0113413D01*
X0555252Y0113057D01*
X0555252Y0111596D01*
X0558552Y0108296D01*
X0558552Y0094857D01*
X0559552Y0093857D01*
X0561152Y0113057D02*
X0561096Y0113113D01*
X0561096Y0118037D01*
X0467252Y0064257D02*
X0466461Y0063466D01*
X0466461Y0057604D01*
X0464492Y0057604D01*
X0455082Y0039057D02*
X0455082Y0035857D01*
X0458682Y0032257D01*
X0458682Y0013357D01*
X0455282Y0009957D01*
X0408182Y0009957D01*
X0406182Y0011957D01*
X0318982Y0064357D02*
X0318882Y0064257D01*
X0318982Y0064357D02*
X0318982Y0069757D01*
X0305925Y0068533D02*
X0305925Y0065301D01*
X0304882Y0064257D01*
X0332752Y0075857D02*
X0332752Y0079627D01*
X0332882Y0079757D01*
X0333957Y0084214D02*
X0330807Y0084214D01*
X0327657Y0084214D02*
X0327657Y0083533D01*
X0324882Y0080757D01*
X0337106Y0084214D02*
X0339339Y0084214D01*
X0340882Y0085757D01*
X0339425Y0091301D02*
X0340382Y0092257D01*
X0339425Y0091301D02*
X0337106Y0091301D01*
X0337482Y0091676D01*
X0337482Y0098257D01*
X0337106Y0091301D02*
X0333957Y0091301D01*
X0281739Y0089997D02*
X0277122Y0089997D01*
X0276882Y0089757D01*
X0180282Y0043680D02*
X0180282Y0017157D01*
X0110420Y0112108D02*
X0110420Y0136991D01*
X0107685Y0139726D01*
D120*
X0456421Y0098549D02*
X0458961Y0098549D01*
X0461126Y0100714D01*
X0462770Y0100714D01*
X0543429Y0120399D02*
X0548110Y0120399D01*
X0550472Y0118037D01*
X0554896Y0118037D01*
X0491461Y0139297D02*
X0480387Y0139297D01*
X0504846Y0163706D02*
X0504846Y0171163D01*
X0504059Y0171950D01*
X0504059Y0174976D01*
X0519807Y0172023D02*
X0519807Y0168812D01*
X0519020Y0168025D01*
X0519020Y0163706D01*
X0530043Y0163706D02*
X0530043Y0171549D01*
X0531382Y0172887D01*
X0531382Y0175657D01*
X0537882Y0175657D01*
X0544382Y0175657D01*
D121*
X0579256Y0254257D02*
X0576894Y0257013D01*
X0576894Y0271580D01*
X0583980Y0278667D01*
X0613114Y0278667D01*
X0627287Y0278667D01*
X0630043Y0275911D01*
X0630043Y0268037D01*
X0624531Y0262525D01*
X0612720Y0262525D01*
X0604453Y0254257D01*
X0593156Y0254257D01*
X0593156Y0256251D01*
X0602859Y0256251D01*
X0603792Y0257185D01*
X0603792Y0264219D01*
X0603836Y0264264D01*
X0608636Y0264264D01*
X0609746Y0265373D01*
X0614059Y0269686D01*
X0615654Y0269686D01*
X0615654Y0266589D01*
X0616588Y0265656D01*
X0623026Y0265656D01*
X0623960Y0266589D01*
X0623960Y0276571D01*
X0623026Y0277505D01*
X0616588Y0277505D01*
X0615654Y0276571D01*
X0615654Y0273474D01*
X0612490Y0273474D01*
X0607068Y0268051D01*
X0605062Y0268051D01*
X0605062Y0276571D01*
X0604129Y0277505D01*
X0597690Y0277505D01*
X0596757Y0276571D01*
X0596757Y0266589D01*
X0597690Y0265656D01*
X0597772Y0265656D01*
X0597555Y0265438D01*
X0590617Y0265438D01*
X0590617Y0266271D01*
X0590399Y0266489D01*
X0590568Y0266658D01*
X0590568Y0271778D01*
X0589634Y0272712D01*
X0585314Y0272712D01*
X0584380Y0271778D01*
X0584380Y0266658D01*
X0585314Y0265724D01*
X0585807Y0265724D01*
X0586093Y0265438D01*
X0585234Y0265438D01*
X0584829Y0265330D01*
X0584466Y0265120D01*
X0584169Y0264823D01*
X0583959Y0264460D01*
X0583850Y0264055D01*
X0583850Y0260845D01*
X0586144Y0260845D01*
X0586144Y0260845D01*
X0583850Y0260845D01*
X0583850Y0257635D01*
X0583959Y0257230D01*
X0584169Y0256866D01*
X0584466Y0256569D01*
X0584829Y0256360D01*
X0585234Y0256251D01*
X0586144Y0256251D01*
X0586144Y0260845D01*
X0586144Y0260845D01*
X0586144Y0256251D01*
X0586829Y0256251D01*
X0586829Y0254257D01*
X0579256Y0254257D01*
X0578651Y0254964D02*
X0586829Y0254964D01*
X0586829Y0255749D02*
X0577977Y0255749D01*
X0577303Y0256535D02*
X0584525Y0256535D01*
X0583934Y0257321D02*
X0576894Y0257321D01*
X0576894Y0258107D02*
X0583850Y0258107D01*
X0583850Y0258893D02*
X0576894Y0258893D01*
X0576894Y0259679D02*
X0583850Y0259679D01*
X0583850Y0260465D02*
X0576894Y0260465D01*
X0576894Y0261251D02*
X0583850Y0261251D01*
X0583850Y0262037D02*
X0576894Y0262037D01*
X0576894Y0262823D02*
X0583850Y0262823D01*
X0583850Y0263609D02*
X0576894Y0263609D01*
X0576894Y0264394D02*
X0583941Y0264394D01*
X0584570Y0265180D02*
X0576894Y0265180D01*
X0576894Y0265966D02*
X0578928Y0265966D01*
X0578795Y0266043D02*
X0579159Y0265833D01*
X0579564Y0265724D01*
X0580918Y0265724D01*
X0580918Y0268862D01*
X0578180Y0268862D01*
X0578180Y0267108D01*
X0578289Y0266703D01*
X0578499Y0266339D01*
X0578795Y0266043D01*
X0578276Y0266752D02*
X0576894Y0266752D01*
X0576894Y0267538D02*
X0578180Y0267538D01*
X0578180Y0268324D02*
X0576894Y0268324D01*
X0576894Y0269110D02*
X0580918Y0269110D01*
X0580918Y0268862D02*
X0580918Y0269574D01*
X0578180Y0269574D01*
X0578180Y0271328D01*
X0578289Y0271733D01*
X0578499Y0272096D01*
X0578795Y0272393D01*
X0579159Y0272603D01*
X0579564Y0272712D01*
X0580918Y0272712D01*
X0580918Y0269574D01*
X0581630Y0269574D01*
X0581630Y0272712D01*
X0582984Y0272712D01*
X0583389Y0272603D01*
X0583753Y0272393D01*
X0584049Y0272096D01*
X0584259Y0271733D01*
X0584368Y0271328D01*
X0584368Y0269574D01*
X0581630Y0269574D01*
X0581630Y0268862D01*
X0584368Y0268862D01*
X0584368Y0267108D01*
X0584259Y0266703D01*
X0584049Y0266339D01*
X0583753Y0266043D01*
X0583389Y0265833D01*
X0582984Y0265724D01*
X0581630Y0265724D01*
X0581630Y0268862D01*
X0580918Y0268862D01*
X0580918Y0268324D02*
X0581630Y0268324D01*
X0581630Y0267538D02*
X0580918Y0267538D01*
X0580918Y0266752D02*
X0581630Y0266752D01*
X0581630Y0265966D02*
X0580918Y0265966D01*
X0583620Y0265966D02*
X0585072Y0265966D01*
X0584380Y0266752D02*
X0584272Y0266752D01*
X0584368Y0267538D02*
X0584380Y0267538D01*
X0584368Y0268324D02*
X0584380Y0268324D01*
X0584380Y0269110D02*
X0581630Y0269110D01*
X0581630Y0269896D02*
X0580918Y0269896D01*
X0580918Y0270682D02*
X0581630Y0270682D01*
X0581630Y0271468D02*
X0580918Y0271468D01*
X0580918Y0272254D02*
X0581630Y0272254D01*
X0583892Y0272254D02*
X0584856Y0272254D01*
X0584380Y0271468D02*
X0584330Y0271468D01*
X0584368Y0270682D02*
X0584380Y0270682D01*
X0584368Y0269896D02*
X0584380Y0269896D01*
X0590092Y0272254D02*
X0596757Y0272254D01*
X0596757Y0273040D02*
X0578353Y0273040D01*
X0578656Y0272254D02*
X0577567Y0272254D01*
X0578218Y0271468D02*
X0576894Y0271468D01*
X0576894Y0270682D02*
X0578180Y0270682D01*
X0578180Y0269896D02*
X0576894Y0269896D01*
X0579139Y0273825D02*
X0596757Y0273825D01*
X0596757Y0274611D02*
X0579925Y0274611D01*
X0580711Y0275397D02*
X0596757Y0275397D01*
X0596757Y0276183D02*
X0581497Y0276183D01*
X0582283Y0276969D02*
X0597155Y0276969D01*
X0604664Y0276969D02*
X0616052Y0276969D01*
X0615654Y0276183D02*
X0605062Y0276183D01*
X0605062Y0275397D02*
X0615654Y0275397D01*
X0615654Y0274611D02*
X0605062Y0274611D01*
X0605062Y0273825D02*
X0615654Y0273825D01*
X0612056Y0273040D02*
X0605062Y0273040D01*
X0605062Y0272254D02*
X0611270Y0272254D01*
X0610484Y0271468D02*
X0605062Y0271468D01*
X0605062Y0270682D02*
X0609698Y0270682D01*
X0608912Y0269896D02*
X0605062Y0269896D01*
X0605062Y0269110D02*
X0608127Y0269110D01*
X0607341Y0268324D02*
X0605062Y0268324D01*
X0603792Y0263609D02*
X0625615Y0263609D01*
X0626401Y0264394D02*
X0608767Y0264394D01*
X0609553Y0265180D02*
X0627187Y0265180D01*
X0627973Y0265966D02*
X0623337Y0265966D01*
X0623960Y0266752D02*
X0628759Y0266752D01*
X0629545Y0267538D02*
X0623960Y0267538D01*
X0623960Y0268324D02*
X0630043Y0268324D01*
X0630043Y0269110D02*
X0623960Y0269110D01*
X0623960Y0269896D02*
X0630043Y0269896D01*
X0630043Y0270682D02*
X0623960Y0270682D01*
X0623960Y0271468D02*
X0630043Y0271468D01*
X0630043Y0272254D02*
X0623960Y0272254D01*
X0623960Y0273040D02*
X0630043Y0273040D01*
X0630043Y0273825D02*
X0623960Y0273825D01*
X0623960Y0274611D02*
X0630043Y0274611D01*
X0630043Y0275397D02*
X0623960Y0275397D01*
X0623960Y0276183D02*
X0629771Y0276183D01*
X0628985Y0276969D02*
X0623562Y0276969D01*
X0627413Y0278541D02*
X0583854Y0278541D01*
X0583069Y0277755D02*
X0628199Y0277755D01*
X0613114Y0278667D02*
X0613114Y0278667D01*
X0613483Y0269110D02*
X0615654Y0269110D01*
X0615654Y0268324D02*
X0612697Y0268324D01*
X0611911Y0267538D02*
X0615654Y0267538D01*
X0615654Y0266752D02*
X0611125Y0266752D01*
X0610339Y0265966D02*
X0616277Y0265966D01*
X0612232Y0262037D02*
X0603792Y0262037D01*
X0603792Y0262823D02*
X0624829Y0262823D01*
X0611446Y0261251D02*
X0603792Y0261251D01*
X0603792Y0260465D02*
X0610660Y0260465D01*
X0609874Y0259679D02*
X0603792Y0259679D01*
X0603792Y0258893D02*
X0609089Y0258893D01*
X0608303Y0258107D02*
X0603792Y0258107D01*
X0603792Y0257321D02*
X0607517Y0257321D01*
X0606731Y0256535D02*
X0603143Y0256535D01*
X0605159Y0254964D02*
X0593156Y0254964D01*
X0593156Y0255749D02*
X0605945Y0255749D01*
X0597380Y0265966D02*
X0590617Y0265966D01*
X0590568Y0266752D02*
X0596757Y0266752D01*
X0596757Y0267538D02*
X0590568Y0267538D01*
X0590568Y0268324D02*
X0596757Y0268324D01*
X0596757Y0269110D02*
X0590568Y0269110D01*
X0590568Y0269896D02*
X0596757Y0269896D01*
X0596757Y0270682D02*
X0590568Y0270682D01*
X0590568Y0271468D02*
X0596757Y0271468D01*
X0586144Y0260465D02*
X0586144Y0260465D01*
X0586144Y0259679D02*
X0586144Y0259679D01*
X0586144Y0258893D02*
X0586144Y0258893D01*
X0586144Y0258107D02*
X0586144Y0258107D01*
X0586144Y0257321D02*
X0586144Y0257321D01*
X0586144Y0256535D02*
X0586144Y0256535D01*
D122*
X0568002Y0237757D02*
X0566856Y0238903D01*
X0561883Y0238903D01*
X0568002Y0237757D02*
X0568002Y0232257D01*
X0563312Y0232257D01*
X0563284Y0232230D01*
X0568002Y0232257D02*
X0568752Y0231507D01*
X0568752Y0228257D01*
X0567724Y0227230D01*
X0563284Y0227230D01*
X0541684Y0222230D02*
X0537530Y0222230D01*
X0535011Y0224748D01*
X0528439Y0224748D01*
X0528439Y0227248D01*
X0528439Y0219748D02*
X0510188Y0219748D01*
X0519364Y0209375D02*
X0519364Y0202968D01*
X0522799Y0199533D01*
X0486482Y0200257D02*
X0486482Y0191987D01*
X0486252Y0191757D01*
X0439295Y0183785D02*
X0431815Y0183785D01*
X0457352Y0158857D02*
X0459552Y0158857D01*
X0462152Y0158857D01*
X0463252Y0157757D01*
X0463252Y0155881D01*
X0463193Y0155822D01*
X0457352Y0158857D02*
X0456252Y0157757D01*
X0456252Y0155968D01*
X0456106Y0155822D01*
X0332004Y0138659D02*
X0324524Y0138659D01*
X0323933Y0139249D01*
X0308815Y0149891D02*
X0295248Y0149891D01*
X0292689Y0152450D01*
X0285783Y0152450D01*
X0271465Y0154918D02*
X0267724Y0154918D01*
X0224311Y0149336D02*
X0223932Y0148957D01*
X0219152Y0148957D01*
X0212254Y0147956D02*
X0212254Y0145005D01*
X0212254Y0147956D02*
X0211652Y0148557D01*
X0209452Y0148557D01*
X0208452Y0149557D01*
X0208452Y0152957D01*
X0207349Y0154060D01*
X0204626Y0154060D01*
X0204626Y0156620D01*
X0212106Y0154060D02*
X0212106Y0151501D01*
X0219352Y0140257D02*
X0219378Y0140231D01*
X0205660Y0163509D02*
X0200804Y0163509D01*
X0200752Y0163457D01*
X0113850Y0200301D02*
X0113850Y0206490D01*
X0113782Y0206557D01*
X0113982Y0206757D01*
X0113982Y0211157D01*
X0232752Y0250757D02*
X0233663Y0251668D01*
X0233663Y0255305D01*
X0197011Y0282616D02*
X0195152Y0280757D01*
X0197011Y0282616D02*
X0197011Y0289226D01*
X0182888Y0284108D02*
X0182494Y0283714D01*
X0234752Y0318257D02*
X0247311Y0318257D01*
X0248941Y0319887D01*
X0220421Y0332927D02*
X0217252Y0329757D01*
X0210752Y0329757D01*
X0207752Y0326757D01*
X0220421Y0332927D02*
X0220421Y0333454D01*
X0160752Y0333257D02*
X0160752Y0326588D01*
X0160248Y0326084D01*
X0178445Y0369013D02*
X0178445Y0379450D01*
X0179552Y0380557D01*
X0393952Y0277457D02*
X0395152Y0278657D01*
X0404452Y0278657D01*
X0407352Y0275757D01*
X0419452Y0275757D01*
X0424152Y0271057D01*
X0428352Y0271057D01*
X0430152Y0269257D01*
X0430152Y0267822D01*
X0430054Y0268188D01*
X0429804Y0268621D01*
X0429450Y0268975D01*
X0429017Y0269225D01*
X0428534Y0269354D01*
X0419733Y0269354D01*
X0419733Y0260654D01*
X0418333Y0260654D01*
X0418333Y0259254D01*
X0407883Y0259254D01*
X0407883Y0252204D01*
X0408013Y0251721D01*
X0408263Y0251288D01*
X0408617Y0250934D01*
X0409050Y0250684D01*
X0409533Y0250554D01*
X0418333Y0250554D01*
X0418333Y0259254D01*
X0419733Y0259254D01*
X0419733Y0250554D01*
X0428534Y0250554D01*
X0429017Y0250684D01*
X0429450Y0250934D01*
X0429804Y0251288D01*
X0430054Y0251721D01*
X0430152Y0252087D01*
X0430152Y0251557D01*
X0428852Y0250257D01*
X0422652Y0250257D01*
X0417252Y0245857D01*
X0399552Y0245857D01*
X0399452Y0245957D01*
X0399452Y0256557D01*
X0399952Y0257057D01*
X0404552Y0257057D01*
X0405652Y0258157D01*
X0405652Y0265357D01*
X0405675Y0266739D01*
X0405794Y0266945D01*
X0405924Y0267428D01*
X0405924Y0271309D01*
X0405751Y0271309D01*
X0405752Y0271357D01*
X0400787Y0271357D01*
X0400787Y0272709D01*
X0405924Y0272709D01*
X0405924Y0276590D01*
X0405794Y0277073D01*
X0405544Y0277507D01*
X0405190Y0277860D01*
X0404757Y0278110D01*
X0404274Y0278240D01*
X0400787Y0278240D01*
X0400787Y0272709D01*
X0399387Y0272709D01*
X0399387Y0278240D01*
X0395899Y0278240D01*
X0395416Y0278110D01*
X0394983Y0277860D01*
X0394629Y0277507D01*
X0394379Y0277073D01*
X0394250Y0276590D01*
X0394250Y0272709D01*
X0399387Y0272709D01*
X0399387Y0271357D01*
X0393952Y0271357D01*
X0393952Y0277457D01*
X0393952Y0276967D02*
X0394351Y0276967D01*
X0394250Y0275568D02*
X0393952Y0275568D01*
X0393952Y0274170D02*
X0394250Y0274170D01*
X0394250Y0272771D02*
X0393952Y0272771D01*
X0393952Y0271373D02*
X0399387Y0271373D01*
X0399387Y0272771D02*
X0400787Y0272771D01*
X0400787Y0271373D02*
X0423836Y0271373D01*
X0422438Y0272771D02*
X0405924Y0272771D01*
X0405924Y0274170D02*
X0421039Y0274170D01*
X0419641Y0275568D02*
X0405924Y0275568D01*
X0405823Y0276967D02*
X0406142Y0276967D01*
X0404744Y0278366D02*
X0394860Y0278366D01*
X0399387Y0276967D02*
X0400787Y0276967D01*
X0400787Y0275568D02*
X0399387Y0275568D01*
X0399387Y0274170D02*
X0400787Y0274170D01*
X0405924Y0269974D02*
X0429435Y0269974D01*
X0429830Y0268576D02*
X0430152Y0268576D01*
X0419733Y0268576D02*
X0418333Y0268576D01*
X0418333Y0269354D02*
X0409533Y0269354D01*
X0409050Y0269225D01*
X0408617Y0268975D01*
X0408263Y0268621D01*
X0408013Y0268188D01*
X0407883Y0267704D01*
X0407883Y0260654D01*
X0418333Y0260654D01*
X0418333Y0269354D01*
X0418333Y0267177D02*
X0419733Y0267177D01*
X0419733Y0265779D02*
X0418333Y0265779D01*
X0418333Y0264380D02*
X0419733Y0264380D01*
X0419733Y0262982D02*
X0418333Y0262982D01*
X0418333Y0261583D02*
X0419733Y0261583D01*
X0418333Y0260185D02*
X0405652Y0260185D01*
X0405652Y0261583D02*
X0407883Y0261583D01*
X0407883Y0262982D02*
X0405652Y0262982D01*
X0405652Y0264380D02*
X0407883Y0264380D01*
X0407883Y0265779D02*
X0405659Y0265779D01*
X0405856Y0267177D02*
X0407883Y0267177D01*
X0408237Y0268576D02*
X0405924Y0268576D01*
X0405652Y0258786D02*
X0407883Y0258786D01*
X0407883Y0257388D02*
X0404883Y0257388D01*
X0407883Y0255989D02*
X0399452Y0255989D01*
X0399452Y0254591D02*
X0407883Y0254591D01*
X0407883Y0253192D02*
X0399452Y0253192D01*
X0399452Y0251794D02*
X0407993Y0251794D01*
X0399452Y0250395D02*
X0428990Y0250395D01*
X0430074Y0251794D02*
X0430152Y0251794D01*
X0421105Y0248997D02*
X0399452Y0248997D01*
X0399452Y0247598D02*
X0419389Y0247598D01*
X0417672Y0246200D02*
X0399452Y0246200D01*
X0399594Y0243368D02*
X0403142Y0243368D01*
X0404252Y0242257D01*
X0404252Y0239757D01*
X0403452Y0238957D01*
X0379552Y0238957D01*
X0378236Y0240273D01*
X0378236Y0244332D01*
X0379252Y0248757D02*
X0381752Y0248757D01*
X0384583Y0245927D01*
X0387980Y0245927D01*
X0379252Y0248757D02*
X0378236Y0249773D01*
X0378236Y0252600D01*
X0418333Y0253192D02*
X0419733Y0253192D01*
X0419733Y0251794D02*
X0418333Y0251794D01*
X0418333Y0254591D02*
X0419733Y0254591D01*
X0419733Y0255989D02*
X0418333Y0255989D01*
X0418333Y0257388D02*
X0419733Y0257388D01*
X0419733Y0258786D02*
X0418333Y0258786D01*
X0343177Y0217612D02*
X0343177Y0212982D01*
X0343152Y0212957D01*
X0314082Y0231057D02*
X0313982Y0231057D01*
X0510674Y0241666D02*
X0510674Y0244225D01*
X0510674Y0246784D01*
X0510674Y0249343D01*
X0527308Y0249343D02*
X0531037Y0249343D01*
X0532152Y0250457D01*
X0532152Y0259657D01*
X0532994Y0260499D01*
X0536650Y0260499D01*
X0544130Y0260499D01*
X0587496Y0327086D02*
X0593795Y0327086D01*
X0602960Y0327086D01*
X0603132Y0327257D01*
X0572132Y0362507D02*
X0567167Y0362507D01*
X0566837Y0362837D01*
X0559750Y0362837D01*
X0549285Y0373155D02*
X0549285Y0386727D01*
X0552799Y0390242D01*
X0543085Y0389956D02*
X0542799Y0390242D01*
X0543085Y0389956D02*
X0543085Y0373155D01*
X0514002Y0355257D02*
X0513252Y0356007D01*
X0509002Y0356007D01*
X0508390Y0356620D01*
X0508390Y0361000D01*
X0508390Y0367200D02*
X0500444Y0367200D01*
X0498547Y0365303D01*
X0498547Y0361344D01*
X0494339Y0361344D01*
X0490280Y0357285D01*
X0490280Y0353470D01*
X0490492Y0353257D01*
X0494002Y0353257D01*
X0495561Y0351698D01*
X0499704Y0351698D01*
X0509990Y0351698D02*
X0513193Y0351698D01*
X0514002Y0352507D01*
X0514002Y0355257D01*
X0514061Y0347948D02*
X0509990Y0347948D01*
X0509990Y0344218D02*
X0514041Y0344218D01*
X0519463Y0338796D01*
X0519463Y0334572D01*
X0518232Y0346433D02*
X0515576Y0346433D01*
X0514061Y0347948D01*
X0469752Y0356226D02*
X0469752Y0360757D01*
X0456421Y0103667D02*
X0452681Y0103667D01*
X0452091Y0103076D01*
X0447760Y0103667D02*
X0442843Y0103667D01*
X0442752Y0103757D01*
X0457407Y0095603D02*
X0459927Y0095603D01*
X0462770Y0098445D01*
X0462770Y0100714D01*
X0456252Y0084257D02*
X0456252Y0079968D01*
X0456372Y0079848D01*
X0216482Y0047157D02*
X0216482Y0010857D01*
X0214482Y0008857D01*
X0113482Y0008857D01*
X0100282Y0022057D01*
X0100282Y0043680D01*
X0110282Y0043680D02*
X0110282Y0025157D01*
X0110382Y0025057D01*
X0130482Y0022157D02*
X0130482Y0043480D01*
X0130282Y0043680D01*
D123*
X0232118Y0127057D02*
X0232212Y0127151D01*
X0253812Y0132151D02*
X0253812Y0137151D01*
X0243921Y0149753D02*
X0243921Y0157088D01*
X0242252Y0158757D01*
X0236606Y0158757D01*
X0236543Y0158820D01*
X0226441Y0158820D01*
X0226370Y0158749D01*
X0267724Y0164416D02*
X0267724Y0169730D01*
X0267752Y0169757D01*
X0267265Y0170245D01*
X0267265Y0175446D01*
X0326295Y0175864D02*
X0326452Y0176020D01*
X0327429Y0197927D02*
X0327429Y0206194D01*
X0326642Y0234147D02*
X0336091Y0234147D01*
X0336287Y0234344D01*
X0336287Y0241037D02*
X0336167Y0241157D01*
X0332352Y0241157D01*
X0330307Y0243202D01*
X0319949Y0234147D02*
X0319752Y0233950D01*
X0306760Y0233950D01*
X0304131Y0251424D02*
X0304131Y0260079D01*
X0302802Y0261407D01*
X0300950Y0263260D01*
X0300950Y0269934D01*
X0300950Y0286857D01*
X0301350Y0287257D01*
X0285527Y0308234D02*
X0285552Y0308259D01*
X0285552Y0315057D01*
X0285552Y0318357D01*
X0280862Y0320568D02*
X0280862Y0332596D01*
X0270201Y0328549D02*
X0270201Y0319887D01*
X0270331Y0319757D01*
X0280052Y0319757D01*
X0280862Y0320568D01*
X0353882Y0300757D02*
X0362812Y0300757D01*
X0362831Y0300738D01*
X0362850Y0300757D01*
X0367752Y0300757D01*
X0369214Y0299295D01*
X0371508Y0299295D01*
X0386713Y0310531D02*
X0386713Y0312588D01*
X0389382Y0315257D01*
X0466264Y0344808D02*
X0471053Y0344808D01*
X0479206Y0352962D01*
X0479206Y0356226D01*
X0483720Y0356226D01*
X0484752Y0357257D01*
X0484752Y0358257D01*
X0476002Y0361007D02*
X0476002Y0367540D01*
X0476106Y0367643D01*
X0466214Y0370399D02*
X0466214Y0364045D01*
X0466252Y0364007D01*
X0466214Y0370399D02*
X0466214Y0385310D01*
X0469020Y0388116D01*
X0460014Y0387121D02*
X0460014Y0370399D01*
X0460014Y0356226D01*
X0466214Y0356226D02*
X0469752Y0356226D01*
X0473006Y0356226D01*
X0473006Y0359012D01*
X0474252Y0360257D01*
X0475252Y0360257D01*
X0476002Y0361007D01*
X0490382Y0376257D02*
X0491909Y0374730D01*
X0492854Y0374730D01*
X0460014Y0387121D02*
X0459020Y0388116D01*
X0471053Y0344808D02*
X0479701Y0344808D01*
X0484502Y0340007D01*
X0490203Y0340007D01*
X0490280Y0340084D01*
X0491461Y0329454D02*
X0491164Y0329157D01*
X0484052Y0329157D01*
X0401465Y0264245D02*
X0400452Y0265257D01*
X0387952Y0265257D01*
X0387452Y0264757D01*
X0387452Y0262327D01*
X0386898Y0261773D01*
X0380205Y0261773D02*
X0380205Y0258305D01*
X0383252Y0255257D01*
X0383252Y0251257D01*
X0384752Y0249757D01*
X0387972Y0249757D01*
X0387980Y0249765D01*
X0394752Y0256757D02*
X0394772Y0256777D01*
X0394772Y0261379D01*
X0401465Y0261379D02*
X0401465Y0264245D01*
X0270352Y0261161D02*
X0270352Y0252357D01*
X0270352Y0261161D02*
X0269846Y0261667D01*
X0252130Y0261667D02*
X0251820Y0261357D01*
X0244652Y0261357D01*
X0242705Y0263305D01*
X0237463Y0263305D01*
X0223783Y0261823D02*
X0223783Y0271460D01*
X0223833Y0271509D01*
X0159374Y0278450D02*
X0159051Y0279627D01*
X0156252Y0279627D01*
X0152193Y0279627D01*
X0152193Y0274198D01*
X0150752Y0272757D01*
X0140252Y0272757D01*
X0136752Y0276257D01*
X0136752Y0300108D01*
X0129437Y0307423D01*
X0086299Y0307423D01*
X0129555Y0319194D02*
X0137035Y0319194D01*
X0144516Y0319194D02*
X0151996Y0319194D01*
X0151996Y0311320D01*
X0152390Y0310927D01*
X0144516Y0310927D01*
X0144516Y0304234D02*
X0152390Y0304234D01*
X0152193Y0304037D01*
X0152193Y0296557D01*
X0152292Y0296457D01*
X0156752Y0296457D01*
X0157452Y0295757D01*
X0157452Y0293757D01*
X0157952Y0293257D01*
X0159852Y0293257D01*
X0160461Y0293866D01*
X0160461Y0297100D01*
X0202004Y0344478D02*
X0202004Y0352909D01*
X0206352Y0357257D01*
X0207252Y0357257D01*
X0207352Y0357157D01*
X0234752Y0384557D02*
X0235633Y0385438D01*
X0238902Y0385438D01*
X0238902Y0392131D02*
X0238902Y0397607D01*
X0238952Y0397657D01*
X0280240Y0396445D02*
X0280240Y0390950D01*
X0280240Y0396445D02*
X0280252Y0396457D01*
X0287720Y0375990D02*
X0287488Y0375757D01*
X0282752Y0375757D01*
X0229487Y0225727D02*
X0224622Y0225727D01*
X0224352Y0225457D01*
X0225282Y0217857D02*
X0225382Y0217757D01*
X0225382Y0214005D01*
X0181382Y0192245D02*
X0180370Y0193257D01*
X0171682Y0193257D01*
X0187682Y0183257D02*
X0189882Y0185457D01*
X0193382Y0185457D01*
X0187682Y0183257D02*
X0184982Y0183257D01*
X0184482Y0182757D01*
X0123982Y0174657D02*
X0123982Y0169887D01*
X0124139Y0169730D01*
X0094482Y0170757D02*
X0094482Y0175157D01*
X0102482Y0200257D02*
X0102525Y0200301D01*
X0107650Y0200301D01*
X0370783Y0130982D02*
X0370852Y0130913D01*
X0388894Y0137675D02*
X0392869Y0137675D01*
X0394352Y0139157D01*
X0394352Y0147857D01*
X0392831Y0149379D01*
X0392831Y0155194D01*
X0385815Y0155194D02*
X0384752Y0156257D01*
X0373752Y0156257D02*
X0373067Y0156942D01*
X0371768Y0161242D02*
X0371768Y0162257D01*
X0474382Y0186157D02*
X0481382Y0186157D01*
X0483482Y0186157D01*
X0483882Y0185757D01*
X0486632Y0185757D01*
X0486673Y0185716D01*
X0481382Y0192357D02*
X0477882Y0192357D01*
X0477882Y0195757D01*
X0477882Y0192357D02*
X0474382Y0192357D01*
X0404052Y0102257D02*
X0397382Y0102257D01*
X0404052Y0102257D02*
X0419552Y0086757D01*
X0432882Y0086757D01*
X0435852Y0086757D01*
X0439252Y0090157D01*
X0457652Y0090157D01*
X0457752Y0089857D01*
D124*
X0313982Y0231057D02*
X0313882Y0231057D01*
X0393787Y0247206D02*
X0394248Y0247667D01*
X0394248Y0254655D01*
X0394752Y0255159D01*
X0394752Y0256757D01*
D125*
X0358382Y0261466D02*
X0356236Y0261466D01*
X0315815Y0264856D02*
X0315335Y0264375D01*
X0336287Y0241037D02*
X0350272Y0241037D01*
X0358052Y0233257D01*
X0413752Y0233257D01*
X0419033Y0227976D01*
X0419033Y0218954D01*
X0405252Y0204757D02*
X0404252Y0205757D01*
X0397508Y0205757D01*
X0396965Y0206301D01*
X0405252Y0204757D02*
X0405252Y0181257D01*
X0403252Y0179257D01*
X0394752Y0179257D01*
X0392831Y0177336D01*
X0392831Y0172911D01*
X0418815Y0171730D02*
X0427824Y0171730D01*
X0431815Y0175720D01*
X0431815Y0183785D01*
X0407791Y0155194D02*
X0407791Y0154801D01*
X0301366Y0139812D02*
X0295382Y0139812D01*
X0295652Y0140082D01*
X0295652Y0145557D01*
X0295382Y0139812D02*
X0290295Y0139812D01*
X0290189Y0139919D01*
X0232212Y0137151D02*
X0229988Y0137151D01*
X0226908Y0140231D01*
X0224114Y0140231D01*
X0219378Y0140231D01*
X0216882Y0131557D02*
X0220375Y0128064D01*
X0224114Y0128064D01*
X0200717Y0104423D02*
X0191614Y0104423D01*
X0200717Y0104423D02*
X0202333Y0102807D01*
X0202333Y0092517D01*
X0208022Y0092517D01*
X0208082Y0092457D01*
X0081827Y0156317D02*
X0076922Y0156317D01*
X0072582Y0160657D01*
X0085882Y0167257D02*
X0098882Y0167257D01*
X0100982Y0169357D01*
X0100982Y0175157D01*
X0110982Y0174657D02*
X0117482Y0174657D01*
X0117482Y0180857D02*
X0123982Y0180857D01*
X0130982Y0180857D01*
X0135882Y0180857D01*
X0135982Y0180757D01*
X0117482Y0180857D02*
X0110982Y0180857D01*
X0100982Y0181357D02*
X0098982Y0181357D01*
X0094482Y0181357D01*
X0091882Y0181357D01*
X0090382Y0182857D01*
X0090382Y0187757D01*
X0090382Y0194257D01*
X0096582Y0194257D02*
X0096582Y0200757D01*
X0090382Y0200757D02*
X0082982Y0200757D01*
X0079382Y0204357D01*
X0079382Y0217357D01*
X0072482Y0224257D01*
X0059665Y0224257D01*
X0107582Y0206557D02*
X0107582Y0200368D01*
X0107650Y0200301D01*
X0096582Y0194257D02*
X0096582Y0187757D01*
X0085882Y0167257D02*
X0070220Y0182919D01*
X0059665Y0182919D01*
X0131082Y0193757D02*
X0131082Y0200257D01*
X0181382Y0192245D02*
X0190294Y0192245D01*
X0193382Y0189157D01*
X0193382Y0185457D01*
X0209482Y0169757D02*
X0215182Y0169757D01*
X0215682Y0169257D01*
X0258282Y0202257D02*
X0266511Y0210486D01*
X0276185Y0210486D01*
X0235648Y0219005D02*
X0235648Y0225688D01*
X0235687Y0225727D01*
X0235687Y0230952D01*
X0230807Y0235832D01*
X0215123Y0235832D01*
X0202523Y0235832D02*
X0202523Y0246928D01*
X0202452Y0247357D01*
X0145500Y0289076D02*
X0145500Y0296557D01*
X0083882Y0294757D02*
X0073882Y0304757D01*
X0051205Y0304757D01*
X0051205Y0294757D02*
X0075882Y0294757D01*
X0083382Y0287257D01*
X0213594Y0340950D02*
X0213594Y0344100D01*
X0215500Y0346005D01*
X0215500Y0351171D01*
X0215500Y0357709D01*
X0214152Y0359057D01*
X0212445Y0360764D01*
X0212445Y0365155D01*
X0203390Y0365155D01*
X0203390Y0371848D02*
X0203390Y0377820D01*
X0212445Y0378050D02*
X0212445Y0371848D01*
X0238902Y0385438D02*
X0245988Y0385438D01*
X0245988Y0392131D02*
X0238902Y0392131D01*
X0280240Y0390950D02*
X0287720Y0390950D01*
X0287720Y0384257D02*
X0280240Y0384257D01*
X0287720Y0384257D02*
X0287720Y0375990D01*
X0287720Y0369297D02*
X0287720Y0353226D01*
X0280862Y0346368D01*
X0280862Y0343620D01*
X0248350Y0339375D02*
X0248350Y0329139D01*
X0248941Y0328549D01*
X0248941Y0319887D01*
X0225736Y0322824D02*
X0225736Y0327342D01*
X0226952Y0328557D01*
X0226952Y0333292D01*
X0227114Y0333454D01*
X0227114Y0341328D01*
X0227114Y0350580D01*
X0226524Y0351171D01*
X0220421Y0341328D02*
X0213972Y0341328D01*
X0213594Y0340950D01*
X0567882Y0042680D02*
X0567882Y0029657D01*
X0567882Y0042680D02*
X0567982Y0042780D01*
X0577982Y0042780D01*
D126*
X0387752Y0144757D03*
X0364752Y0151257D03*
X0384252Y0162757D03*
X0384752Y0169257D03*
X0202552Y0244357D03*
X0216482Y0047157D03*
X0130482Y0022157D03*
X0110382Y0025057D03*
D127*
X0223046Y0278990D02*
X0223046Y0281664D01*
X0222452Y0282257D01*
X0220052Y0282257D01*
X0219058Y0283251D01*
X0219058Y0289226D01*
X0231658Y0289226D02*
X0232152Y0288732D01*
X0232152Y0279757D01*
X0231384Y0278990D01*
X0229246Y0278990D01*
X0234520Y0278990D01*
X0234552Y0278957D01*
X0297127Y0308234D02*
X0297150Y0308257D01*
X0304252Y0308257D01*
X0307752Y0308257D01*
D128*
X0287750Y0287457D02*
X0279652Y0287457D01*
X0275121Y0282927D01*
X0269846Y0282927D01*
X0287750Y0287457D02*
X0287950Y0287257D01*
X0210004Y0262011D02*
X0203311Y0262011D01*
X0195831Y0262011D01*
X0203311Y0255811D02*
X0210004Y0255811D01*
X0163071Y0222257D02*
X0162071Y0223257D01*
X0141382Y0223257D01*
X0137882Y0219757D01*
X0137882Y0193257D01*
X0141382Y0189757D01*
X0141382Y0166597D01*
X0137543Y0162759D01*
X0130982Y0170857D02*
X0129382Y0169257D01*
X0130982Y0170857D02*
X0130982Y0174657D01*
X0131082Y0187257D02*
X0135882Y0187257D01*
X0235648Y0204005D02*
X0246882Y0204005D01*
X0246882Y0201557D01*
X0265982Y0199857D02*
X0267306Y0198534D01*
X0267306Y0191670D01*
X0274706Y0191670D02*
X0274706Y0200334D01*
X0275682Y0200357D01*
X0287752Y0199957D02*
X0287752Y0210182D01*
X0287447Y0210486D01*
X0288732Y0211771D01*
X0287447Y0210486D02*
X0276185Y0210486D01*
X0288750Y0229171D02*
X0288750Y0238156D01*
X0288752Y0238157D01*
X0410634Y0195564D02*
X0410634Y0189757D01*
X0410634Y0179509D01*
X0407791Y0176667D01*
X0407791Y0171730D01*
X0418815Y0171730D02*
X0418815Y0154801D01*
X0635752Y0227757D02*
X0635827Y0227757D01*
X0657996Y0249927D01*
X0509177Y0321182D02*
X0506819Y0318824D01*
X0466264Y0318824D01*
X0509177Y0321182D02*
X0509177Y0329454D01*
X0220035Y0369013D02*
X0217201Y0371848D01*
X0212445Y0371848D01*
X0212445Y0390320D01*
X0212882Y0390757D01*
X0203390Y0390249D02*
X0202882Y0390757D01*
X0203390Y0390249D02*
X0203390Y0371848D01*
X0197972Y0371848D01*
X0195138Y0369013D01*
X0116882Y0271257D02*
X0095382Y0271257D01*
X0090921Y0266797D01*
X0091318Y0266745D01*
X0092396Y0266456D01*
X0093428Y0266029D01*
X0094394Y0265471D01*
X0095280Y0264791D01*
X0096069Y0264002D01*
X0096749Y0263116D01*
X0097307Y0262150D01*
X0097734Y0261118D01*
X0098023Y0260040D01*
X0098168Y0258934D01*
X0098168Y0258375D01*
X0089654Y0258375D01*
X0089654Y0258375D01*
X0089654Y0249860D01*
X0089654Y0241840D01*
X0098168Y0241840D01*
X0098168Y0242398D01*
X0098023Y0243505D01*
X0097734Y0244583D01*
X0097307Y0245614D01*
X0096749Y0246581D01*
X0096069Y0247466D01*
X0095280Y0248256D01*
X0094394Y0248935D01*
X0093428Y0249493D01*
X0092396Y0249920D01*
X0091697Y0250108D01*
X0092396Y0250295D01*
X0093428Y0250722D01*
X0094394Y0251280D01*
X0095280Y0251960D01*
X0096069Y0252749D01*
X0096749Y0253635D01*
X0097307Y0254601D01*
X0097734Y0255632D01*
X0098023Y0256711D01*
X0098168Y0257817D01*
X0098168Y0258375D01*
X0089654Y0258375D01*
X0089653Y0258375D01*
X0089653Y0241840D01*
X0089654Y0241840D01*
X0089654Y0241840D01*
X0098168Y0241840D01*
X0098168Y0241282D01*
X0098023Y0240175D01*
X0097734Y0239097D01*
X0097307Y0238066D01*
X0096749Y0237099D01*
X0096069Y0236214D01*
X0095280Y0235424D01*
X0094960Y0235179D01*
X0096882Y0233257D01*
X0105487Y0233257D01*
X0105004Y0233353D01*
X0104421Y0233595D01*
X0103897Y0233945D01*
X0103451Y0234391D01*
X0103101Y0234915D01*
X0102860Y0235497D01*
X0102737Y0236115D01*
X0102737Y0243320D01*
X0109086Y0243320D01*
X0109086Y0243320D01*
X0102737Y0243320D01*
X0102737Y0250525D01*
X0102860Y0251143D01*
X0103101Y0251726D01*
X0103451Y0252250D01*
X0103897Y0252696D01*
X0104421Y0253046D01*
X0105004Y0253287D01*
X0105622Y0253410D01*
X0109087Y0253410D01*
X0109087Y0243320D01*
X0109087Y0243320D01*
X0115436Y0243320D01*
X0115436Y0236115D01*
X0115313Y0235497D01*
X0115072Y0234915D01*
X0114722Y0234391D01*
X0114276Y0233945D01*
X0113752Y0233595D01*
X0113170Y0233353D01*
X0112686Y0233257D01*
X0122882Y0233257D01*
X0122882Y0265257D01*
X0116882Y0271257D01*
X0119980Y0268159D02*
X0092284Y0268159D01*
X0095910Y0264161D02*
X0122882Y0264161D01*
X0122882Y0260162D02*
X0097990Y0260162D01*
X0097876Y0256164D02*
X0122882Y0256164D01*
X0122882Y0252165D02*
X0114779Y0252165D01*
X0114722Y0252250D02*
X0114276Y0252696D01*
X0113752Y0253046D01*
X0113170Y0253287D01*
X0112551Y0253410D01*
X0109087Y0253410D01*
X0109087Y0243320D01*
X0115436Y0243320D01*
X0115436Y0250525D01*
X0115313Y0251143D01*
X0115072Y0251726D01*
X0114722Y0252250D01*
X0115436Y0248166D02*
X0122882Y0248166D01*
X0122882Y0244168D02*
X0115436Y0244168D01*
X0115436Y0240169D02*
X0122882Y0240169D01*
X0122882Y0236171D02*
X0115436Y0236171D01*
X0102737Y0236171D02*
X0096026Y0236171D01*
X0098021Y0240169D02*
X0102737Y0240169D01*
X0102737Y0244168D02*
X0097845Y0244168D01*
X0095369Y0248166D02*
X0102737Y0248166D01*
X0103395Y0252165D02*
X0095485Y0252165D01*
X0089654Y0252165D02*
X0089653Y0252165D01*
X0089653Y0248166D02*
X0089654Y0248166D01*
X0089653Y0244168D02*
X0089654Y0244168D01*
X0109087Y0244168D02*
X0109087Y0244168D01*
X0109087Y0243320D02*
X0109087Y0243320D01*
X0109087Y0248166D02*
X0109087Y0248166D01*
X0109087Y0252165D02*
X0109087Y0252165D01*
X0089654Y0256164D02*
X0089653Y0256164D01*
D129*
X0083382Y0287257D03*
X0083882Y0294757D03*
X0202152Y0306457D03*
X0333652Y0253457D03*
X0288752Y0238157D03*
X0225282Y0217857D03*
X0258282Y0202257D03*
X0280982Y0190457D03*
X0287752Y0199957D03*
X0209482Y0169757D03*
X0171682Y0193257D03*
X0216882Y0131557D03*
X0246082Y0105957D03*
X0208082Y0092457D03*
X0419552Y0086757D03*
X0457752Y0089857D03*
X0635752Y0227757D03*
X0389382Y0315257D03*
X0353882Y0300757D03*
X0490382Y0376257D03*
D130*
X0362831Y0308138D02*
X0354371Y0308138D01*
X0354252Y0308257D01*
X0317941Y0293068D02*
X0313752Y0297257D01*
X0300652Y0297257D01*
X0298452Y0295057D01*
X0289852Y0295057D01*
X0288052Y0293257D01*
X0288052Y0287360D01*
X0287950Y0287257D01*
X0288350Y0286857D01*
X0288350Y0269934D01*
X0317941Y0287352D02*
X0317941Y0293068D01*
X0219058Y0289226D02*
X0209611Y0289226D01*
X0275152Y0229557D02*
X0275185Y0229524D01*
X0276185Y0223086D01*
X0235648Y0214005D02*
X0235648Y0209005D01*
X0235648Y0204005D01*
X0225382Y0209005D02*
X0225382Y0198757D01*
X0225382Y0209005D02*
X0214781Y0209005D01*
X0214781Y0214005D01*
X0225382Y0214005D01*
X0225382Y0209005D01*
X0235648Y0209005D01*
X0235648Y0214005D02*
X0225382Y0214005D01*
X0214781Y0219005D02*
X0206630Y0219005D01*
X0202882Y0215257D01*
X0202882Y0214757D01*
X0145983Y0201362D02*
X0145983Y0194156D01*
X0149504Y0190635D01*
X0149504Y0185238D01*
X0131082Y0200257D02*
X0131082Y0205157D01*
X0130982Y0205257D01*
X0131382Y0200757D02*
X0131082Y0200457D01*
X0131082Y0200257D01*
X0209482Y0169757D02*
X0209982Y0169257D01*
X0224304Y0172938D02*
X0226685Y0170557D01*
X0230752Y0170557D01*
X0280982Y0190457D02*
X0283002Y0192477D01*
X0287620Y0192477D01*
X0334122Y0197927D02*
X0334291Y0197757D01*
X0337252Y0197757D01*
X0338406Y0198911D01*
X0341799Y0198911D01*
X0341799Y0195210D01*
X0343252Y0193757D01*
X0341799Y0205604D02*
X0338406Y0205604D01*
X0337815Y0206194D01*
X0334122Y0206194D01*
X0343177Y0217612D02*
X0343177Y0225092D01*
X0327152Y0160157D02*
X0323975Y0160157D01*
X0323933Y0160116D01*
X0323791Y0160257D01*
X0318352Y0160257D01*
X0327152Y0160157D02*
X0328352Y0158957D01*
X0328352Y0156457D01*
X0332004Y0152805D01*
X0332004Y0152438D01*
X0332004Y0145745D01*
X0324130Y0145745D01*
X0323933Y0145942D01*
X0318567Y0145942D01*
X0318552Y0145957D01*
X0325752Y0130457D02*
X0325818Y0130391D01*
X0331610Y0130391D01*
X0232212Y0127151D02*
X0227388Y0127151D01*
X0226382Y0128157D01*
X0224207Y0128157D01*
X0224114Y0128064D01*
X0224401Y0122151D02*
X0224114Y0121864D01*
X0224401Y0122151D02*
X0232212Y0122151D01*
X0202333Y0086317D02*
X0191767Y0086317D01*
X0191614Y0086470D01*
X0140382Y0043580D02*
X0140382Y0030157D01*
X0140382Y0043580D02*
X0140282Y0043680D01*
X0607982Y0042780D02*
X0617982Y0042780D01*
X0098744Y0388620D02*
X0094882Y0384757D01*
X0051205Y0384757D01*
X0098744Y0388620D02*
X0098744Y0394340D01*
D131*
X0119382Y0402257D02*
X0147815Y0402257D01*
X0154524Y0395549D01*
X0154524Y0387675D02*
X0140382Y0373533D01*
X0140382Y0363257D01*
X0111882Y0334757D01*
X0051205Y0334757D01*
X0051205Y0324757D02*
X0116882Y0324757D01*
X0118382Y0326257D01*
X0129185Y0326257D01*
X0129555Y0325887D01*
X0082882Y0354757D02*
X0112382Y0384257D01*
X0119382Y0402257D02*
X0081882Y0364757D01*
X0051205Y0364757D01*
X0051205Y0354757D02*
X0082882Y0354757D01*
X0227034Y0302508D02*
X0228034Y0303508D01*
X0237034Y0303508D01*
X0182494Y0267966D02*
X0182494Y0262615D01*
X0182552Y0262557D01*
X0198982Y0249257D02*
X0203311Y0253586D01*
X0203311Y0255811D01*
X0198982Y0249257D02*
X0198982Y0248557D01*
X0197882Y0247457D01*
X0134782Y0247457D01*
X0130382Y0243057D01*
X0130382Y0227457D01*
X0202882Y0225757D02*
X0202990Y0225757D01*
X0202990Y0216149D01*
X0202882Y0214757D01*
X0314582Y0231057D02*
X0318782Y0231057D01*
X0320343Y0229497D01*
X0320343Y0226175D01*
X0322311Y0226175D02*
X0322311Y0228486D01*
X0322982Y0229157D01*
X0322982Y0231114D01*
X0319949Y0234147D01*
X0326482Y0233987D02*
X0326482Y0230257D01*
X0324280Y0228055D01*
X0324280Y0226175D01*
X0326482Y0233987D02*
X0326642Y0234147D01*
X0317252Y0197911D02*
X0317252Y0192257D01*
X0319252Y0190257D01*
X0354252Y0138957D02*
X0357109Y0136100D01*
X0360055Y0136100D01*
X0432882Y0086757D02*
X0432882Y0074257D01*
X0432382Y0073257D01*
X0461882Y0044257D02*
X0461982Y0044357D01*
X0467882Y0044357D01*
X0547982Y0042780D02*
X0547982Y0017657D01*
X0548382Y0017257D01*
X0617382Y0011257D02*
X0617982Y0011857D01*
X0617982Y0042780D01*
X0641809Y0053136D02*
X0646630Y0057957D01*
X0666072Y0057957D01*
X0669019Y0060905D01*
X0479650Y0173205D02*
X0476057Y0173205D01*
X0471776Y0177486D01*
X0519661Y0224748D02*
X0519652Y0224757D01*
X0519661Y0224748D02*
X0528439Y0224748D01*
X0547552Y0244157D02*
X0550752Y0247357D01*
X0550752Y0258257D01*
X0548510Y0260499D01*
X0544130Y0260499D01*
X0618295Y0236578D02*
X0618295Y0229517D01*
X0613114Y0224336D01*
X0446852Y0280657D02*
X0445252Y0280657D01*
X0443752Y0282157D01*
X0375248Y0309581D02*
X0371508Y0309581D01*
X0375248Y0309581D02*
X0375252Y0316757D01*
X0375475Y0316980D01*
X0375748Y0316980D01*
X0438882Y0335757D02*
X0441882Y0338757D01*
X0441882Y0385257D01*
X0452882Y0396257D01*
X0466882Y0396257D01*
X0469020Y0394120D01*
X0469020Y0388116D01*
X0534052Y0367257D02*
X0539950Y0373155D01*
X0543085Y0373155D01*
X0559750Y0356637D02*
X0559750Y0351232D01*
X0558569Y0350051D01*
X0566837Y0350838D02*
X0566837Y0356637D01*
X0566837Y0350838D02*
X0567624Y0350051D01*
X0328965Y0287352D02*
X0328882Y0287269D01*
X0328882Y0281757D01*
X0124382Y0109857D02*
X0120282Y0105757D01*
X0120282Y0043680D01*
X0170282Y0043680D02*
X0170282Y0031057D01*
X0220512Y0085987D02*
X0224237Y0089713D01*
X0236539Y0089713D01*
X0236539Y0096040D02*
X0220564Y0096040D01*
X0220512Y0095987D01*
D132*
X0195673Y0249952D02*
X0195831Y0250109D01*
X0195831Y0255811D01*
D133*
X0354252Y0308257D03*
D134*
X0255882Y0301257D03*
X0246882Y0201557D03*
D135*
X0225382Y0198757D03*
X0202882Y0214757D03*
X0135882Y0187257D03*
X0129382Y0169257D03*
X0397382Y0102257D03*
X0567882Y0029657D03*
X0140382Y0030157D03*
X0034382Y0290757D03*
X0034882Y0314757D03*
X0034382Y0327257D03*
X0034382Y0344757D03*
X0034382Y0361257D03*
X0034382Y0374757D03*
X0034382Y0391257D03*
D136*
X0326839Y0272544D02*
X0327152Y0272857D01*
X0326839Y0272544D02*
X0326839Y0264856D01*
X0315335Y0264375D02*
X0314956Y0263996D01*
X0314956Y0255458D01*
X0314956Y0246712D01*
X0322356Y0246712D02*
X0326427Y0246712D01*
X0332102Y0241037D01*
X0336287Y0241037D01*
X0322356Y0246712D02*
X0322356Y0255458D01*
X0340638Y0253466D02*
X0353461Y0253466D01*
X0356236Y0256242D01*
X0356236Y0261466D01*
X0358382Y0261466D02*
X0368441Y0261466D01*
X0368748Y0261773D01*
X0380205Y0261773D01*
X0380205Y0269844D01*
X0382370Y0272009D01*
X0368441Y0272490D02*
X0368441Y0278446D01*
X0368452Y0278457D01*
X0356252Y0278457D02*
X0356236Y0278442D01*
X0356236Y0272490D01*
X0340852Y0270657D02*
X0340638Y0270443D01*
X0340638Y0264490D01*
X0302988Y0215923D02*
X0297547Y0215923D01*
X0297482Y0215857D01*
X0309752Y0211449D02*
X0309752Y0207848D01*
X0309776Y0206824D01*
X0298644Y0192477D02*
X0298644Y0185620D01*
X0291182Y0178157D01*
X0275205Y0174906D02*
X0275205Y0164416D01*
X0267752Y0164389D02*
X0267752Y0174959D01*
X0267265Y0175446D01*
X0267265Y0183475D01*
X0267306Y0183516D01*
X0267306Y0191670D01*
X0274706Y0191670D02*
X0274706Y0183516D01*
X0274665Y0183475D01*
X0274665Y0175446D01*
X0275205Y0174906D01*
X0313882Y0170757D02*
X0318988Y0175864D01*
X0326295Y0175864D01*
X0333382Y0178257D02*
X0335776Y0175864D01*
X0346374Y0175864D01*
X0346374Y0183749D01*
X0348882Y0186257D01*
X0348882Y0204257D01*
X0350925Y0206301D01*
X0358776Y0206301D01*
X0313882Y0170757D02*
X0313882Y0130757D01*
X0312382Y0129257D01*
X0301835Y0129257D01*
X0301366Y0128789D01*
X0312382Y0129257D02*
X0314382Y0129257D01*
X0318882Y0129257D01*
X0325882Y0122257D01*
X0358857Y0122257D01*
X0362658Y0126058D01*
X0369183Y0126058D01*
X0370882Y0127757D01*
X0370882Y0130883D01*
X0370783Y0130982D01*
X0373752Y0156257D02*
X0374210Y0156257D01*
X0374275Y0156192D01*
X0377229Y0156192D01*
X0377294Y0156257D01*
X0384752Y0156257D01*
X0385815Y0155194D02*
X0392831Y0155194D01*
X0373067Y0156942D02*
X0371752Y0158257D01*
X0371768Y0158273D01*
X0371768Y0161242D01*
X0253579Y0107784D02*
X0253579Y0101954D01*
X0253382Y0101757D01*
X0169171Y0116344D02*
X0167031Y0118484D01*
X0167031Y0127190D01*
X0159631Y0127190D02*
X0159631Y0134008D01*
X0158379Y0135260D01*
X0151815Y0135260D01*
X0151815Y0127860D02*
X0151771Y0127816D01*
X0151771Y0116362D01*
X0137525Y0145359D02*
X0126207Y0145359D01*
X0125885Y0145037D01*
X0118485Y0145037D02*
X0118485Y0150860D01*
X0121308Y0153683D01*
X0126161Y0153683D01*
X0126161Y0161083D02*
X0135868Y0161083D01*
X0137543Y0162759D01*
X0060063Y0155757D02*
X0059665Y0155360D01*
D137*
X0027382Y0155360D01*
X0027382Y0169139D02*
X0059665Y0169139D01*
X0059665Y0182919D02*
X0027382Y0182919D01*
X0027382Y0196698D02*
X0059665Y0196698D01*
X0059665Y0210478D02*
X0027382Y0210478D01*
X0027382Y0224257D02*
X0059665Y0224257D01*
X0099150Y0156317D02*
X0097799Y0154967D01*
X0097799Y0140145D01*
X0097799Y0124728D01*
X0110420Y0112108D01*
X0080199Y0124575D02*
X0069646Y0114021D01*
X0059665Y0114021D01*
X0027382Y0114021D01*
X0027382Y0127801D02*
X0059665Y0127801D01*
X0080199Y0124575D02*
X0080199Y0140145D01*
X0059665Y0141580D02*
X0027382Y0141580D01*
X0027382Y0100242D02*
X0059665Y0100242D01*
X0059665Y0086462D02*
X0027382Y0086462D01*
X0027382Y0072682D02*
X0059665Y0072682D01*
X0059165Y0047257D02*
X0026882Y0047257D01*
X0026882Y0033478D02*
X0059165Y0033478D01*
X0151771Y0105368D02*
X0161693Y0095446D01*
X0151771Y0105368D02*
X0151771Y0116362D01*
X0148523Y0145359D02*
X0137525Y0145359D01*
X0148523Y0145359D02*
X0158480Y0155316D01*
D138*
X0258082Y0153457D02*
X0258143Y0153518D01*
X0258143Y0158820D01*
X0258143Y0163820D01*
X0297482Y0193639D02*
X0297482Y0215857D01*
X0297482Y0230057D01*
X0297482Y0236457D01*
X0301668Y0240643D01*
X0306760Y0240643D01*
X0312568Y0240643D01*
X0314882Y0242957D01*
X0314882Y0246638D01*
X0314956Y0246712D01*
X0297482Y0193639D02*
X0298644Y0192477D01*
X0291982Y0043680D02*
X0291982Y0029357D01*
X0291482Y0028857D01*
X0291982Y0028857D01*
X0311982Y0028857D01*
X0311982Y0043680D01*
X0331982Y0043680D02*
X0331982Y0031357D01*
X0329482Y0028857D01*
X0311982Y0028857D01*
X0291482Y0028857D02*
X0272482Y0028857D01*
X0271982Y0029357D01*
X0271982Y0043680D01*
X0251982Y0043680D02*
X0251982Y0029357D01*
X0251482Y0028857D01*
X0233482Y0028857D01*
X0231982Y0030357D01*
X0231982Y0043680D01*
X0251482Y0028857D02*
X0251982Y0028857D01*
X0271982Y0028857D01*
X0272482Y0028857D01*
D139*
X0271982Y0028857D03*
X0291982Y0028857D03*
X0311982Y0028857D03*
X0251982Y0028857D03*
X0253382Y0101757D03*
X0258082Y0153457D03*
X0291182Y0178157D03*
X0333382Y0178257D03*
X0410634Y0183757D03*
X0410634Y0189757D03*
X0113882Y0255757D03*
X0113882Y0261757D03*
D140*
X0455082Y0039057D03*
X0406182Y0011957D03*
X0180282Y0017157D03*
X0170282Y0031057D03*
D141*
X0072582Y0160657D03*
X0145882Y0215257D03*
X0100882Y0222257D03*
X0094382Y0222257D03*
X0218882Y0195757D03*
D142*
X0193382Y0197057D02*
X0187170Y0203269D01*
X0181382Y0203269D01*
X0165309Y0203269D01*
X0163383Y0201344D01*
X0163071Y0201657D01*
X0163071Y0222257D01*
X0163071Y0236952D01*
X0143071Y0236952D02*
X0142882Y0236763D01*
X0109087Y0222060D02*
X0107890Y0222257D01*
X0100882Y0222257D01*
X0094382Y0222257D01*
X0145882Y0215257D02*
X0145882Y0201464D01*
X0145983Y0201362D01*
X0167457Y0185238D02*
X0175802Y0185238D01*
X0178282Y0182757D01*
X0488706Y0367643D02*
X0488882Y0367820D01*
X0488882Y0370757D01*
X0492854Y0374730D01*
X0498547Y0374730D01*
D143*
X0629152Y0260457D02*
X0644606Y0275911D01*
X0657996Y0275911D01*
X0629152Y0260457D02*
X0629152Y0242457D01*
X0623272Y0236578D01*
X0618295Y0236578D01*
X0623752Y0246257D02*
X0623857Y0246363D01*
X0623857Y0252661D01*
X0392831Y0172911D02*
X0387598Y0172911D01*
X0386252Y0174257D01*
X0386252Y0178757D01*
X0384752Y0180257D01*
X0376752Y0180257D01*
X0375606Y0179112D01*
X0375606Y0175568D01*
X0373047Y0175568D01*
X0370488Y0175568D01*
X0313882Y0231057D02*
X0313782Y0231057D01*
X0313772Y0231048D01*
X0313096Y0231048D01*
X0312106Y0230057D01*
X0297482Y0230057D01*
X0505059Y0099090D02*
X0511358Y0099090D01*
D144*
X0407791Y0154801D02*
X0407791Y0171730D01*
X0282067Y0251442D02*
X0256352Y0225727D01*
X0235687Y0225727D01*
X0252130Y0261667D02*
X0252130Y0266679D01*
X0246224Y0272585D01*
X0246224Y0282927D01*
X0202152Y0306457D02*
X0202152Y0314408D01*
X0202004Y0314557D01*
X0202004Y0344478D01*
X0400087Y0272009D02*
X0416700Y0272009D01*
X0418452Y0270257D01*
X0418452Y0260536D01*
X0419033Y0259954D01*
X0340638Y0253466D02*
X0333661Y0253466D01*
X0333652Y0253457D01*
X0236543Y0163820D02*
X0232819Y0163820D01*
X0231382Y0165257D01*
X0226555Y0165257D01*
X0226370Y0165442D01*
X0090282Y0054257D02*
X0088382Y0056157D01*
X0077882Y0056157D01*
X0068982Y0047257D01*
X0059165Y0047257D01*
X0090282Y0043680D02*
X0090282Y0054257D01*
D145*
X0392831Y0155194D02*
X0407791Y0155194D01*
D146*
X0371768Y0162257D02*
X0371768Y0163954D01*
D147*
X0226555Y0165257D02*
X0219682Y0165257D01*
X0215682Y0169257D01*
X0215682Y0182657D01*
X0217563Y0184538D01*
X0224304Y0184538D01*
X0224304Y0190335D01*
X0218882Y0195757D01*
X0179382Y0116057D02*
X0169457Y0116057D01*
X0169171Y0116344D01*
D148*
X0179382Y0116057D03*
D149*
X0133782Y0131357D03*
X0133782Y0095157D03*
D150*
X0134071Y0095446D01*
X0161693Y0095446D01*
X0133782Y0131357D02*
X0137525Y0135101D01*
X0137525Y0145359D01*
D151*
X0314382Y0231057D02*
X0314582Y0231057D01*
X0456372Y0079848D02*
X0456372Y0075888D01*
X0457333Y0074927D01*
X0460949Y0074927D01*
D152*
X0308815Y0152450D02*
X0308815Y0155009D01*
X0314082Y0231057D02*
X0314182Y0231057D01*
D153*
X0287382Y0252094D02*
X0286731Y0251442D01*
X0282067Y0251442D01*
X0287382Y0252094D02*
X0287382Y0253757D01*
X0288350Y0254725D01*
X0288350Y0269934D01*
X0244882Y0301257D02*
X0241382Y0297757D01*
X0222382Y0297757D01*
X0219058Y0294434D01*
X0219058Y0289226D01*
X0244882Y0301257D02*
X0255882Y0301257D01*
X0210004Y0255811D02*
X0215123Y0250692D01*
X0215123Y0235832D01*
X0051205Y0284757D02*
X0037882Y0284757D01*
X0034382Y0288257D01*
X0034382Y0290757D01*
X0034382Y0314757D01*
X0034882Y0314757D01*
X0051205Y0314757D01*
X0034382Y0314757D02*
X0034382Y0327257D01*
X0034382Y0344757D01*
X0051205Y0344757D01*
X0034382Y0344757D02*
X0034382Y0361257D01*
X0034382Y0374757D01*
X0051205Y0374757D01*
X0034382Y0374757D02*
X0034382Y0391257D01*
X0034382Y0391757D01*
X0037382Y0394757D01*
X0051205Y0394757D01*
X0253812Y0127151D02*
X0253812Y0122151D01*
X0253918Y0122257D01*
X0253812Y0122151D02*
X0253579Y0121918D01*
X0253579Y0115184D01*
X0276478Y0115184D01*
X0290189Y0128895D01*
X0301260Y0128895D01*
X0301366Y0128789D01*
D154*
X0275682Y0200357D03*
X0265982Y0199857D03*
D155*
X0239295Y0325399D02*
X0239295Y0332401D01*
X0240476Y0333582D01*
X0240476Y0339375D01*
D156*
X0191374Y0338650D02*
X0172083Y0338650D01*
X0172083Y0340617D02*
X0173949Y0340617D01*
X0173984Y0340485D02*
X0174272Y0339987D01*
X0174679Y0339580D01*
X0175177Y0339293D01*
X0175732Y0339144D01*
X0181728Y0339144D01*
X0181728Y0343887D01*
X0173835Y0343887D01*
X0173835Y0341041D01*
X0173984Y0340485D01*
X0173835Y0342584D02*
X0172083Y0342584D01*
X0172083Y0344551D02*
X0181728Y0344551D01*
X0181728Y0345068D02*
X0181728Y0343887D01*
X0182909Y0343887D01*
X0182909Y0339144D01*
X0188906Y0339144D01*
X0189461Y0339293D01*
X0189959Y0339580D01*
X0190366Y0339987D01*
X0190653Y0340485D01*
X0190802Y0341041D01*
X0190802Y0343887D01*
X0182910Y0343887D01*
X0182910Y0345068D01*
X0190802Y0345068D01*
X0190802Y0347915D01*
X0190653Y0348470D01*
X0190366Y0348969D01*
X0189959Y0349375D01*
X0189461Y0349663D01*
X0188906Y0349812D01*
X0182909Y0349812D01*
X0182909Y0345068D01*
X0181728Y0345068D01*
X0173835Y0345068D01*
X0173835Y0347915D01*
X0173984Y0348470D01*
X0174272Y0348969D01*
X0174679Y0349375D01*
X0175177Y0349663D01*
X0175732Y0349812D01*
X0181728Y0349812D01*
X0181728Y0345068D01*
X0182910Y0344551D02*
X0191374Y0344551D01*
X0191374Y0346518D02*
X0190802Y0346518D01*
X0191374Y0348021D02*
X0189406Y0349990D01*
X0174445Y0349990D01*
X0172083Y0347627D01*
X0172083Y0311133D01*
X0174136Y0309079D01*
X0174136Y0308566D01*
X0174839Y0307864D01*
X0188618Y0307864D01*
X0191374Y0310620D01*
X0191374Y0348021D01*
X0190910Y0348485D02*
X0190645Y0348485D01*
X0190802Y0342584D02*
X0191374Y0342584D01*
X0191374Y0340617D02*
X0190689Y0340617D01*
X0191374Y0336683D02*
X0172083Y0336683D01*
X0172083Y0334716D02*
X0191374Y0334716D01*
X0191374Y0332749D02*
X0172083Y0332749D01*
X0172083Y0330782D02*
X0191374Y0330782D01*
X0191374Y0328815D02*
X0172083Y0328815D01*
X0172083Y0326848D02*
X0191374Y0326848D01*
X0191374Y0324881D02*
X0172083Y0324881D01*
X0172083Y0322914D02*
X0191374Y0322914D01*
X0191374Y0320947D02*
X0172083Y0320947D01*
X0172083Y0318980D02*
X0174233Y0318980D01*
X0174272Y0319047D02*
X0173984Y0318549D01*
X0173835Y0317994D01*
X0173835Y0315147D01*
X0181728Y0315147D01*
X0181728Y0313966D01*
X0173835Y0313966D01*
X0173835Y0311119D01*
X0173984Y0310564D01*
X0174272Y0310066D01*
X0174679Y0309659D01*
X0175177Y0309372D01*
X0175732Y0309223D01*
X0181728Y0309223D01*
X0181728Y0313966D01*
X0182909Y0313966D01*
X0182909Y0309223D01*
X0188906Y0309223D01*
X0189461Y0309372D01*
X0189959Y0309659D01*
X0190366Y0310066D01*
X0190653Y0310564D01*
X0190802Y0311119D01*
X0190802Y0313966D01*
X0182910Y0313966D01*
X0182910Y0315147D01*
X0190802Y0315147D01*
X0190802Y0317994D01*
X0190653Y0318549D01*
X0190366Y0319047D01*
X0189959Y0319454D01*
X0189461Y0319741D01*
X0188906Y0319890D01*
X0182909Y0319890D01*
X0182909Y0315147D01*
X0181728Y0315147D01*
X0181728Y0319890D01*
X0175732Y0319890D01*
X0175177Y0319741D01*
X0174679Y0319454D01*
X0174272Y0319047D01*
X0173835Y0317013D02*
X0172083Y0317013D01*
X0172083Y0315046D02*
X0181728Y0315046D01*
X0182910Y0315046D02*
X0191374Y0315046D01*
X0191374Y0317013D02*
X0190802Y0317013D01*
X0190405Y0318980D02*
X0191374Y0318980D01*
X0182909Y0318980D02*
X0181728Y0318980D01*
X0181728Y0317013D02*
X0182909Y0317013D01*
X0182909Y0313079D02*
X0181728Y0313079D01*
X0181728Y0311112D02*
X0182909Y0311112D01*
X0189899Y0309145D02*
X0174071Y0309145D01*
X0173837Y0311112D02*
X0172104Y0311112D01*
X0172083Y0313079D02*
X0173835Y0313079D01*
X0190802Y0313079D02*
X0191374Y0313079D01*
X0191374Y0311112D02*
X0190800Y0311112D01*
X0182909Y0340617D02*
X0181728Y0340617D01*
X0181728Y0342584D02*
X0182909Y0342584D01*
X0182909Y0346518D02*
X0181728Y0346518D01*
X0181728Y0348485D02*
X0182909Y0348485D01*
X0173993Y0348485D02*
X0172940Y0348485D01*
X0172083Y0346518D02*
X0173835Y0346518D01*
M02*
